<svg width="800" height="280" xmlns="http://www.w3.org/2000/svg" viewBox="0 0 800 280" font-family="-apple-system, BlinkMacSystemFont, 'Segoe UI', 'PingFang SC', 'Hiragino Sans GB', 'Microsoft YaHei', 'Noto Sans CJK SC', sans-serif">
  <rect width="800" height="280" fill="#ffffff"/>
  <line x1="55" y1="235.0" x2="752" y2="235.0" stroke="#eaeef2" stroke-width="1"/>
  <text x="49" y="239.0" fill="#57606a" font-size="11" text-anchor="end">0</text>
  <line x1="55" y1="196.0" x2="752" y2="196.0" stroke="#eaeef2" stroke-width="1"/>
  <text x="49" y="200.0" fill="#57606a" font-size="11" text-anchor="end">99</text>
  <line x1="55" y1="157.0" x2="752" y2="157.0" stroke="#eaeef2" stroke-width="1"/>
  <text x="49" y="161.0" fill="#57606a" font-size="11" text-anchor="end">198</text>
  <line x1="55" y1="118.0" x2="752" y2="118.0" stroke="#eaeef2" stroke-width="1"/>
  <text x="49" y="122.0" fill="#57606a" font-size="11" text-anchor="end">298</text>
  <line x1="55" y1="79.0" x2="752" y2="79.0" stroke="#eaeef2" stroke-width="1"/>
  <text x="49" y="83.0" fill="#57606a" font-size="11" text-anchor="end">397</text>
  <line x1="55" y1="40.0" x2="752" y2="40.0" stroke="#eaeef2" stroke-width="1"/>
  <text x="49" y="44.0" fill="#57606a" font-size="11" text-anchor="end">497</text>
  <rect x="45.2" y="208.6" width="19.6" height="26.4" fill="#0969da" opacity="0.35" rx="2"/>
  <text x="55.0" y="204.6" fill="#57606a" font-size="10" text-anchor="middle">10</text>
  <rect x="91.7" y="58.4" width="19.6" height="176.6" fill="#0969da" opacity="0.35" rx="2"/>
  <text x="101.5" y="54.4" fill="#57606a" font-size="10" text-anchor="middle">67</text>
  <rect x="138.1" y="45.3" width="19.6" height="189.7" fill="#0969da" opacity="0.35" rx="2"/>
  <text x="147.9" y="41.3" fill="#57606a" font-size="10" text-anchor="middle">72</text>
  <rect x="184.6" y="40.0" width="19.6" height="195.0" fill="#0969da" opacity="0.35" rx="2"/>
  <text x="194.4" y="36.0" fill="#57606a" font-size="10" text-anchor="middle">74</text>
  <rect x="231.1" y="153.3" width="19.6" height="81.7" fill="#0969da" opacity="0.35" rx="2"/>
  <text x="240.9" y="149.3" fill="#57606a" font-size="10" text-anchor="middle">31</text>
  <rect x="277.5" y="171.8" width="19.6" height="63.2" fill="#0969da" opacity="0.35" rx="2"/>
  <text x="287.3" y="167.8" fill="#57606a" font-size="10" text-anchor="middle">24</text>
  <rect x="324.0" y="142.8" width="19.6" height="92.2" fill="#0969da" opacity="0.35" rx="2"/>
  <text x="333.8" y="138.8" fill="#57606a" font-size="10" text-anchor="middle">35</text>
  <rect x="370.5" y="187.6" width="19.6" height="47.4" fill="#0969da" opacity="0.35" rx="2"/>
  <text x="380.3" y="183.6" fill="#57606a" font-size="10" text-anchor="middle">18</text>
  <rect x="416.9" y="179.7" width="19.6" height="55.3" fill="#0969da" opacity="0.35" rx="2"/>
  <text x="426.7" y="175.7" fill="#57606a" font-size="10" text-anchor="middle">21</text>
  <rect x="463.4" y="171.8" width="19.6" height="63.2" fill="#0969da" opacity="0.35" rx="2"/>
  <text x="473.2" y="167.8" fill="#57606a" font-size="10" text-anchor="middle">24</text>
  <rect x="509.9" y="192.8" width="19.6" height="42.2" fill="#0969da" opacity="0.35" rx="2"/>
  <text x="519.7" y="188.8" fill="#57606a" font-size="10" text-anchor="middle">16</text>
  <rect x="556.3" y="158.6" width="19.6" height="76.4" fill="#0969da" opacity="0.35" rx="2"/>
  <text x="566.1" y="154.6" fill="#57606a" font-size="10" text-anchor="middle">29</text>
  <rect x="602.8" y="187.6" width="19.6" height="47.4" fill="#0969da" opacity="0.35" rx="2"/>
  <text x="612.6" y="183.6" fill="#57606a" font-size="10" text-anchor="middle">18</text>
  <rect x="649.3" y="179.7" width="19.6" height="55.3" fill="#0969da" opacity="0.35" rx="2"/>
  <text x="659.1" y="175.7" fill="#57606a" font-size="10" text-anchor="middle">21</text>
  <rect x="695.7" y="187.6" width="19.6" height="47.4" fill="#0969da" opacity="0.35" rx="2"/>
  <text x="705.5" y="183.6" fill="#57606a" font-size="10" text-anchor="middle">18</text>
  <rect x="742.2" y="184.9" width="19.6" height="50.1" fill="#0969da" opacity="0.35" rx="2"/>
  <text x="752.0" y="180.9" fill="#57606a" font-size="10" text-anchor="middle">19</text>
  <polygon points="55.0,235 55.0,231.1 101.5,204.8 147.9,176.5 194.4,147.5 240.9,135.3 287.3,125.9 333.8,112.2 380.3,105.1 426.7,96.9 473.2,87.5 519.7,81.2 566.1,69.8 612.6,62.8 659.1,54.5 705.5,47.5 752.0,40.0 752.0,235" fill="#0969da" opacity="0.15"/>
  <polyline points="55.0,231.1 101.5,204.8 147.9,176.5 194.4,147.5 240.9,135.3 287.3,125.9 333.8,112.2 380.3,105.1 426.7,96.9 473.2,87.5 519.7,81.2 566.1,69.8 612.6,62.8 659.1,54.5 705.5,47.5 752.0,40.0" fill="none" stroke="#0969da" stroke-width="2" stroke-linejoin="round"/>
  <circle cx="55.0" cy="231.1" r="4" fill="#0969da" stroke="#ffffff" stroke-width="2"/>
  <circle cx="752.0" cy="40.0" r="4" fill="#0969da" stroke="#ffffff" stroke-width="2"/>
  <text x="758" y="239.0" fill="#57606a" font-size="11" text-anchor="start">0</text>
  <text x="758" y="200.0" fill="#57606a" font-size="11" text-anchor="start">14</text>
  <text x="758" y="161.0" fill="#57606a" font-size="11" text-anchor="start">29</text>
  <text x="758" y="122.0" fill="#57606a" font-size="11" text-anchor="start">44</text>
  <text x="758" y="83.0" fill="#57606a" font-size="11" text-anchor="start">59</text>
  <text x="758" y="44.0" fill="#57606a" font-size="11" text-anchor="start">74</text>
  <text x="55.0" y="272" fill="#57606a" font-size="11" text-anchor="middle">05-20</text>
  <line x1="55.0" y1="235" x2="55.0" y2="239" stroke="#57606a" stroke-width="1"/>
  <text x="147.9" y="272" fill="#57606a" font-size="11" text-anchor="middle">05-23</text>
  <line x1="147.9" y1="235" x2="147.9" y2="239" stroke="#57606a" stroke-width="1"/>
  <text x="240.9" y="272" fill="#57606a" font-size="11" text-anchor="middle">05-26</text>
  <line x1="240.9" y1="235" x2="240.9" y2="239" stroke="#57606a" stroke-width="1"/>
  <text x="333.8" y="272" fill="#57606a" font-size="11" text-anchor="middle">05-28</text>
  <line x1="333.8" y1="235" x2="333.8" y2="239" stroke="#57606a" stroke-width="1"/>
  <text x="426.7" y="272" fill="#57606a" font-size="11" text-anchor="middle">05-30</text>
  <line x1="426.7" y1="235" x2="426.7" y2="239" stroke="#57606a" stroke-width="1"/>
  <text x="519.7" y="272" fill="#57606a" font-size="11" text-anchor="middle">06-01</text>
  <line x1="519.7" y1="235" x2="519.7" y2="239" stroke="#57606a" stroke-width="1"/>
  <text x="612.6" y="272" fill="#57606a" font-size="11" text-anchor="middle">06-03</text>
  <line x1="612.6" y1="235" x2="612.6" y2="239" stroke="#57606a" stroke-width="1"/>
  <text x="705.5" y="272" fill="#57606a" font-size="11" text-anchor="middle">06-05</text>
  <line x1="705.5" y1="235" x2="705.5" y2="239" stroke="#57606a" stroke-width="1"/>
  <text x="752.0" y="272" fill="#57606a" font-size="11" text-anchor="middle">06-06</text>
  <line x1="752.0" y1="235" x2="752.0" y2="239" stroke="#57606a" stroke-width="1"/>
  <text x="400" y="22" fill="#1f2328" font-size="14" font-weight="bold" text-anchor="middle">累计：助记 497 词</text>
  <rect x="552" y="30" width="10" height="3" fill="#0969da"/>
  <text x="566" y="34" fill="#57606a" font-size="11">累计助记</text>
  <rect x="624" y="28" width="9" height="7" fill="#0969da" opacity="0.5"/>
  <text x="637" y="34" fill="#57606a" font-size="11">每日新增</text>
  <line x1="55" y1="40" x2="55" y2="235" stroke="#d0d7de" stroke-width="1"/>
  <line x1="55" y1="235" x2="752" y2="235" stroke="#d0d7de" stroke-width="1"/>
</svg>
