<svg width="800" height="280" xmlns="http://www.w3.org/2000/svg" viewBox="0 0 800 280" font-family="-apple-system, BlinkMacSystemFont, 'Segoe UI', 'PingFang SC', 'Hiragino Sans GB', 'Microsoft YaHei', 'Noto Sans CJK SC', sans-serif">
  <rect width="800" height="280" fill="#ffffff"/>
  <line x1="55" y1="235.0" x2="752" y2="235.0" stroke="#eaeef2" stroke-width="1"/>
  <text x="49" y="239.0" fill="#57606a" font-size="11" text-anchor="end">0</text>
  <line x1="55" y1="196.0" x2="752" y2="196.0" stroke="#eaeef2" stroke-width="1"/>
  <text x="49" y="200.0" fill="#57606a" font-size="11" text-anchor="end">132</text>
  <line x1="55" y1="157.0" x2="752" y2="157.0" stroke="#eaeef2" stroke-width="1"/>
  <text x="49" y="161.0" fill="#57606a" font-size="11" text-anchor="end">264</text>
  <line x1="55" y1="118.0" x2="752" y2="118.0" stroke="#eaeef2" stroke-width="1"/>
  <text x="49" y="122.0" fill="#57606a" font-size="11" text-anchor="end">396</text>
  <line x1="55" y1="79.0" x2="752" y2="79.0" stroke="#eaeef2" stroke-width="1"/>
  <text x="49" y="83.0" fill="#57606a" font-size="11" text-anchor="end">528</text>
  <line x1="55" y1="40.0" x2="752" y2="40.0" stroke="#eaeef2" stroke-width="1"/>
  <text x="49" y="44.0" fill="#57606a" font-size="11" text-anchor="end">661</text>
  <rect x="48.5" y="208.6" width="13.1" height="26.4" fill="#0969da" opacity="0.35" rx="2"/>
  <text x="55.0" y="204.6" fill="#57606a" font-size="10" text-anchor="middle">10</text>
  <rect x="78.8" y="58.4" width="13.1" height="176.6" fill="#0969da" opacity="0.35" rx="2"/>
  <text x="85.3" y="54.4" fill="#57606a" font-size="10" text-anchor="middle">67</text>
  <rect x="109.1" y="45.3" width="13.1" height="189.7" fill="#0969da" opacity="0.35" rx="2"/>
  <text x="115.6" y="41.3" fill="#57606a" font-size="10" text-anchor="middle">72</text>
  <rect x="139.4" y="40.0" width="13.1" height="195.0" fill="#0969da" opacity="0.35" rx="2"/>
  <text x="145.9" y="36.0" fill="#57606a" font-size="10" text-anchor="middle">74</text>
  <rect x="169.7" y="153.3" width="13.1" height="81.7" fill="#0969da" opacity="0.35" rx="2"/>
  <text x="176.2" y="149.3" fill="#57606a" font-size="10" text-anchor="middle">31</text>
  <rect x="200.0" y="171.8" width="13.1" height="63.2" fill="#0969da" opacity="0.35" rx="2"/>
  <text x="206.5" y="167.8" fill="#57606a" font-size="10" text-anchor="middle">24</text>
  <rect x="230.3" y="142.8" width="13.1" height="92.2" fill="#0969da" opacity="0.35" rx="2"/>
  <text x="236.8" y="138.8" fill="#57606a" font-size="10" text-anchor="middle">35</text>
  <rect x="260.6" y="187.6" width="13.1" height="47.4" fill="#0969da" opacity="0.35" rx="2"/>
  <text x="267.1" y="183.6" fill="#57606a" font-size="10" text-anchor="middle">18</text>
  <rect x="290.9" y="179.7" width="13.1" height="55.3" fill="#0969da" opacity="0.35" rx="2"/>
  <text x="297.4" y="175.7" fill="#57606a" font-size="10" text-anchor="middle">21</text>
  <rect x="321.2" y="171.8" width="13.1" height="63.2" fill="#0969da" opacity="0.35" rx="2"/>
  <text x="327.7" y="167.8" fill="#57606a" font-size="10" text-anchor="middle">24</text>
  <rect x="351.5" y="192.8" width="13.1" height="42.2" fill="#0969da" opacity="0.35" rx="2"/>
  <text x="358.0" y="188.8" fill="#57606a" font-size="10" text-anchor="middle">16</text>
  <rect x="381.8" y="158.6" width="13.1" height="76.4" fill="#0969da" opacity="0.35" rx="2"/>
  <text x="388.3" y="154.6" fill="#57606a" font-size="10" text-anchor="middle">29</text>
  <rect x="412.1" y="187.6" width="13.1" height="47.4" fill="#0969da" opacity="0.35" rx="2"/>
  <text x="418.7" y="183.6" fill="#57606a" font-size="10" text-anchor="middle">18</text>
  <rect x="442.4" y="179.7" width="13.1" height="55.3" fill="#0969da" opacity="0.35" rx="2"/>
  <text x="449.0" y="175.7" fill="#57606a" font-size="10" text-anchor="middle">21</text>
  <rect x="472.7" y="187.6" width="13.1" height="47.4" fill="#0969da" opacity="0.35" rx="2"/>
  <text x="479.3" y="183.6" fill="#57606a" font-size="10" text-anchor="middle">18</text>
  <rect x="503.0" y="184.9" width="13.1" height="50.1" fill="#0969da" opacity="0.35" rx="2"/>
  <text x="509.6" y="180.9" fill="#57606a" font-size="10" text-anchor="middle">19</text>
  <rect x="533.3" y="174.4" width="13.1" height="60.6" fill="#0969da" opacity="0.35" rx="2"/>
  <text x="539.9" y="170.4" fill="#57606a" font-size="10" text-anchor="middle">23</text>
  <rect x="563.6" y="190.2" width="13.1" height="44.8" fill="#0969da" opacity="0.35" rx="2"/>
  <text x="570.2" y="186.2" fill="#57606a" font-size="10" text-anchor="middle">17</text>
  <rect x="593.9" y="169.1" width="13.1" height="65.9" fill="#0969da" opacity="0.35" rx="2"/>
  <text x="600.5" y="165.1" fill="#57606a" font-size="10" text-anchor="middle">25</text>
  <rect x="624.2" y="161.2" width="13.1" height="73.8" fill="#0969da" opacity="0.35" rx="2"/>
  <text x="630.8" y="157.2" fill="#57606a" font-size="10" text-anchor="middle">28</text>
  <rect x="654.6" y="203.4" width="13.1" height="31.6" fill="#0969da" opacity="0.35" rx="2"/>
  <text x="661.1" y="199.4" fill="#57606a" font-size="10" text-anchor="middle">12</text>
  <rect x="684.9" y="187.6" width="13.1" height="47.4" fill="#0969da" opacity="0.35" rx="2"/>
  <text x="691.4" y="183.6" fill="#57606a" font-size="10" text-anchor="middle">18</text>
  <rect x="715.2" y="179.7" width="13.1" height="55.3" fill="#0969da" opacity="0.35" rx="2"/>
  <text x="721.7" y="175.7" fill="#57606a" font-size="10" text-anchor="middle">21</text>
  <rect x="745.5" y="182.3" width="13.1" height="52.7" fill="#0969da" opacity="0.35" rx="2"/>
  <text x="752.0" y="178.3" fill="#57606a" font-size="10" text-anchor="middle">20</text>
  <polygon points="55.0,235 55.0,232.0 85.3,212.3 115.6,191.0 145.9,169.2 176.2,160.1 206.5,153.0 236.8,142.7 267.1,137.4 297.4,131.2 327.7,124.1 358.0,119.4 388.3,110.8 418.7,105.5 449.0,99.3 479.3,94.0 509.6,88.4 539.9,81.6 570.2,76.6 600.5,69.2 630.8,60.9 661.1,57.4 691.4,52.1 721.7,45.9 752.0,40.0 752.0,235" fill="#0969da" opacity="0.15"/>
  <polyline points="55.0,232.0 85.3,212.3 115.6,191.0 145.9,169.2 176.2,160.1 206.5,153.0 236.8,142.7 267.1,137.4 297.4,131.2 327.7,124.1 358.0,119.4 388.3,110.8 418.7,105.5 449.0,99.3 479.3,94.0 509.6,88.4 539.9,81.6 570.2,76.6 600.5,69.2 630.8,60.9 661.1,57.4 691.4,52.1 721.7,45.9 752.0,40.0" fill="none" stroke="#0969da" stroke-width="2" stroke-linejoin="round"/>
  <circle cx="55.0" cy="232.0" r="4" fill="#0969da" stroke="#ffffff" stroke-width="2"/>
  <circle cx="752.0" cy="40.0" r="4" fill="#0969da" stroke="#ffffff" stroke-width="2"/>
  <text x="758" y="239.0" fill="#57606a" font-size="11" text-anchor="start">0</text>
  <text x="758" y="200.0" fill="#57606a" font-size="11" text-anchor="start">14</text>
  <text x="758" y="161.0" fill="#57606a" font-size="11" text-anchor="start">29</text>
  <text x="758" y="122.0" fill="#57606a" font-size="11" text-anchor="start">44</text>
  <text x="758" y="83.0" fill="#57606a" font-size="11" text-anchor="start">59</text>
  <text x="758" y="44.0" fill="#57606a" font-size="11" text-anchor="start">74</text>
  <text x="55.0" y="272" fill="#57606a" font-size="11" text-anchor="middle">05-20</text>
  <line x1="55.0" y1="235" x2="55.0" y2="239" stroke="#57606a" stroke-width="1"/>
  <text x="176.2" y="272" fill="#57606a" font-size="11" text-anchor="middle">05-26</text>
  <line x1="176.2" y1="235" x2="176.2" y2="239" stroke="#57606a" stroke-width="1"/>
  <text x="297.4" y="272" fill="#57606a" font-size="11" text-anchor="middle">05-30</text>
  <line x1="297.4" y1="235" x2="297.4" y2="239" stroke="#57606a" stroke-width="1"/>
  <text x="418.7" y="272" fill="#57606a" font-size="11" text-anchor="middle">06-03</text>
  <line x1="418.7" y1="235" x2="418.7" y2="239" stroke="#57606a" stroke-width="1"/>
  <text x="539.9" y="272" fill="#57606a" font-size="11" text-anchor="middle">06-08</text>
  <line x1="539.9" y1="235" x2="539.9" y2="239" stroke="#57606a" stroke-width="1"/>
  <text x="661.1" y="272" fill="#57606a" font-size="11" text-anchor="middle">06-12</text>
  <line x1="661.1" y1="235" x2="661.1" y2="239" stroke="#57606a" stroke-width="1"/>
  <text x="752.0" y="272" fill="#57606a" font-size="11" text-anchor="middle">06-15</text>
  <line x1="752.0" y1="235" x2="752.0" y2="239" stroke="#57606a" stroke-width="1"/>
  <text x="400" y="22" fill="#1f2328" font-size="14" font-weight="bold" text-anchor="middle">累计：助记 661 词</text>
  <rect x="552" y="30" width="10" height="3" fill="#0969da"/>
  <text x="566" y="34" fill="#57606a" font-size="11">累计助记</text>
  <rect x="624" y="28" width="9" height="7" fill="#0969da" opacity="0.5"/>
  <text x="637" y="34" fill="#57606a" font-size="11">每日新增</text>
  <line x1="55" y1="40" x2="55" y2="235" stroke="#d0d7de" stroke-width="1"/>
  <line x1="55" y1="235" x2="752" y2="235" stroke="#d0d7de" stroke-width="1"/>
</svg>
