<svg width="800" height="280" xmlns="http://www.w3.org/2000/svg" viewBox="0 0 800 280" font-family="-apple-system, BlinkMacSystemFont, 'Segoe UI', 'PingFang SC', 'Hiragino Sans GB', 'Microsoft YaHei', 'Noto Sans CJK SC', sans-serif">
  <rect width="800" height="280" fill="#ffffff"/>
  <line x1="55" y1="235.0" x2="752" y2="235.0" stroke="#eaeef2" stroke-width="1"/>
  <text x="49" y="239.0" fill="#57606a" font-size="11" text-anchor="end">0</text>
  <line x1="55" y1="196.0" x2="752" y2="196.0" stroke="#eaeef2" stroke-width="1"/>
  <text x="49" y="200.0" fill="#57606a" font-size="11" text-anchor="end">124</text>
  <line x1="55" y1="157.0" x2="752" y2="157.0" stroke="#eaeef2" stroke-width="1"/>
  <text x="49" y="161.0" fill="#57606a" font-size="11" text-anchor="end">248</text>
  <line x1="55" y1="118.0" x2="752" y2="118.0" stroke="#eaeef2" stroke-width="1"/>
  <text x="49" y="122.0" fill="#57606a" font-size="11" text-anchor="end">372</text>
  <line x1="55" y1="79.0" x2="752" y2="79.0" stroke="#eaeef2" stroke-width="1"/>
  <text x="49" y="83.0" fill="#57606a" font-size="11" text-anchor="end">496</text>
  <line x1="55" y1="40.0" x2="752" y2="40.0" stroke="#eaeef2" stroke-width="1"/>
  <text x="49" y="44.0" fill="#57606a" font-size="11" text-anchor="end">620</text>
  <rect x="47.9" y="208.6" width="14.3" height="26.4" fill="#0969da" opacity="0.35" rx="2"/>
  <text x="55.0" y="204.6" fill="#57606a" font-size="10" text-anchor="middle">10</text>
  <rect x="81.1" y="58.4" width="14.3" height="176.6" fill="#0969da" opacity="0.35" rx="2"/>
  <text x="88.2" y="54.4" fill="#57606a" font-size="10" text-anchor="middle">67</text>
  <rect x="114.3" y="45.3" width="14.3" height="189.7" fill="#0969da" opacity="0.35" rx="2"/>
  <text x="121.4" y="41.3" fill="#57606a" font-size="10" text-anchor="middle">72</text>
  <rect x="147.4" y="40.0" width="14.3" height="195.0" fill="#0969da" opacity="0.35" rx="2"/>
  <text x="154.6" y="36.0" fill="#57606a" font-size="10" text-anchor="middle">74</text>
  <rect x="180.6" y="153.3" width="14.3" height="81.7" fill="#0969da" opacity="0.35" rx="2"/>
  <text x="187.8" y="149.3" fill="#57606a" font-size="10" text-anchor="middle">31</text>
  <rect x="213.8" y="171.8" width="14.3" height="63.2" fill="#0969da" opacity="0.35" rx="2"/>
  <text x="221.0" y="167.8" fill="#57606a" font-size="10" text-anchor="middle">24</text>
  <rect x="247.0" y="142.8" width="14.3" height="92.2" fill="#0969da" opacity="0.35" rx="2"/>
  <text x="254.1" y="138.8" fill="#57606a" font-size="10" text-anchor="middle">35</text>
  <rect x="280.2" y="187.6" width="14.3" height="47.4" fill="#0969da" opacity="0.35" rx="2"/>
  <text x="287.3" y="183.6" fill="#57606a" font-size="10" text-anchor="middle">18</text>
  <rect x="313.4" y="179.7" width="14.3" height="55.3" fill="#0969da" opacity="0.35" rx="2"/>
  <text x="320.5" y="175.7" fill="#57606a" font-size="10" text-anchor="middle">21</text>
  <rect x="346.6" y="171.8" width="14.3" height="63.2" fill="#0969da" opacity="0.35" rx="2"/>
  <text x="353.7" y="167.8" fill="#57606a" font-size="10" text-anchor="middle">24</text>
  <rect x="379.8" y="192.8" width="14.3" height="42.2" fill="#0969da" opacity="0.35" rx="2"/>
  <text x="386.9" y="188.8" fill="#57606a" font-size="10" text-anchor="middle">16</text>
  <rect x="413.0" y="158.6" width="14.3" height="76.4" fill="#0969da" opacity="0.35" rx="2"/>
  <text x="420.1" y="154.6" fill="#57606a" font-size="10" text-anchor="middle">29</text>
  <rect x="446.2" y="187.6" width="14.3" height="47.4" fill="#0969da" opacity="0.35" rx="2"/>
  <text x="453.3" y="183.6" fill="#57606a" font-size="10" text-anchor="middle">18</text>
  <rect x="479.3" y="179.7" width="14.3" height="55.3" fill="#0969da" opacity="0.35" rx="2"/>
  <text x="486.5" y="175.7" fill="#57606a" font-size="10" text-anchor="middle">21</text>
  <rect x="512.5" y="187.6" width="14.3" height="47.4" fill="#0969da" opacity="0.35" rx="2"/>
  <text x="519.7" y="183.6" fill="#57606a" font-size="10" text-anchor="middle">18</text>
  <rect x="545.7" y="184.9" width="14.3" height="50.1" fill="#0969da" opacity="0.35" rx="2"/>
  <text x="552.9" y="180.9" fill="#57606a" font-size="10" text-anchor="middle">19</text>
  <rect x="578.9" y="174.4" width="14.3" height="60.6" fill="#0969da" opacity="0.35" rx="2"/>
  <text x="586.0" y="170.4" fill="#57606a" font-size="10" text-anchor="middle">23</text>
  <rect x="612.1" y="190.2" width="14.3" height="44.8" fill="#0969da" opacity="0.35" rx="2"/>
  <text x="619.2" y="186.2" fill="#57606a" font-size="10" text-anchor="middle">17</text>
  <rect x="645.3" y="169.1" width="14.3" height="65.9" fill="#0969da" opacity="0.35" rx="2"/>
  <text x="652.4" y="165.1" fill="#57606a" font-size="10" text-anchor="middle">25</text>
  <rect x="678.5" y="161.2" width="14.3" height="73.8" fill="#0969da" opacity="0.35" rx="2"/>
  <text x="685.6" y="157.2" fill="#57606a" font-size="10" text-anchor="middle">28</text>
  <rect x="711.7" y="203.4" width="14.3" height="31.6" fill="#0969da" opacity="0.35" rx="2"/>
  <text x="718.8" y="199.4" fill="#57606a" font-size="10" text-anchor="middle">12</text>
  <rect x="744.9" y="187.6" width="14.3" height="47.4" fill="#0969da" opacity="0.35" rx="2"/>
  <text x="752.0" y="183.6" fill="#57606a" font-size="10" text-anchor="middle">18</text>
  <polygon points="55.0,235 55.0,231.9 88.2,210.8 121.4,188.1 154.6,164.9 187.8,155.1 221.0,147.6 254.1,136.6 287.3,130.9 320.5,124.3 353.7,116.7 386.9,111.7 420.1,102.6 453.3,96.9 486.5,90.3 519.7,84.7 552.9,78.7 586.0,71.5 619.2,66.1 652.4,58.2 685.6,49.4 718.8,45.7 752.0,40.0 752.0,235" fill="#0969da" opacity="0.15"/>
  <polyline points="55.0,231.9 88.2,210.8 121.4,188.1 154.6,164.9 187.8,155.1 221.0,147.6 254.1,136.6 287.3,130.9 320.5,124.3 353.7,116.7 386.9,111.7 420.1,102.6 453.3,96.9 486.5,90.3 519.7,84.7 552.9,78.7 586.0,71.5 619.2,66.1 652.4,58.2 685.6,49.4 718.8,45.7 752.0,40.0" fill="none" stroke="#0969da" stroke-width="2" stroke-linejoin="round"/>
  <circle cx="55.0" cy="231.9" r="4" fill="#0969da" stroke="#ffffff" stroke-width="2"/>
  <circle cx="752.0" cy="40.0" r="4" fill="#0969da" stroke="#ffffff" stroke-width="2"/>
  <text x="758" y="239.0" fill="#57606a" font-size="11" text-anchor="start">0</text>
  <text x="758" y="200.0" fill="#57606a" font-size="11" text-anchor="start">14</text>
  <text x="758" y="161.0" fill="#57606a" font-size="11" text-anchor="start">29</text>
  <text x="758" y="122.0" fill="#57606a" font-size="11" text-anchor="start">44</text>
  <text x="758" y="83.0" fill="#57606a" font-size="11" text-anchor="start">59</text>
  <text x="758" y="44.0" fill="#57606a" font-size="11" text-anchor="start">74</text>
  <text x="55.0" y="272" fill="#57606a" font-size="11" text-anchor="middle">05-20</text>
  <line x1="55.0" y1="235" x2="55.0" y2="239" stroke="#57606a" stroke-width="1"/>
  <text x="154.6" y="272" fill="#57606a" font-size="11" text-anchor="middle">05-25</text>
  <line x1="154.6" y1="235" x2="154.6" y2="239" stroke="#57606a" stroke-width="1"/>
  <text x="254.1" y="272" fill="#57606a" font-size="11" text-anchor="middle">05-28</text>
  <line x1="254.1" y1="235" x2="254.1" y2="239" stroke="#57606a" stroke-width="1"/>
  <text x="353.7" y="272" fill="#57606a" font-size="11" text-anchor="middle">05-31</text>
  <line x1="353.7" y1="235" x2="353.7" y2="239" stroke="#57606a" stroke-width="1"/>
  <text x="453.3" y="272" fill="#57606a" font-size="11" text-anchor="middle">06-03</text>
  <line x1="453.3" y1="235" x2="453.3" y2="239" stroke="#57606a" stroke-width="1"/>
  <text x="552.9" y="272" fill="#57606a" font-size="11" text-anchor="middle">06-06</text>
  <line x1="552.9" y1="235" x2="552.9" y2="239" stroke="#57606a" stroke-width="1"/>
  <text x="652.4" y="272" fill="#57606a" font-size="11" text-anchor="middle">06-10</text>
  <line x1="652.4" y1="235" x2="652.4" y2="239" stroke="#57606a" stroke-width="1"/>
  <text x="752.0" y="272" fill="#57606a" font-size="11" text-anchor="middle">06-13</text>
  <line x1="752.0" y1="235" x2="752.0" y2="239" stroke="#57606a" stroke-width="1"/>
  <text x="400" y="22" fill="#1f2328" font-size="14" font-weight="bold" text-anchor="middle">累计：助记 620 词</text>
  <rect x="552" y="30" width="10" height="3" fill="#0969da"/>
  <text x="566" y="34" fill="#57606a" font-size="11">累计助记</text>
  <rect x="624" y="28" width="9" height="7" fill="#0969da" opacity="0.5"/>
  <text x="637" y="34" fill="#57606a" font-size="11">每日新增</text>
  <line x1="55" y1="40" x2="55" y2="235" stroke="#d0d7de" stroke-width="1"/>
  <line x1="55" y1="235" x2="752" y2="235" stroke="#d0d7de" stroke-width="1"/>
</svg>
