<svg width="800" height="280" xmlns="http://www.w3.org/2000/svg" viewBox="0 0 800 280">
  <rect width="800" height="280" fill="#0d1117"/>
  <line x1="55" y1="235.0" x2="752" y2="235.0" stroke="#21262d" stroke-width="1"/>
  <text x="49" y="239.0" fill="#8b949e" font-size="11" text-anchor="end">0</text>
  <line x1="55" y1="196.0" x2="752" y2="196.0" stroke="#21262d" stroke-width="1"/>
  <text x="49" y="200.0" fill="#8b949e" font-size="11" text-anchor="end">44</text>
  <line x1="55" y1="157.0" x2="752" y2="157.0" stroke="#21262d" stroke-width="1"/>
  <text x="49" y="161.0" fill="#8b949e" font-size="11" text-anchor="end">89</text>
  <line x1="55" y1="118.0" x2="752" y2="118.0" stroke="#21262d" stroke-width="1"/>
  <text x="49" y="122.0" fill="#8b949e" font-size="11" text-anchor="end">133</text>
  <line x1="55" y1="79.0" x2="752" y2="79.0" stroke="#21262d" stroke-width="1"/>
  <text x="49" y="83.0" fill="#8b949e" font-size="11" text-anchor="end">178</text>
  <line x1="55" y1="40.0" x2="752" y2="40.0" stroke="#21262d" stroke-width="1"/>
  <text x="49" y="44.0" fill="#8b949e" font-size="11" text-anchor="end">223</text>
  <rect x="15.8" y="208.6" width="78.4" height="26.4" fill="#388bfd" opacity="0.35" rx="2"/>
  <text x="55.0" y="204.6" fill="#8b949e" font-size="10" text-anchor="middle">10</text>
  <rect x="248.1" y="58.4" width="78.4" height="176.6" fill="#388bfd" opacity="0.35" rx="2"/>
  <text x="287.3" y="54.4" fill="#8b949e" font-size="10" text-anchor="middle">67</text>
  <rect x="480.5" y="45.3" width="78.4" height="189.7" fill="#388bfd" opacity="0.35" rx="2"/>
  <text x="519.7" y="41.3" fill="#8b949e" font-size="10" text-anchor="middle">72</text>
  <rect x="712.8" y="40.0" width="78.4" height="195.0" fill="#388bfd" opacity="0.35" rx="2"/>
  <text x="752.0" y="36.0" fill="#8b949e" font-size="10" text-anchor="middle">74</text>
  <polygon points="55.0,235 55.0,226.3 287.3,167.7 519.7,104.7 752.0,40.0 752.0,235" fill="#1f6feb" opacity="0.15"/>
  <polyline points="55.0,226.3 287.3,167.7 519.7,104.7 752.0,40.0" fill="none" stroke="#58a6ff" stroke-width="2" stroke-linejoin="round"/>
  <circle cx="55.0" cy="226.3" r="4" fill="#58a6ff" stroke="#0d1117" stroke-width="2"/>
  <circle cx="752.0" cy="40.0" r="4" fill="#58a6ff" stroke="#0d1117" stroke-width="2"/>
  <text x="758" y="239.0" fill="#8b949e" font-size="11" text-anchor="start">0</text>
  <text x="758" y="200.0" fill="#8b949e" font-size="11" text-anchor="start">14</text>
  <text x="758" y="161.0" fill="#8b949e" font-size="11" text-anchor="start">29</text>
  <text x="758" y="122.0" fill="#8b949e" font-size="11" text-anchor="start">44</text>
  <text x="758" y="83.0" fill="#8b949e" font-size="11" text-anchor="start">59</text>
  <text x="758" y="44.0" fill="#8b949e" font-size="11" text-anchor="start">74</text>
  <text x="55.0" y="272" fill="#8b949e" font-size="11" text-anchor="middle">05-20</text>
  <line x1="55.0" y1="235" x2="55.0" y2="239" stroke="#8b949e" stroke-width="1"/>
  <text x="287.3" y="272" fill="#8b949e" font-size="11" text-anchor="middle">05-21</text>
  <line x1="287.3" y1="235" x2="287.3" y2="239" stroke="#8b949e" stroke-width="1"/>
  <text x="519.7" y="272" fill="#8b949e" font-size="11" text-anchor="middle">05-23</text>
  <line x1="519.7" y1="235" x2="519.7" y2="239" stroke="#8b949e" stroke-width="1"/>
  <text x="752.0" y="272" fill="#8b949e" font-size="11" text-anchor="middle">05-25</text>
  <line x1="752.0" y1="235" x2="752.0" y2="239" stroke="#8b949e" stroke-width="1"/>
  <text x="400" y="22" fill="#e6edf3" font-size="14" font-weight="bold" text-anchor="middle">累计：助记 223 词</text>
  <rect x="552" y="30" width="10" height="3" fill="#58a6ff"/>
  <text x="566" y="34" fill="#8b949e" font-size="11">累计助记</text>
  <rect x="624" y="28" width="9" height="7" fill="#388bfd" opacity="0.5"/>
  <text x="637" y="34" fill="#8b949e" font-size="11">每日新增</text>
  <line x1="55" y1="40" x2="55" y2="235" stroke="#30363d" stroke-width="1"/>
  <line x1="55" y1="235" x2="752" y2="235" stroke="#30363d" stroke-width="1"/>
</svg>
