<svg width="800" height="280" xmlns="http://www.w3.org/2000/svg" viewBox="0 0 800 280" font-family="-apple-system, BlinkMacSystemFont, 'Segoe UI', 'PingFang SC', 'Hiragino Sans GB', 'Microsoft YaHei', 'Noto Sans CJK SC', sans-serif">
  <rect width="800" height="280" fill="#ffffff"/>
  <line x1="55" y1="235.0" x2="752" y2="235.0" stroke="#eaeef2" stroke-width="1"/>
  <text x="49" y="239.0" fill="#57606a" font-size="11" text-anchor="end">0</text>
  <line x1="55" y1="196.0" x2="752" y2="196.0" stroke="#eaeef2" stroke-width="1"/>
  <text x="49" y="200.0" fill="#57606a" font-size="11" text-anchor="end">145</text>
  <line x1="55" y1="157.0" x2="752" y2="157.0" stroke="#eaeef2" stroke-width="1"/>
  <text x="49" y="161.0" fill="#57606a" font-size="11" text-anchor="end">290</text>
  <line x1="55" y1="118.0" x2="752" y2="118.0" stroke="#eaeef2" stroke-width="1"/>
  <text x="49" y="122.0" fill="#57606a" font-size="11" text-anchor="end">435</text>
  <line x1="55" y1="79.0" x2="752" y2="79.0" stroke="#eaeef2" stroke-width="1"/>
  <text x="49" y="83.0" fill="#57606a" font-size="11" text-anchor="end">580</text>
  <line x1="55" y1="40.0" x2="752" y2="40.0" stroke="#eaeef2" stroke-width="1"/>
  <text x="49" y="44.0" fill="#57606a" font-size="11" text-anchor="end">725</text>
  <rect x="49.4" y="208.6" width="11.2" height="26.4" fill="#0969da" opacity="0.35" rx="2"/>
  <text x="55.0" y="204.6" fill="#57606a" font-size="10" text-anchor="middle">10</text>
  <rect x="75.2" y="58.4" width="11.2" height="176.6" fill="#0969da" opacity="0.35" rx="2"/>
  <text x="80.8" y="54.4" fill="#57606a" font-size="10" text-anchor="middle">67</text>
  <rect x="101.0" y="45.3" width="11.2" height="189.7" fill="#0969da" opacity="0.35" rx="2"/>
  <text x="106.6" y="41.3" fill="#57606a" font-size="10" text-anchor="middle">72</text>
  <rect x="126.8" y="40.0" width="11.2" height="195.0" fill="#0969da" opacity="0.35" rx="2"/>
  <text x="132.4" y="36.0" fill="#57606a" font-size="10" text-anchor="middle">74</text>
  <rect x="152.7" y="153.3" width="11.2" height="81.7" fill="#0969da" opacity="0.35" rx="2"/>
  <text x="158.3" y="149.3" fill="#57606a" font-size="10" text-anchor="middle">31</text>
  <rect x="178.5" y="171.8" width="11.2" height="63.2" fill="#0969da" opacity="0.35" rx="2"/>
  <text x="184.1" y="167.8" fill="#57606a" font-size="10" text-anchor="middle">24</text>
  <rect x="204.3" y="142.8" width="11.2" height="92.2" fill="#0969da" opacity="0.35" rx="2"/>
  <text x="209.9" y="138.8" fill="#57606a" font-size="10" text-anchor="middle">35</text>
  <rect x="230.1" y="187.6" width="11.2" height="47.4" fill="#0969da" opacity="0.35" rx="2"/>
  <text x="235.7" y="183.6" fill="#57606a" font-size="10" text-anchor="middle">18</text>
  <rect x="255.9" y="179.7" width="11.2" height="55.3" fill="#0969da" opacity="0.35" rx="2"/>
  <text x="261.5" y="175.7" fill="#57606a" font-size="10" text-anchor="middle">21</text>
  <rect x="281.7" y="171.8" width="11.2" height="63.2" fill="#0969da" opacity="0.35" rx="2"/>
  <text x="287.3" y="167.8" fill="#57606a" font-size="10" text-anchor="middle">24</text>
  <rect x="307.5" y="192.8" width="11.2" height="42.2" fill="#0969da" opacity="0.35" rx="2"/>
  <text x="313.1" y="188.8" fill="#57606a" font-size="10" text-anchor="middle">16</text>
  <rect x="333.4" y="158.6" width="11.2" height="76.4" fill="#0969da" opacity="0.35" rx="2"/>
  <text x="339.0" y="154.6" fill="#57606a" font-size="10" text-anchor="middle">29</text>
  <rect x="359.2" y="187.6" width="11.2" height="47.4" fill="#0969da" opacity="0.35" rx="2"/>
  <text x="364.8" y="183.6" fill="#57606a" font-size="10" text-anchor="middle">18</text>
  <rect x="385.0" y="179.7" width="11.2" height="55.3" fill="#0969da" opacity="0.35" rx="2"/>
  <text x="390.6" y="175.7" fill="#57606a" font-size="10" text-anchor="middle">21</text>
  <rect x="410.8" y="187.6" width="11.2" height="47.4" fill="#0969da" opacity="0.35" rx="2"/>
  <text x="416.4" y="183.6" fill="#57606a" font-size="10" text-anchor="middle">18</text>
  <rect x="436.6" y="184.9" width="11.2" height="50.1" fill="#0969da" opacity="0.35" rx="2"/>
  <text x="442.2" y="180.9" fill="#57606a" font-size="10" text-anchor="middle">19</text>
  <rect x="462.4" y="174.4" width="11.2" height="60.6" fill="#0969da" opacity="0.35" rx="2"/>
  <text x="468.0" y="170.4" fill="#57606a" font-size="10" text-anchor="middle">23</text>
  <rect x="488.3" y="190.2" width="11.2" height="44.8" fill="#0969da" opacity="0.35" rx="2"/>
  <text x="493.9" y="186.2" fill="#57606a" font-size="10" text-anchor="middle">17</text>
  <rect x="514.1" y="169.1" width="11.2" height="65.9" fill="#0969da" opacity="0.35" rx="2"/>
  <text x="519.7" y="165.1" fill="#57606a" font-size="10" text-anchor="middle">25</text>
  <rect x="539.9" y="161.2" width="11.2" height="73.8" fill="#0969da" opacity="0.35" rx="2"/>
  <text x="545.5" y="157.2" fill="#57606a" font-size="10" text-anchor="middle">28</text>
  <rect x="565.7" y="203.4" width="11.2" height="31.6" fill="#0969da" opacity="0.35" rx="2"/>
  <text x="571.3" y="199.4" fill="#57606a" font-size="10" text-anchor="middle">12</text>
  <rect x="591.5" y="187.6" width="11.2" height="47.4" fill="#0969da" opacity="0.35" rx="2"/>
  <text x="597.1" y="183.6" fill="#57606a" font-size="10" text-anchor="middle">18</text>
  <rect x="617.3" y="179.7" width="11.2" height="55.3" fill="#0969da" opacity="0.35" rx="2"/>
  <text x="622.9" y="175.7" fill="#57606a" font-size="10" text-anchor="middle">21</text>
  <rect x="643.1" y="182.3" width="11.2" height="52.7" fill="#0969da" opacity="0.35" rx="2"/>
  <text x="648.7" y="178.3" fill="#57606a" font-size="10" text-anchor="middle">20</text>
  <rect x="669.0" y="192.8" width="11.2" height="42.2" fill="#0969da" opacity="0.35" rx="2"/>
  <text x="674.6" y="188.8" fill="#57606a" font-size="10" text-anchor="middle">16</text>
  <rect x="694.8" y="179.7" width="11.2" height="55.3" fill="#0969da" opacity="0.35" rx="2"/>
  <text x="700.4" y="175.7" fill="#57606a" font-size="10" text-anchor="middle">21</text>
  <rect x="720.6" y="195.5" width="11.2" height="39.5" fill="#0969da" opacity="0.35" rx="2"/>
  <text x="726.2" y="191.5" fill="#57606a" font-size="10" text-anchor="middle">15</text>
  <rect x="746.4" y="203.4" width="11.2" height="31.6" fill="#0969da" opacity="0.35" rx="2"/>
  <text x="752.0" y="199.4" fill="#57606a" font-size="10" text-anchor="middle">12</text>
  <polygon points="55.0,235 55.0,232.3 80.8,214.3 106.6,194.9 132.4,175.0 158.3,166.7 184.1,160.2 209.9,150.8 235.7,146.0 261.5,140.3 287.3,133.9 313.1,129.6 339.0,121.8 364.8,116.9 390.6,111.3 416.4,106.4 442.2,101.3 468.0,95.1 493.9,90.6 519.7,83.8 545.5,76.3 571.3,73.1 597.1,68.2 622.9,62.6 648.7,57.2 674.6,52.9 700.4,47.3 726.2,43.2 752.0,40.0 752.0,235" fill="#0969da" opacity="0.15"/>
  <polyline points="55.0,232.3 80.8,214.3 106.6,194.9 132.4,175.0 158.3,166.7 184.1,160.2 209.9,150.8 235.7,146.0 261.5,140.3 287.3,133.9 313.1,129.6 339.0,121.8 364.8,116.9 390.6,111.3 416.4,106.4 442.2,101.3 468.0,95.1 493.9,90.6 519.7,83.8 545.5,76.3 571.3,73.1 597.1,68.2 622.9,62.6 648.7,57.2 674.6,52.9 700.4,47.3 726.2,43.2 752.0,40.0" fill="none" stroke="#0969da" stroke-width="2" stroke-linejoin="round"/>
  <circle cx="55.0" cy="232.3" r="4" fill="#0969da" stroke="#ffffff" stroke-width="2"/>
  <circle cx="752.0" cy="40.0" r="4" fill="#0969da" stroke="#ffffff" stroke-width="2"/>
  <text x="758" y="239.0" fill="#57606a" font-size="11" text-anchor="start">0</text>
  <text x="758" y="200.0" fill="#57606a" font-size="11" text-anchor="start">14</text>
  <text x="758" y="161.0" fill="#57606a" font-size="11" text-anchor="start">29</text>
  <text x="758" y="122.0" fill="#57606a" font-size="11" text-anchor="start">44</text>
  <text x="758" y="83.0" fill="#57606a" font-size="11" text-anchor="start">59</text>
  <text x="758" y="44.0" fill="#57606a" font-size="11" text-anchor="start">74</text>
  <text x="55.0" y="272" fill="#57606a" font-size="11" text-anchor="middle">05-20</text>
  <line x1="55.0" y1="235" x2="55.0" y2="239" stroke="#57606a" stroke-width="1"/>
  <text x="158.3" y="272" fill="#57606a" font-size="11" text-anchor="middle">05-26</text>
  <line x1="158.3" y1="235" x2="158.3" y2="239" stroke="#57606a" stroke-width="1"/>
  <text x="261.5" y="272" fill="#57606a" font-size="11" text-anchor="middle">05-30</text>
  <line x1="261.5" y1="235" x2="261.5" y2="239" stroke="#57606a" stroke-width="1"/>
  <text x="364.8" y="272" fill="#57606a" font-size="11" text-anchor="middle">06-03</text>
  <line x1="364.8" y1="235" x2="364.8" y2="239" stroke="#57606a" stroke-width="1"/>
  <text x="468.0" y="272" fill="#57606a" font-size="11" text-anchor="middle">06-08</text>
  <line x1="468.0" y1="235" x2="468.0" y2="239" stroke="#57606a" stroke-width="1"/>
  <text x="571.3" y="272" fill="#57606a" font-size="11" text-anchor="middle">06-12</text>
  <line x1="571.3" y1="235" x2="571.3" y2="239" stroke="#57606a" stroke-width="1"/>
  <text x="674.6" y="272" fill="#57606a" font-size="11" text-anchor="middle">06-16</text>
  <line x1="674.6" y1="235" x2="674.6" y2="239" stroke="#57606a" stroke-width="1"/>
  <text x="752.0" y="272" fill="#57606a" font-size="11" text-anchor="middle">06-19</text>
  <line x1="752.0" y1="235" x2="752.0" y2="239" stroke="#57606a" stroke-width="1"/>
  <text x="400" y="22" fill="#1f2328" font-size="14" font-weight="bold" text-anchor="middle">累计：助记 725 词</text>
  <rect x="552" y="30" width="10" height="3" fill="#0969da"/>
  <text x="566" y="34" fill="#57606a" font-size="11">累计助记</text>
  <rect x="624" y="28" width="9" height="7" fill="#0969da" opacity="0.5"/>
  <text x="637" y="34" fill="#57606a" font-size="11">每日新增</text>
  <line x1="55" y1="40" x2="55" y2="235" stroke="#d0d7de" stroke-width="1"/>
  <line x1="55" y1="235" x2="752" y2="235" stroke="#d0d7de" stroke-width="1"/>
</svg>
