<svg width="800" height="280" xmlns="http://www.w3.org/2000/svg" viewBox="0 0 800 280" font-family="-apple-system, BlinkMacSystemFont, 'Segoe UI', 'PingFang SC', 'Hiragino Sans GB', 'Microsoft YaHei', 'Noto Sans CJK SC', sans-serif">
  <rect width="800" height="280" fill="#ffffff"/>
  <line x1="55" y1="235.0" x2="752" y2="235.0" stroke="#eaeef2" stroke-width="1"/>
  <text x="49" y="239.0" fill="#57606a" font-size="11" text-anchor="end">0</text>
  <line x1="55" y1="196.0" x2="752" y2="196.0" stroke="#eaeef2" stroke-width="1"/>
  <text x="49" y="200.0" fill="#57606a" font-size="11" text-anchor="end">118</text>
  <line x1="55" y1="157.0" x2="752" y2="157.0" stroke="#eaeef2" stroke-width="1"/>
  <text x="49" y="161.0" fill="#57606a" font-size="11" text-anchor="end">236</text>
  <line x1="55" y1="118.0" x2="752" y2="118.0" stroke="#eaeef2" stroke-width="1"/>
  <text x="49" y="122.0" fill="#57606a" font-size="11" text-anchor="end">354</text>
  <line x1="55" y1="79.0" x2="752" y2="79.0" stroke="#eaeef2" stroke-width="1"/>
  <text x="49" y="83.0" fill="#57606a" font-size="11" text-anchor="end">472</text>
  <line x1="55" y1="40.0" x2="752" y2="40.0" stroke="#eaeef2" stroke-width="1"/>
  <text x="49" y="44.0" fill="#57606a" font-size="11" text-anchor="end">590</text>
  <rect x="47.2" y="208.6" width="15.7" height="26.4" fill="#0969da" opacity="0.35" rx="2"/>
  <text x="55.0" y="204.6" fill="#57606a" font-size="10" text-anchor="middle">10</text>
  <rect x="83.8" y="58.4" width="15.7" height="176.6" fill="#0969da" opacity="0.35" rx="2"/>
  <text x="91.7" y="54.4" fill="#57606a" font-size="10" text-anchor="middle">67</text>
  <rect x="120.5" y="45.3" width="15.7" height="189.7" fill="#0969da" opacity="0.35" rx="2"/>
  <text x="128.4" y="41.3" fill="#57606a" font-size="10" text-anchor="middle">72</text>
  <rect x="157.2" y="40.0" width="15.7" height="195.0" fill="#0969da" opacity="0.35" rx="2"/>
  <text x="165.1" y="36.0" fill="#57606a" font-size="10" text-anchor="middle">74</text>
  <rect x="193.9" y="153.3" width="15.7" height="81.7" fill="#0969da" opacity="0.35" rx="2"/>
  <text x="201.7" y="149.3" fill="#57606a" font-size="10" text-anchor="middle">31</text>
  <rect x="230.6" y="171.8" width="15.7" height="63.2" fill="#0969da" opacity="0.35" rx="2"/>
  <text x="238.4" y="167.8" fill="#57606a" font-size="10" text-anchor="middle">24</text>
  <rect x="267.3" y="142.8" width="15.7" height="92.2" fill="#0969da" opacity="0.35" rx="2"/>
  <text x="275.1" y="138.8" fill="#57606a" font-size="10" text-anchor="middle">35</text>
  <rect x="303.9" y="187.6" width="15.7" height="47.4" fill="#0969da" opacity="0.35" rx="2"/>
  <text x="311.8" y="183.6" fill="#57606a" font-size="10" text-anchor="middle">18</text>
  <rect x="340.6" y="179.7" width="15.7" height="55.3" fill="#0969da" opacity="0.35" rx="2"/>
  <text x="348.5" y="175.7" fill="#57606a" font-size="10" text-anchor="middle">21</text>
  <rect x="377.3" y="171.8" width="15.7" height="63.2" fill="#0969da" opacity="0.35" rx="2"/>
  <text x="385.2" y="167.8" fill="#57606a" font-size="10" text-anchor="middle">24</text>
  <rect x="414.0" y="192.8" width="15.7" height="42.2" fill="#0969da" opacity="0.35" rx="2"/>
  <text x="421.8" y="188.8" fill="#57606a" font-size="10" text-anchor="middle">16</text>
  <rect x="450.7" y="158.6" width="15.7" height="76.4" fill="#0969da" opacity="0.35" rx="2"/>
  <text x="458.5" y="154.6" fill="#57606a" font-size="10" text-anchor="middle">29</text>
  <rect x="487.4" y="187.6" width="15.7" height="47.4" fill="#0969da" opacity="0.35" rx="2"/>
  <text x="495.2" y="183.6" fill="#57606a" font-size="10" text-anchor="middle">18</text>
  <rect x="524.1" y="179.7" width="15.7" height="55.3" fill="#0969da" opacity="0.35" rx="2"/>
  <text x="531.9" y="175.7" fill="#57606a" font-size="10" text-anchor="middle">21</text>
  <rect x="560.7" y="187.6" width="15.7" height="47.4" fill="#0969da" opacity="0.35" rx="2"/>
  <text x="568.6" y="183.6" fill="#57606a" font-size="10" text-anchor="middle">18</text>
  <rect x="597.4" y="184.9" width="15.7" height="50.1" fill="#0969da" opacity="0.35" rx="2"/>
  <text x="605.3" y="180.9" fill="#57606a" font-size="10" text-anchor="middle">19</text>
  <rect x="634.1" y="174.4" width="15.7" height="60.6" fill="#0969da" opacity="0.35" rx="2"/>
  <text x="641.9" y="170.4" fill="#57606a" font-size="10" text-anchor="middle">23</text>
  <rect x="670.8" y="190.2" width="15.7" height="44.8" fill="#0969da" opacity="0.35" rx="2"/>
  <text x="678.6" y="186.2" fill="#57606a" font-size="10" text-anchor="middle">17</text>
  <rect x="707.5" y="169.1" width="15.7" height="65.9" fill="#0969da" opacity="0.35" rx="2"/>
  <text x="715.3" y="165.1" fill="#57606a" font-size="10" text-anchor="middle">25</text>
  <rect x="744.2" y="161.2" width="15.7" height="73.8" fill="#0969da" opacity="0.35" rx="2"/>
  <text x="752.0" y="157.2" fill="#57606a" font-size="10" text-anchor="middle">28</text>
  <polygon points="55.0,235 55.0,231.7 91.7,209.6 128.4,185.8 165.1,161.3 201.7,151.1 238.4,143.1 275.1,131.6 311.8,125.6 348.5,118.7 385.2,110.7 421.8,105.4 458.5,95.9 495.2,89.9 531.9,83.0 568.6,77.0 605.3,70.7 641.9,63.1 678.6,57.5 715.3,49.3 752.0,40.0 752.0,235" fill="#0969da" opacity="0.15"/>
  <polyline points="55.0,231.7 91.7,209.6 128.4,185.8 165.1,161.3 201.7,151.1 238.4,143.1 275.1,131.6 311.8,125.6 348.5,118.7 385.2,110.7 421.8,105.4 458.5,95.9 495.2,89.9 531.9,83.0 568.6,77.0 605.3,70.7 641.9,63.1 678.6,57.5 715.3,49.3 752.0,40.0" fill="none" stroke="#0969da" stroke-width="2" stroke-linejoin="round"/>
  <circle cx="55.0" cy="231.7" r="4" fill="#0969da" stroke="#ffffff" stroke-width="2"/>
  <circle cx="752.0" cy="40.0" r="4" fill="#0969da" stroke="#ffffff" stroke-width="2"/>
  <text x="758" y="239.0" fill="#57606a" font-size="11" text-anchor="start">0</text>
  <text x="758" y="200.0" fill="#57606a" font-size="11" text-anchor="start">14</text>
  <text x="758" y="161.0" fill="#57606a" font-size="11" text-anchor="start">29</text>
  <text x="758" y="122.0" fill="#57606a" font-size="11" text-anchor="start">44</text>
  <text x="758" y="83.0" fill="#57606a" font-size="11" text-anchor="start">59</text>
  <text x="758" y="44.0" fill="#57606a" font-size="11" text-anchor="start">74</text>
  <text x="55.0" y="272" fill="#57606a" font-size="11" text-anchor="middle">05-20</text>
  <line x1="55.0" y1="235" x2="55.0" y2="239" stroke="#57606a" stroke-width="1"/>
  <text x="165.1" y="272" fill="#57606a" font-size="11" text-anchor="middle">05-25</text>
  <line x1="165.1" y1="235" x2="165.1" y2="239" stroke="#57606a" stroke-width="1"/>
  <text x="275.1" y="272" fill="#57606a" font-size="11" text-anchor="middle">05-28</text>
  <line x1="275.1" y1="235" x2="275.1" y2="239" stroke="#57606a" stroke-width="1"/>
  <text x="385.2" y="272" fill="#57606a" font-size="11" text-anchor="middle">05-31</text>
  <line x1="385.2" y1="235" x2="385.2" y2="239" stroke="#57606a" stroke-width="1"/>
  <text x="495.2" y="272" fill="#57606a" font-size="11" text-anchor="middle">06-03</text>
  <line x1="495.2" y1="235" x2="495.2" y2="239" stroke="#57606a" stroke-width="1"/>
  <text x="605.3" y="272" fill="#57606a" font-size="11" text-anchor="middle">06-06</text>
  <line x1="605.3" y1="235" x2="605.3" y2="239" stroke="#57606a" stroke-width="1"/>
  <text x="715.3" y="272" fill="#57606a" font-size="11" text-anchor="middle">06-10</text>
  <line x1="715.3" y1="235" x2="715.3" y2="239" stroke="#57606a" stroke-width="1"/>
  <text x="752.0" y="272" fill="#57606a" font-size="11" text-anchor="middle">06-11</text>
  <line x1="752.0" y1="235" x2="752.0" y2="239" stroke="#57606a" stroke-width="1"/>
  <text x="400" y="22" fill="#1f2328" font-size="14" font-weight="bold" text-anchor="middle">累计：助记 590 词</text>
  <rect x="552" y="30" width="10" height="3" fill="#0969da"/>
  <text x="566" y="34" fill="#57606a" font-size="11">累计助记</text>
  <rect x="624" y="28" width="9" height="7" fill="#0969da" opacity="0.5"/>
  <text x="637" y="34" fill="#57606a" font-size="11">每日新增</text>
  <line x1="55" y1="40" x2="55" y2="235" stroke="#d0d7de" stroke-width="1"/>
  <line x1="55" y1="235" x2="752" y2="235" stroke="#d0d7de" stroke-width="1"/>
</svg>
