<svg width="800" height="280" xmlns="http://www.w3.org/2000/svg" viewBox="0 0 800 280" font-family="-apple-system, BlinkMacSystemFont, 'Segoe UI', 'PingFang SC', 'Hiragino Sans GB', 'Microsoft YaHei', 'Noto Sans CJK SC', sans-serif">
  <rect width="800" height="280" fill="#ffffff"/>
  <line x1="55" y1="235.0" x2="752" y2="235.0" stroke="#eaeef2" stroke-width="1"/>
  <text x="49" y="239.0" fill="#57606a" font-size="11" text-anchor="end">0</text>
  <line x1="55" y1="196.0" x2="752" y2="196.0" stroke="#eaeef2" stroke-width="1"/>
  <text x="49" y="200.0" fill="#57606a" font-size="11" text-anchor="end">150</text>
  <line x1="55" y1="157.0" x2="752" y2="157.0" stroke="#eaeef2" stroke-width="1"/>
  <text x="49" y="161.0" fill="#57606a" font-size="11" text-anchor="end">301</text>
  <line x1="55" y1="118.0" x2="752" y2="118.0" stroke="#eaeef2" stroke-width="1"/>
  <text x="49" y="122.0" fill="#57606a" font-size="11" text-anchor="end">451</text>
  <line x1="55" y1="79.0" x2="752" y2="79.0" stroke="#eaeef2" stroke-width="1"/>
  <text x="49" y="83.0" fill="#57606a" font-size="11" text-anchor="end">602</text>
  <line x1="55" y1="40.0" x2="752" y2="40.0" stroke="#eaeef2" stroke-width="1"/>
  <text x="49" y="44.0" fill="#57606a" font-size="11" text-anchor="end">753</text>
  <rect x="49.8" y="208.6" width="10.5" height="26.4" fill="#0969da" opacity="0.35" rx="2"/>
  <text x="55.0" y="204.6" fill="#57606a" font-size="10" text-anchor="middle">10</text>
  <rect x="73.8" y="58.4" width="10.5" height="176.6" fill="#0969da" opacity="0.35" rx="2"/>
  <text x="79.0" y="54.4" fill="#57606a" font-size="10" text-anchor="middle">67</text>
  <rect x="97.8" y="45.3" width="10.5" height="189.7" fill="#0969da" opacity="0.35" rx="2"/>
  <text x="103.1" y="41.3" fill="#57606a" font-size="10" text-anchor="middle">72</text>
  <rect x="121.9" y="40.0" width="10.5" height="195.0" fill="#0969da" opacity="0.35" rx="2"/>
  <text x="127.1" y="36.0" fill="#57606a" font-size="10" text-anchor="middle">74</text>
  <rect x="145.9" y="153.3" width="10.5" height="81.7" fill="#0969da" opacity="0.35" rx="2"/>
  <text x="151.1" y="149.3" fill="#57606a" font-size="10" text-anchor="middle">31</text>
  <rect x="169.9" y="171.8" width="10.5" height="63.2" fill="#0969da" opacity="0.35" rx="2"/>
  <text x="175.2" y="167.8" fill="#57606a" font-size="10" text-anchor="middle">24</text>
  <rect x="194.0" y="142.8" width="10.5" height="92.2" fill="#0969da" opacity="0.35" rx="2"/>
  <text x="199.2" y="138.8" fill="#57606a" font-size="10" text-anchor="middle">35</text>
  <rect x="218.0" y="187.6" width="10.5" height="47.4" fill="#0969da" opacity="0.35" rx="2"/>
  <text x="223.2" y="183.6" fill="#57606a" font-size="10" text-anchor="middle">18</text>
  <rect x="242.0" y="179.7" width="10.5" height="55.3" fill="#0969da" opacity="0.35" rx="2"/>
  <text x="247.3" y="175.7" fill="#57606a" font-size="10" text-anchor="middle">21</text>
  <rect x="266.1" y="171.8" width="10.5" height="63.2" fill="#0969da" opacity="0.35" rx="2"/>
  <text x="271.3" y="167.8" fill="#57606a" font-size="10" text-anchor="middle">24</text>
  <rect x="290.1" y="192.8" width="10.5" height="42.2" fill="#0969da" opacity="0.35" rx="2"/>
  <text x="295.3" y="188.8" fill="#57606a" font-size="10" text-anchor="middle">16</text>
  <rect x="314.2" y="158.6" width="10.5" height="76.4" fill="#0969da" opacity="0.35" rx="2"/>
  <text x="319.4" y="154.6" fill="#57606a" font-size="10" text-anchor="middle">29</text>
  <rect x="338.2" y="187.6" width="10.5" height="47.4" fill="#0969da" opacity="0.35" rx="2"/>
  <text x="343.4" y="183.6" fill="#57606a" font-size="10" text-anchor="middle">18</text>
  <rect x="362.2" y="179.7" width="10.5" height="55.3" fill="#0969da" opacity="0.35" rx="2"/>
  <text x="367.4" y="175.7" fill="#57606a" font-size="10" text-anchor="middle">21</text>
  <rect x="386.3" y="187.6" width="10.5" height="47.4" fill="#0969da" opacity="0.35" rx="2"/>
  <text x="391.5" y="183.6" fill="#57606a" font-size="10" text-anchor="middle">18</text>
  <rect x="410.3" y="184.9" width="10.5" height="50.1" fill="#0969da" opacity="0.35" rx="2"/>
  <text x="415.5" y="180.9" fill="#57606a" font-size="10" text-anchor="middle">19</text>
  <rect x="434.3" y="174.4" width="10.5" height="60.6" fill="#0969da" opacity="0.35" rx="2"/>
  <text x="439.6" y="170.4" fill="#57606a" font-size="10" text-anchor="middle">23</text>
  <rect x="458.4" y="190.2" width="10.5" height="44.8" fill="#0969da" opacity="0.35" rx="2"/>
  <text x="463.6" y="186.2" fill="#57606a" font-size="10" text-anchor="middle">17</text>
  <rect x="482.4" y="169.1" width="10.5" height="65.9" fill="#0969da" opacity="0.35" rx="2"/>
  <text x="487.6" y="165.1" fill="#57606a" font-size="10" text-anchor="middle">25</text>
  <rect x="506.4" y="161.2" width="10.5" height="73.8" fill="#0969da" opacity="0.35" rx="2"/>
  <text x="511.7" y="157.2" fill="#57606a" font-size="10" text-anchor="middle">28</text>
  <rect x="530.5" y="203.4" width="10.5" height="31.6" fill="#0969da" opacity="0.35" rx="2"/>
  <text x="535.7" y="199.4" fill="#57606a" font-size="10" text-anchor="middle">12</text>
  <rect x="554.5" y="187.6" width="10.5" height="47.4" fill="#0969da" opacity="0.35" rx="2"/>
  <text x="559.7" y="183.6" fill="#57606a" font-size="10" text-anchor="middle">18</text>
  <rect x="578.5" y="179.7" width="10.5" height="55.3" fill="#0969da" opacity="0.35" rx="2"/>
  <text x="583.8" y="175.7" fill="#57606a" font-size="10" text-anchor="middle">21</text>
  <rect x="602.6" y="182.3" width="10.5" height="52.7" fill="#0969da" opacity="0.35" rx="2"/>
  <text x="607.8" y="178.3" fill="#57606a" font-size="10" text-anchor="middle">20</text>
  <rect x="626.6" y="192.8" width="10.5" height="42.2" fill="#0969da" opacity="0.35" rx="2"/>
  <text x="631.8" y="188.8" fill="#57606a" font-size="10" text-anchor="middle">16</text>
  <rect x="650.6" y="179.7" width="10.5" height="55.3" fill="#0969da" opacity="0.35" rx="2"/>
  <text x="655.9" y="175.7" fill="#57606a" font-size="10" text-anchor="middle">21</text>
  <rect x="674.7" y="195.5" width="10.5" height="39.5" fill="#0969da" opacity="0.35" rx="2"/>
  <text x="679.9" y="191.5" fill="#57606a" font-size="10" text-anchor="middle">15</text>
  <rect x="698.7" y="203.4" width="10.5" height="31.6" fill="#0969da" opacity="0.35" rx="2"/>
  <text x="703.9" y="199.4" fill="#57606a" font-size="10" text-anchor="middle">12</text>
  <rect x="722.7" y="200.7" width="10.5" height="34.3" fill="#0969da" opacity="0.35" rx="2"/>
  <text x="728.0" y="196.7" fill="#57606a" font-size="10" text-anchor="middle">13</text>
  <rect x="746.8" y="195.5" width="10.5" height="39.5" fill="#0969da" opacity="0.35" rx="2"/>
  <text x="752.0" y="191.5" fill="#57606a" font-size="10" text-anchor="middle">15</text>
  <polygon points="55.0,235 55.0,232.4 79.0,215.1 103.1,196.4 127.1,177.3 151.1,169.2 175.2,163.0 199.2,153.9 223.2,149.3 247.3,143.8 271.3,137.6 295.3,133.5 319.4,126.0 343.4,121.3 367.4,115.9 391.5,111.2 415.5,106.3 439.6,100.3 463.6,95.9 487.6,89.5 511.7,82.2 535.7,79.1 559.7,74.4 583.8,69.0 607.8,63.8 631.8,59.7 655.9,54.2 679.9,50.4 703.9,47.3 728.0,43.9 752.0,40.0 752.0,235" fill="#0969da" opacity="0.15"/>
  <polyline points="55.0,232.4 79.0,215.1 103.1,196.4 127.1,177.3 151.1,169.2 175.2,163.0 199.2,153.9 223.2,149.3 247.3,143.8 271.3,137.6 295.3,133.5 319.4,126.0 343.4,121.3 367.4,115.9 391.5,111.2 415.5,106.3 439.6,100.3 463.6,95.9 487.6,89.5 511.7,82.2 535.7,79.1 559.7,74.4 583.8,69.0 607.8,63.8 631.8,59.7 655.9,54.2 679.9,50.4 703.9,47.3 728.0,43.9 752.0,40.0" fill="none" stroke="#0969da" stroke-width="2" stroke-linejoin="round"/>
  <circle cx="55.0" cy="232.4" r="4" fill="#0969da" stroke="#ffffff" stroke-width="2"/>
  <circle cx="752.0" cy="40.0" r="4" fill="#0969da" stroke="#ffffff" stroke-width="2"/>
  <text x="758" y="239.0" fill="#57606a" font-size="11" text-anchor="start">0</text>
  <text x="758" y="200.0" fill="#57606a" font-size="11" text-anchor="start">14</text>
  <text x="758" y="161.0" fill="#57606a" font-size="11" text-anchor="start">29</text>
  <text x="758" y="122.0" fill="#57606a" font-size="11" text-anchor="start">44</text>
  <text x="758" y="83.0" fill="#57606a" font-size="11" text-anchor="start">59</text>
  <text x="758" y="44.0" fill="#57606a" font-size="11" text-anchor="start">74</text>
  <text x="55.0" y="272" fill="#57606a" font-size="11" text-anchor="middle">05-20</text>
  <line x1="55.0" y1="235" x2="55.0" y2="239" stroke="#57606a" stroke-width="1"/>
  <text x="175.2" y="272" fill="#57606a" font-size="11" text-anchor="middle">05-27</text>
  <line x1="175.2" y1="235" x2="175.2" y2="239" stroke="#57606a" stroke-width="1"/>
  <text x="295.3" y="272" fill="#57606a" font-size="11" text-anchor="middle">06-01</text>
  <line x1="295.3" y1="235" x2="295.3" y2="239" stroke="#57606a" stroke-width="1"/>
  <text x="415.5" y="272" fill="#57606a" font-size="11" text-anchor="middle">06-06</text>
  <line x1="415.5" y1="235" x2="415.5" y2="239" stroke="#57606a" stroke-width="1"/>
  <text x="535.7" y="272" fill="#57606a" font-size="11" text-anchor="middle">06-12</text>
  <line x1="535.7" y1="235" x2="535.7" y2="239" stroke="#57606a" stroke-width="1"/>
  <text x="655.9" y="272" fill="#57606a" font-size="11" text-anchor="middle">06-17</text>
  <line x1="655.9" y1="235" x2="655.9" y2="239" stroke="#57606a" stroke-width="1"/>
  <text x="752.0" y="272" fill="#57606a" font-size="11" text-anchor="middle">06-21</text>
  <line x1="752.0" y1="235" x2="752.0" y2="239" stroke="#57606a" stroke-width="1"/>
  <text x="400" y="22" fill="#1f2328" font-size="14" font-weight="bold" text-anchor="middle">累计：助记 753 词</text>
  <rect x="552" y="30" width="10" height="3" fill="#0969da"/>
  <text x="566" y="34" fill="#57606a" font-size="11">累计助记</text>
  <rect x="624" y="28" width="9" height="7" fill="#0969da" opacity="0.5"/>
  <text x="637" y="34" fill="#57606a" font-size="11">每日新增</text>
  <line x1="55" y1="40" x2="55" y2="235" stroke="#d0d7de" stroke-width="1"/>
  <line x1="55" y1="235" x2="752" y2="235" stroke="#d0d7de" stroke-width="1"/>
</svg>
