<svg width="800" height="280" xmlns="http://www.w3.org/2000/svg" viewBox="0 0 800 280" font-family="-apple-system, BlinkMacSystemFont, 'Segoe UI', 'PingFang SC', 'Hiragino Sans GB', 'Microsoft YaHei', 'Noto Sans CJK SC', sans-serif">
  <rect width="800" height="280" fill="#ffffff"/>
  <line x1="55" y1="235.0" x2="752" y2="235.0" stroke="#eaeef2" stroke-width="1"/>
  <text x="49" y="239.0" fill="#57606a" font-size="11" text-anchor="end">0</text>
  <line x1="55" y1="196.0" x2="752" y2="196.0" stroke="#eaeef2" stroke-width="1"/>
  <text x="49" y="200.0" fill="#57606a" font-size="11" text-anchor="end">160</text>
  <line x1="55" y1="157.0" x2="752" y2="157.0" stroke="#eaeef2" stroke-width="1"/>
  <text x="49" y="161.0" fill="#57606a" font-size="11" text-anchor="end">320</text>
  <line x1="55" y1="118.0" x2="752" y2="118.0" stroke="#eaeef2" stroke-width="1"/>
  <text x="49" y="122.0" fill="#57606a" font-size="11" text-anchor="end">481</text>
  <line x1="55" y1="79.0" x2="752" y2="79.0" stroke="#eaeef2" stroke-width="1"/>
  <text x="49" y="83.0" fill="#57606a" font-size="11" text-anchor="end">641</text>
  <line x1="55" y1="40.0" x2="752" y2="40.0" stroke="#eaeef2" stroke-width="1"/>
  <text x="49" y="44.0" fill="#57606a" font-size="11" text-anchor="end">802</text>
  <rect x="50.4" y="208.6" width="9.2" height="26.4" fill="#0969da" opacity="0.35" rx="2"/>
  <text x="55.0" y="204.6" fill="#57606a" font-size="10" text-anchor="middle">10</text>
  <rect x="71.5" y="58.4" width="9.2" height="176.6" fill="#0969da" opacity="0.35" rx="2"/>
  <text x="76.1" y="54.4" fill="#57606a" font-size="10" text-anchor="middle">67</text>
  <rect x="92.6" y="45.3" width="9.2" height="189.7" fill="#0969da" opacity="0.35" rx="2"/>
  <text x="97.2" y="41.3" fill="#57606a" font-size="10" text-anchor="middle">72</text>
  <rect x="113.8" y="40.0" width="9.2" height="195.0" fill="#0969da" opacity="0.35" rx="2"/>
  <text x="118.4" y="36.0" fill="#57606a" font-size="10" text-anchor="middle">74</text>
  <rect x="134.9" y="153.3" width="9.2" height="81.7" fill="#0969da" opacity="0.35" rx="2"/>
  <text x="139.5" y="149.3" fill="#57606a" font-size="10" text-anchor="middle">31</text>
  <rect x="156.0" y="171.8" width="9.2" height="63.2" fill="#0969da" opacity="0.35" rx="2"/>
  <text x="160.6" y="167.8" fill="#57606a" font-size="10" text-anchor="middle">24</text>
  <rect x="177.1" y="142.8" width="9.2" height="92.2" fill="#0969da" opacity="0.35" rx="2"/>
  <text x="181.7" y="138.8" fill="#57606a" font-size="10" text-anchor="middle">35</text>
  <rect x="198.2" y="187.6" width="9.2" height="47.4" fill="#0969da" opacity="0.35" rx="2"/>
  <text x="202.8" y="183.6" fill="#57606a" font-size="10" text-anchor="middle">18</text>
  <rect x="219.4" y="179.7" width="9.2" height="55.3" fill="#0969da" opacity="0.35" rx="2"/>
  <text x="224.0" y="175.7" fill="#57606a" font-size="10" text-anchor="middle">21</text>
  <rect x="240.5" y="171.8" width="9.2" height="63.2" fill="#0969da" opacity="0.35" rx="2"/>
  <text x="245.1" y="167.8" fill="#57606a" font-size="10" text-anchor="middle">24</text>
  <rect x="261.6" y="192.8" width="9.2" height="42.2" fill="#0969da" opacity="0.35" rx="2"/>
  <text x="266.2" y="188.8" fill="#57606a" font-size="10" text-anchor="middle">16</text>
  <rect x="282.7" y="161.2" width="9.2" height="73.8" fill="#0969da" opacity="0.35" rx="2"/>
  <text x="287.3" y="157.2" fill="#57606a" font-size="10" text-anchor="middle">28</text>
  <rect x="303.8" y="187.6" width="9.2" height="47.4" fill="#0969da" opacity="0.35" rx="2"/>
  <text x="308.5" y="183.6" fill="#57606a" font-size="10" text-anchor="middle">18</text>
  <rect x="325.0" y="179.7" width="9.2" height="55.3" fill="#0969da" opacity="0.35" rx="2"/>
  <text x="329.6" y="175.7" fill="#57606a" font-size="10" text-anchor="middle">21</text>
  <rect x="346.1" y="187.6" width="9.2" height="47.4" fill="#0969da" opacity="0.35" rx="2"/>
  <text x="350.7" y="183.6" fill="#57606a" font-size="10" text-anchor="middle">18</text>
  <rect x="367.2" y="184.9" width="9.2" height="50.1" fill="#0969da" opacity="0.35" rx="2"/>
  <text x="371.8" y="180.9" fill="#57606a" font-size="10" text-anchor="middle">19</text>
  <rect x="388.3" y="174.4" width="9.2" height="60.6" fill="#0969da" opacity="0.35" rx="2"/>
  <text x="392.9" y="170.4" fill="#57606a" font-size="10" text-anchor="middle">23</text>
  <rect x="409.4" y="190.2" width="9.2" height="44.8" fill="#0969da" opacity="0.35" rx="2"/>
  <text x="414.1" y="186.2" fill="#57606a" font-size="10" text-anchor="middle">17</text>
  <rect x="430.6" y="169.1" width="9.2" height="65.9" fill="#0969da" opacity="0.35" rx="2"/>
  <text x="435.2" y="165.1" fill="#57606a" font-size="10" text-anchor="middle">25</text>
  <rect x="451.7" y="161.2" width="9.2" height="73.8" fill="#0969da" opacity="0.35" rx="2"/>
  <text x="456.3" y="157.2" fill="#57606a" font-size="10" text-anchor="middle">28</text>
  <rect x="472.8" y="203.4" width="9.2" height="31.6" fill="#0969da" opacity="0.35" rx="2"/>
  <text x="477.4" y="199.4" fill="#57606a" font-size="10" text-anchor="middle">12</text>
  <rect x="493.9" y="187.6" width="9.2" height="47.4" fill="#0969da" opacity="0.35" rx="2"/>
  <text x="498.5" y="183.6" fill="#57606a" font-size="10" text-anchor="middle">18</text>
  <rect x="515.1" y="179.7" width="9.2" height="55.3" fill="#0969da" opacity="0.35" rx="2"/>
  <text x="519.7" y="175.7" fill="#57606a" font-size="10" text-anchor="middle">21</text>
  <rect x="536.2" y="182.3" width="9.2" height="52.7" fill="#0969da" opacity="0.35" rx="2"/>
  <text x="540.8" y="178.3" fill="#57606a" font-size="10" text-anchor="middle">20</text>
  <rect x="557.3" y="192.8" width="9.2" height="42.2" fill="#0969da" opacity="0.35" rx="2"/>
  <text x="561.9" y="188.8" fill="#57606a" font-size="10" text-anchor="middle">16</text>
  <rect x="578.4" y="179.7" width="9.2" height="55.3" fill="#0969da" opacity="0.35" rx="2"/>
  <text x="583.0" y="175.7" fill="#57606a" font-size="10" text-anchor="middle">21</text>
  <rect x="599.5" y="195.5" width="9.2" height="39.5" fill="#0969da" opacity="0.35" rx="2"/>
  <text x="604.2" y="191.5" fill="#57606a" font-size="10" text-anchor="middle">15</text>
  <rect x="620.7" y="203.4" width="9.2" height="31.6" fill="#0969da" opacity="0.35" rx="2"/>
  <text x="625.3" y="199.4" fill="#57606a" font-size="10" text-anchor="middle">12</text>
  <rect x="641.8" y="200.7" width="9.2" height="34.3" fill="#0969da" opacity="0.35" rx="2"/>
  <text x="646.4" y="196.7" fill="#57606a" font-size="10" text-anchor="middle">13</text>
  <rect x="662.9" y="198.1" width="9.2" height="36.9" fill="#0969da" opacity="0.35" rx="2"/>
  <text x="667.5" y="194.1" fill="#57606a" font-size="10" text-anchor="middle">14</text>
  <rect x="684.0" y="211.3" width="9.2" height="23.7" fill="#0969da" opacity="0.35" rx="2"/>
  <text x="688.6" y="207.3" fill="#57606a" font-size="10" text-anchor="middle">9</text>
  <rect x="705.1" y="198.1" width="9.2" height="36.9" fill="#0969da" opacity="0.35" rx="2"/>
  <text x="709.8" y="194.1" fill="#57606a" font-size="10" text-anchor="middle">14</text>
  <rect x="726.3" y="208.6" width="9.2" height="26.4" fill="#0969da" opacity="0.35" rx="2"/>
  <text x="730.9" y="204.6" fill="#57606a" font-size="10" text-anchor="middle">10</text>
  <rect x="747.4" y="187.6" width="9.2" height="47.4" fill="#0969da" opacity="0.35" rx="2"/>
  <text x="752.0" y="183.6" fill="#57606a" font-size="10" text-anchor="middle">18</text>
  <polygon points="55.0,235 55.0,232.6 76.1,216.3 97.2,198.8 118.4,180.8 139.5,173.2 160.6,167.4 181.7,158.9 202.8,154.5 224.0,149.4 245.1,143.6 266.2,139.7 287.3,132.9 308.5,128.5 329.6,123.4 350.7,119.0 371.8,114.4 392.9,108.8 414.1,104.7 435.2,98.6 456.3,91.8 477.4,88.9 498.5,84.5 519.7,79.4 540.8,74.5 561.9,70.6 583.0,65.5 604.2,61.9 625.3,59.0 646.4,55.8 667.5,52.4 688.6,50.2 709.8,46.8 730.9,44.4 752.0,40.0 752.0,235" fill="#0969da" opacity="0.15"/>
  <polyline points="55.0,232.6 76.1,216.3 97.2,198.8 118.4,180.8 139.5,173.2 160.6,167.4 181.7,158.9 202.8,154.5 224.0,149.4 245.1,143.6 266.2,139.7 287.3,132.9 308.5,128.5 329.6,123.4 350.7,119.0 371.8,114.4 392.9,108.8 414.1,104.7 435.2,98.6 456.3,91.8 477.4,88.9 498.5,84.5 519.7,79.4 540.8,74.5 561.9,70.6 583.0,65.5 604.2,61.9 625.3,59.0 646.4,55.8 667.5,52.4 688.6,50.2 709.8,46.8 730.9,44.4 752.0,40.0" fill="none" stroke="#0969da" stroke-width="2" stroke-linejoin="round"/>
  <circle cx="55.0" cy="232.6" r="4" fill="#0969da" stroke="#ffffff" stroke-width="2"/>
  <circle cx="752.0" cy="40.0" r="4" fill="#0969da" stroke="#ffffff" stroke-width="2"/>
  <text x="758" y="239.0" fill="#57606a" font-size="11" text-anchor="start">0</text>
  <text x="758" y="200.0" fill="#57606a" font-size="11" text-anchor="start">14</text>
  <text x="758" y="161.0" fill="#57606a" font-size="11" text-anchor="start">29</text>
  <text x="758" y="122.0" fill="#57606a" font-size="11" text-anchor="start">44</text>
  <text x="758" y="83.0" fill="#57606a" font-size="11" text-anchor="start">59</text>
  <text x="758" y="44.0" fill="#57606a" font-size="11" text-anchor="start">74</text>
  <text x="55.0" y="272" fill="#57606a" font-size="11" text-anchor="middle">05-20</text>
  <line x1="55.0" y1="235" x2="55.0" y2="239" stroke="#57606a" stroke-width="1"/>
  <text x="160.6" y="272" fill="#57606a" font-size="11" text-anchor="middle">05-27</text>
  <line x1="160.6" y1="235" x2="160.6" y2="239" stroke="#57606a" stroke-width="1"/>
  <text x="266.2" y="272" fill="#57606a" font-size="11" text-anchor="middle">06-01</text>
  <line x1="266.2" y1="235" x2="266.2" y2="239" stroke="#57606a" stroke-width="1"/>
  <text x="371.8" y="272" fill="#57606a" font-size="11" text-anchor="middle">06-06</text>
  <line x1="371.8" y1="235" x2="371.8" y2="239" stroke="#57606a" stroke-width="1"/>
  <text x="477.4" y="272" fill="#57606a" font-size="11" text-anchor="middle">06-12</text>
  <line x1="477.4" y1="235" x2="477.4" y2="239" stroke="#57606a" stroke-width="1"/>
  <text x="583.0" y="272" fill="#57606a" font-size="11" text-anchor="middle">06-17</text>
  <line x1="583.0" y1="235" x2="583.0" y2="239" stroke="#57606a" stroke-width="1"/>
  <text x="688.6" y="272" fill="#57606a" font-size="11" text-anchor="middle">06-22</text>
  <line x1="688.6" y1="235" x2="688.6" y2="239" stroke="#57606a" stroke-width="1"/>
  <text x="752.0" y="272" fill="#57606a" font-size="11" text-anchor="middle">06-25</text>
  <line x1="752.0" y1="235" x2="752.0" y2="239" stroke="#57606a" stroke-width="1"/>
  <text x="400" y="22" fill="#1f2328" font-size="14" font-weight="bold" text-anchor="middle">累计：助记 802 词</text>
  <rect x="552" y="30" width="10" height="3" fill="#0969da"/>
  <text x="566" y="34" fill="#57606a" font-size="11">累计助记</text>
  <rect x="624" y="28" width="9" height="7" fill="#0969da" opacity="0.5"/>
  <text x="637" y="34" fill="#57606a" font-size="11">每日新增</text>
  <line x1="55" y1="40" x2="55" y2="235" stroke="#d0d7de" stroke-width="1"/>
  <line x1="55" y1="235" x2="752" y2="235" stroke="#d0d7de" stroke-width="1"/>
</svg>
