<svg width="800" height="280" xmlns="http://www.w3.org/2000/svg" viewBox="0 0 800 280" font-family="-apple-system, BlinkMacSystemFont, 'Segoe UI', 'PingFang SC', 'Hiragino Sans GB', 'Microsoft YaHei', 'Noto Sans CJK SC', sans-serif">
  <rect width="800" height="280" fill="#ffffff"/>
  <line x1="55" y1="235.0" x2="752" y2="235.0" stroke="#eaeef2" stroke-width="1"/>
  <text x="49" y="239.0" fill="#57606a" font-size="11" text-anchor="end">0</text>
  <line x1="55" y1="196.0" x2="752" y2="196.0" stroke="#eaeef2" stroke-width="1"/>
  <text x="49" y="200.0" fill="#57606a" font-size="11" text-anchor="end">112</text>
  <line x1="55" y1="157.0" x2="752" y2="157.0" stroke="#eaeef2" stroke-width="1"/>
  <text x="49" y="161.0" fill="#57606a" font-size="11" text-anchor="end">224</text>
  <line x1="55" y1="118.0" x2="752" y2="118.0" stroke="#eaeef2" stroke-width="1"/>
  <text x="49" y="122.0" fill="#57606a" font-size="11" text-anchor="end">337</text>
  <line x1="55" y1="79.0" x2="752" y2="79.0" stroke="#eaeef2" stroke-width="1"/>
  <text x="49" y="83.0" fill="#57606a" font-size="11" text-anchor="end">449</text>
  <line x1="55" y1="40.0" x2="752" y2="40.0" stroke="#eaeef2" stroke-width="1"/>
  <text x="49" y="44.0" fill="#57606a" font-size="11" text-anchor="end">562</text>
  <rect x="46.7" y="208.6" width="16.5" height="26.4" fill="#0969da" opacity="0.35" rx="2"/>
  <text x="55.0" y="204.6" fill="#57606a" font-size="10" text-anchor="middle">10</text>
  <rect x="85.5" y="58.4" width="16.5" height="176.6" fill="#0969da" opacity="0.35" rx="2"/>
  <text x="93.7" y="54.4" fill="#57606a" font-size="10" text-anchor="middle">67</text>
  <rect x="124.2" y="45.3" width="16.5" height="189.7" fill="#0969da" opacity="0.35" rx="2"/>
  <text x="132.4" y="41.3" fill="#57606a" font-size="10" text-anchor="middle">72</text>
  <rect x="162.9" y="40.0" width="16.5" height="195.0" fill="#0969da" opacity="0.35" rx="2"/>
  <text x="171.2" y="36.0" fill="#57606a" font-size="10" text-anchor="middle">74</text>
  <rect x="201.6" y="153.3" width="16.5" height="81.7" fill="#0969da" opacity="0.35" rx="2"/>
  <text x="209.9" y="149.3" fill="#57606a" font-size="10" text-anchor="middle">31</text>
  <rect x="240.4" y="171.8" width="16.5" height="63.2" fill="#0969da" opacity="0.35" rx="2"/>
  <text x="248.6" y="167.8" fill="#57606a" font-size="10" text-anchor="middle">24</text>
  <rect x="279.1" y="142.8" width="16.5" height="92.2" fill="#0969da" opacity="0.35" rx="2"/>
  <text x="287.3" y="138.8" fill="#57606a" font-size="10" text-anchor="middle">35</text>
  <rect x="317.8" y="187.6" width="16.5" height="47.4" fill="#0969da" opacity="0.35" rx="2"/>
  <text x="326.1" y="183.6" fill="#57606a" font-size="10" text-anchor="middle">18</text>
  <rect x="356.5" y="179.7" width="16.5" height="55.3" fill="#0969da" opacity="0.35" rx="2"/>
  <text x="364.8" y="175.7" fill="#57606a" font-size="10" text-anchor="middle">21</text>
  <rect x="395.2" y="171.8" width="16.5" height="63.2" fill="#0969da" opacity="0.35" rx="2"/>
  <text x="403.5" y="167.8" fill="#57606a" font-size="10" text-anchor="middle">24</text>
  <rect x="434.0" y="192.8" width="16.5" height="42.2" fill="#0969da" opacity="0.35" rx="2"/>
  <text x="442.2" y="188.8" fill="#57606a" font-size="10" text-anchor="middle">16</text>
  <rect x="472.7" y="158.6" width="16.5" height="76.4" fill="#0969da" opacity="0.35" rx="2"/>
  <text x="480.9" y="154.6" fill="#57606a" font-size="10" text-anchor="middle">29</text>
  <rect x="511.4" y="187.6" width="16.5" height="47.4" fill="#0969da" opacity="0.35" rx="2"/>
  <text x="519.7" y="183.6" fill="#57606a" font-size="10" text-anchor="middle">18</text>
  <rect x="550.1" y="179.7" width="16.5" height="55.3" fill="#0969da" opacity="0.35" rx="2"/>
  <text x="558.4" y="175.7" fill="#57606a" font-size="10" text-anchor="middle">21</text>
  <rect x="588.9" y="187.6" width="16.5" height="47.4" fill="#0969da" opacity="0.35" rx="2"/>
  <text x="597.1" y="183.6" fill="#57606a" font-size="10" text-anchor="middle">18</text>
  <rect x="627.6" y="184.9" width="16.5" height="50.1" fill="#0969da" opacity="0.35" rx="2"/>
  <text x="635.8" y="180.9" fill="#57606a" font-size="10" text-anchor="middle">19</text>
  <rect x="666.3" y="174.4" width="16.5" height="60.6" fill="#0969da" opacity="0.35" rx="2"/>
  <text x="674.6" y="170.4" fill="#57606a" font-size="10" text-anchor="middle">23</text>
  <rect x="705.0" y="190.2" width="16.5" height="44.8" fill="#0969da" opacity="0.35" rx="2"/>
  <text x="713.3" y="186.2" fill="#57606a" font-size="10" text-anchor="middle">17</text>
  <rect x="743.7" y="169.1" width="16.5" height="65.9" fill="#0969da" opacity="0.35" rx="2"/>
  <text x="752.0" y="165.1" fill="#57606a" font-size="10" text-anchor="middle">25</text>
  <polygon points="55.0,235 55.0,231.5 93.7,208.3 132.4,183.3 171.2,157.6 209.9,146.9 248.6,138.5 287.3,126.4 326.1,120.2 364.8,112.9 403.5,104.5 442.2,99.0 480.9,88.9 519.7,82.7 558.4,75.4 597.1,69.1 635.8,62.6 674.6,54.6 713.3,48.7 752.0,40.0 752.0,235" fill="#0969da" opacity="0.15"/>
  <polyline points="55.0,231.5 93.7,208.3 132.4,183.3 171.2,157.6 209.9,146.9 248.6,138.5 287.3,126.4 326.1,120.2 364.8,112.9 403.5,104.5 442.2,99.0 480.9,88.9 519.7,82.7 558.4,75.4 597.1,69.1 635.8,62.6 674.6,54.6 713.3,48.7 752.0,40.0" fill="none" stroke="#0969da" stroke-width="2" stroke-linejoin="round"/>
  <circle cx="55.0" cy="231.5" r="4" fill="#0969da" stroke="#ffffff" stroke-width="2"/>
  <circle cx="752.0" cy="40.0" r="4" fill="#0969da" stroke="#ffffff" stroke-width="2"/>
  <text x="758" y="239.0" fill="#57606a" font-size="11" text-anchor="start">0</text>
  <text x="758" y="200.0" fill="#57606a" font-size="11" text-anchor="start">14</text>
  <text x="758" y="161.0" fill="#57606a" font-size="11" text-anchor="start">29</text>
  <text x="758" y="122.0" fill="#57606a" font-size="11" text-anchor="start">44</text>
  <text x="758" y="83.0" fill="#57606a" font-size="11" text-anchor="start">59</text>
  <text x="758" y="44.0" fill="#57606a" font-size="11" text-anchor="start">74</text>
  <text x="55.0" y="272" fill="#57606a" font-size="11" text-anchor="middle">05-20</text>
  <line x1="55.0" y1="235" x2="55.0" y2="239" stroke="#57606a" stroke-width="1"/>
  <text x="171.2" y="272" fill="#57606a" font-size="11" text-anchor="middle">05-25</text>
  <line x1="171.2" y1="235" x2="171.2" y2="239" stroke="#57606a" stroke-width="1"/>
  <text x="287.3" y="272" fill="#57606a" font-size="11" text-anchor="middle">05-28</text>
  <line x1="287.3" y1="235" x2="287.3" y2="239" stroke="#57606a" stroke-width="1"/>
  <text x="403.5" y="272" fill="#57606a" font-size="11" text-anchor="middle">05-31</text>
  <line x1="403.5" y1="235" x2="403.5" y2="239" stroke="#57606a" stroke-width="1"/>
  <text x="519.7" y="272" fill="#57606a" font-size="11" text-anchor="middle">06-03</text>
  <line x1="519.7" y1="235" x2="519.7" y2="239" stroke="#57606a" stroke-width="1"/>
  <text x="635.8" y="272" fill="#57606a" font-size="11" text-anchor="middle">06-06</text>
  <line x1="635.8" y1="235" x2="635.8" y2="239" stroke="#57606a" stroke-width="1"/>
  <text x="752.0" y="272" fill="#57606a" font-size="11" text-anchor="middle">06-10</text>
  <line x1="752.0" y1="235" x2="752.0" y2="239" stroke="#57606a" stroke-width="1"/>
  <text x="400" y="22" fill="#1f2328" font-size="14" font-weight="bold" text-anchor="middle">累计：助记 562 词</text>
  <rect x="552" y="30" width="10" height="3" fill="#0969da"/>
  <text x="566" y="34" fill="#57606a" font-size="11">累计助记</text>
  <rect x="624" y="28" width="9" height="7" fill="#0969da" opacity="0.5"/>
  <text x="637" y="34" fill="#57606a" font-size="11">每日新增</text>
  <line x1="55" y1="40" x2="55" y2="235" stroke="#d0d7de" stroke-width="1"/>
  <line x1="55" y1="235" x2="752" y2="235" stroke="#d0d7de" stroke-width="1"/>
</svg>
