<svg width="800" height="280" xmlns="http://www.w3.org/2000/svg" viewBox="0 0 800 280" font-family="-apple-system, BlinkMacSystemFont, 'Segoe UI', 'PingFang SC', 'Hiragino Sans GB', 'Microsoft YaHei', 'Noto Sans CJK SC', sans-serif">
  <rect width="800" height="280" fill="#ffffff"/>
  <line x1="55" y1="235.0" x2="752" y2="235.0" stroke="#eaeef2" stroke-width="1"/>
  <text x="49" y="239.0" fill="#57606a" font-size="11" text-anchor="end">0</text>
  <line x1="55" y1="196.0" x2="752" y2="196.0" stroke="#eaeef2" stroke-width="1"/>
  <text x="49" y="200.0" fill="#57606a" font-size="11" text-anchor="end">154</text>
  <line x1="55" y1="157.0" x2="752" y2="157.0" stroke="#eaeef2" stroke-width="1"/>
  <text x="49" y="161.0" fill="#57606a" font-size="11" text-anchor="end">309</text>
  <line x1="55" y1="118.0" x2="752" y2="118.0" stroke="#eaeef2" stroke-width="1"/>
  <text x="49" y="122.0" fill="#57606a" font-size="11" text-anchor="end">464</text>
  <line x1="55" y1="79.0" x2="752" y2="79.0" stroke="#eaeef2" stroke-width="1"/>
  <text x="49" y="83.0" fill="#57606a" font-size="11" text-anchor="end">619</text>
  <line x1="55" y1="40.0" x2="752" y2="40.0" stroke="#eaeef2" stroke-width="1"/>
  <text x="49" y="44.0" fill="#57606a" font-size="11" text-anchor="end">774</text>
  <rect x="50.1" y="208.6" width="9.8" height="26.4" fill="#0969da" opacity="0.35" rx="2"/>
  <text x="55.0" y="204.6" fill="#57606a" font-size="10" text-anchor="middle">10</text>
  <rect x="72.6" y="58.4" width="9.8" height="176.6" fill="#0969da" opacity="0.35" rx="2"/>
  <text x="77.5" y="54.4" fill="#57606a" font-size="10" text-anchor="middle">67</text>
  <rect x="95.1" y="45.3" width="9.8" height="189.7" fill="#0969da" opacity="0.35" rx="2"/>
  <text x="100.0" y="41.3" fill="#57606a" font-size="10" text-anchor="middle">72</text>
  <rect x="117.6" y="40.0" width="9.8" height="195.0" fill="#0969da" opacity="0.35" rx="2"/>
  <text x="122.5" y="36.0" fill="#57606a" font-size="10" text-anchor="middle">74</text>
  <rect x="140.0" y="153.3" width="9.8" height="81.7" fill="#0969da" opacity="0.35" rx="2"/>
  <text x="144.9" y="149.3" fill="#57606a" font-size="10" text-anchor="middle">31</text>
  <rect x="162.5" y="171.8" width="9.8" height="63.2" fill="#0969da" opacity="0.35" rx="2"/>
  <text x="167.4" y="167.8" fill="#57606a" font-size="10" text-anchor="middle">24</text>
  <rect x="185.0" y="142.8" width="9.8" height="92.2" fill="#0969da" opacity="0.35" rx="2"/>
  <text x="189.9" y="138.8" fill="#57606a" font-size="10" text-anchor="middle">35</text>
  <rect x="207.5" y="187.6" width="9.8" height="47.4" fill="#0969da" opacity="0.35" rx="2"/>
  <text x="212.4" y="183.6" fill="#57606a" font-size="10" text-anchor="middle">18</text>
  <rect x="230.0" y="179.7" width="9.8" height="55.3" fill="#0969da" opacity="0.35" rx="2"/>
  <text x="234.9" y="175.7" fill="#57606a" font-size="10" text-anchor="middle">21</text>
  <rect x="252.5" y="171.8" width="9.8" height="63.2" fill="#0969da" opacity="0.35" rx="2"/>
  <text x="257.4" y="167.8" fill="#57606a" font-size="10" text-anchor="middle">24</text>
  <rect x="274.9" y="192.8" width="9.8" height="42.2" fill="#0969da" opacity="0.35" rx="2"/>
  <text x="279.8" y="188.8" fill="#57606a" font-size="10" text-anchor="middle">16</text>
  <rect x="297.4" y="161.2" width="9.8" height="73.8" fill="#0969da" opacity="0.35" rx="2"/>
  <text x="302.3" y="157.2" fill="#57606a" font-size="10" text-anchor="middle">28</text>
  <rect x="319.9" y="187.6" width="9.8" height="47.4" fill="#0969da" opacity="0.35" rx="2"/>
  <text x="324.8" y="183.6" fill="#57606a" font-size="10" text-anchor="middle">18</text>
  <rect x="342.4" y="179.7" width="9.8" height="55.3" fill="#0969da" opacity="0.35" rx="2"/>
  <text x="347.3" y="175.7" fill="#57606a" font-size="10" text-anchor="middle">21</text>
  <rect x="364.9" y="187.6" width="9.8" height="47.4" fill="#0969da" opacity="0.35" rx="2"/>
  <text x="369.8" y="183.6" fill="#57606a" font-size="10" text-anchor="middle">18</text>
  <rect x="387.4" y="184.9" width="9.8" height="50.1" fill="#0969da" opacity="0.35" rx="2"/>
  <text x="392.3" y="180.9" fill="#57606a" font-size="10" text-anchor="middle">19</text>
  <rect x="409.8" y="174.4" width="9.8" height="60.6" fill="#0969da" opacity="0.35" rx="2"/>
  <text x="414.7" y="170.4" fill="#57606a" font-size="10" text-anchor="middle">23</text>
  <rect x="432.3" y="190.2" width="9.8" height="44.8" fill="#0969da" opacity="0.35" rx="2"/>
  <text x="437.2" y="186.2" fill="#57606a" font-size="10" text-anchor="middle">17</text>
  <rect x="454.8" y="169.1" width="9.8" height="65.9" fill="#0969da" opacity="0.35" rx="2"/>
  <text x="459.7" y="165.1" fill="#57606a" font-size="10" text-anchor="middle">25</text>
  <rect x="477.3" y="161.2" width="9.8" height="73.8" fill="#0969da" opacity="0.35" rx="2"/>
  <text x="482.2" y="157.2" fill="#57606a" font-size="10" text-anchor="middle">28</text>
  <rect x="499.8" y="203.4" width="9.8" height="31.6" fill="#0969da" opacity="0.35" rx="2"/>
  <text x="504.7" y="199.4" fill="#57606a" font-size="10" text-anchor="middle">12</text>
  <rect x="522.3" y="187.6" width="9.8" height="47.4" fill="#0969da" opacity="0.35" rx="2"/>
  <text x="527.2" y="183.6" fill="#57606a" font-size="10" text-anchor="middle">18</text>
  <rect x="544.7" y="179.7" width="9.8" height="55.3" fill="#0969da" opacity="0.35" rx="2"/>
  <text x="549.6" y="175.7" fill="#57606a" font-size="10" text-anchor="middle">21</text>
  <rect x="567.2" y="182.3" width="9.8" height="52.7" fill="#0969da" opacity="0.35" rx="2"/>
  <text x="572.1" y="178.3" fill="#57606a" font-size="10" text-anchor="middle">20</text>
  <rect x="589.7" y="192.8" width="9.8" height="42.2" fill="#0969da" opacity="0.35" rx="2"/>
  <text x="594.6" y="188.8" fill="#57606a" font-size="10" text-anchor="middle">16</text>
  <rect x="612.2" y="179.7" width="9.8" height="55.3" fill="#0969da" opacity="0.35" rx="2"/>
  <text x="617.1" y="175.7" fill="#57606a" font-size="10" text-anchor="middle">21</text>
  <rect x="634.7" y="195.5" width="9.8" height="39.5" fill="#0969da" opacity="0.35" rx="2"/>
  <text x="639.6" y="191.5" fill="#57606a" font-size="10" text-anchor="middle">15</text>
  <rect x="657.2" y="203.4" width="9.8" height="31.6" fill="#0969da" opacity="0.35" rx="2"/>
  <text x="662.1" y="199.4" fill="#57606a" font-size="10" text-anchor="middle">12</text>
  <rect x="679.6" y="200.7" width="9.8" height="34.3" fill="#0969da" opacity="0.35" rx="2"/>
  <text x="684.5" y="196.7" fill="#57606a" font-size="10" text-anchor="middle">13</text>
  <rect x="702.1" y="198.1" width="9.8" height="36.9" fill="#0969da" opacity="0.35" rx="2"/>
  <text x="707.0" y="194.1" fill="#57606a" font-size="10" text-anchor="middle">14</text>
  <rect x="724.6" y="211.3" width="9.8" height="23.7" fill="#0969da" opacity="0.35" rx="2"/>
  <text x="729.5" y="207.3" fill="#57606a" font-size="10" text-anchor="middle">9</text>
  <rect x="747.1" y="198.1" width="9.8" height="36.9" fill="#0969da" opacity="0.35" rx="2"/>
  <text x="752.0" y="194.1" fill="#57606a" font-size="10" text-anchor="middle">14</text>
  <polygon points="55.0,235 55.0,232.5 77.5,215.6 100.0,197.5 122.5,178.8 144.9,171.0 167.4,165.0 189.9,156.1 212.4,151.6 234.9,146.3 257.4,140.3 279.8,136.2 302.3,129.2 324.8,124.7 347.3,119.4 369.8,114.8 392.3,110.0 414.7,104.2 437.2,100.0 459.7,93.7 482.2,86.6 504.7,83.6 527.2,79.1 549.6,73.8 572.1,68.7 594.6,64.7 617.1,59.4 639.6,55.6 662.1,52.6 684.5,49.3 707.0,45.8 729.5,43.5 752.0,40.0 752.0,235" fill="#0969da" opacity="0.15"/>
  <polyline points="55.0,232.5 77.5,215.6 100.0,197.5 122.5,178.8 144.9,171.0 167.4,165.0 189.9,156.1 212.4,151.6 234.9,146.3 257.4,140.3 279.8,136.2 302.3,129.2 324.8,124.7 347.3,119.4 369.8,114.8 392.3,110.0 414.7,104.2 437.2,100.0 459.7,93.7 482.2,86.6 504.7,83.6 527.2,79.1 549.6,73.8 572.1,68.7 594.6,64.7 617.1,59.4 639.6,55.6 662.1,52.6 684.5,49.3 707.0,45.8 729.5,43.5 752.0,40.0" fill="none" stroke="#0969da" stroke-width="2" stroke-linejoin="round"/>
  <circle cx="55.0" cy="232.5" r="4" fill="#0969da" stroke="#ffffff" stroke-width="2"/>
  <circle cx="752.0" cy="40.0" r="4" fill="#0969da" stroke="#ffffff" stroke-width="2"/>
  <text x="758" y="239.0" fill="#57606a" font-size="11" text-anchor="start">0</text>
  <text x="758" y="200.0" fill="#57606a" font-size="11" text-anchor="start">14</text>
  <text x="758" y="161.0" fill="#57606a" font-size="11" text-anchor="start">29</text>
  <text x="758" y="122.0" fill="#57606a" font-size="11" text-anchor="start">44</text>
  <text x="758" y="83.0" fill="#57606a" font-size="11" text-anchor="start">59</text>
  <text x="758" y="44.0" fill="#57606a" font-size="11" text-anchor="start">74</text>
  <text x="55.0" y="272" fill="#57606a" font-size="11" text-anchor="middle">05-20</text>
  <line x1="55.0" y1="235" x2="55.0" y2="239" stroke="#57606a" stroke-width="1"/>
  <text x="167.4" y="272" fill="#57606a" font-size="11" text-anchor="middle">05-27</text>
  <line x1="167.4" y1="235" x2="167.4" y2="239" stroke="#57606a" stroke-width="1"/>
  <text x="279.8" y="272" fill="#57606a" font-size="11" text-anchor="middle">06-01</text>
  <line x1="279.8" y1="235" x2="279.8" y2="239" stroke="#57606a" stroke-width="1"/>
  <text x="392.3" y="272" fill="#57606a" font-size="11" text-anchor="middle">06-06</text>
  <line x1="392.3" y1="235" x2="392.3" y2="239" stroke="#57606a" stroke-width="1"/>
  <text x="504.7" y="272" fill="#57606a" font-size="11" text-anchor="middle">06-12</text>
  <line x1="504.7" y1="235" x2="504.7" y2="239" stroke="#57606a" stroke-width="1"/>
  <text x="617.1" y="272" fill="#57606a" font-size="11" text-anchor="middle">06-17</text>
  <line x1="617.1" y1="235" x2="617.1" y2="239" stroke="#57606a" stroke-width="1"/>
  <text x="729.5" y="272" fill="#57606a" font-size="11" text-anchor="middle">06-22</text>
  <line x1="729.5" y1="235" x2="729.5" y2="239" stroke="#57606a" stroke-width="1"/>
  <text x="752.0" y="272" fill="#57606a" font-size="11" text-anchor="middle">06-23</text>
  <line x1="752.0" y1="235" x2="752.0" y2="239" stroke="#57606a" stroke-width="1"/>
  <text x="400" y="22" fill="#1f2328" font-size="14" font-weight="bold" text-anchor="middle">累计：助记 774 词</text>
  <rect x="552" y="30" width="10" height="3" fill="#0969da"/>
  <text x="566" y="34" fill="#57606a" font-size="11">累计助记</text>
  <rect x="624" y="28" width="9" height="7" fill="#0969da" opacity="0.5"/>
  <text x="637" y="34" fill="#57606a" font-size="11">每日新增</text>
  <line x1="55" y1="40" x2="55" y2="235" stroke="#d0d7de" stroke-width="1"/>
  <line x1="55" y1="235" x2="752" y2="235" stroke="#d0d7de" stroke-width="1"/>
</svg>
