<svg width="800" height="280" xmlns="http://www.w3.org/2000/svg" viewBox="0 0 800 280" font-family="-apple-system, BlinkMacSystemFont, 'Segoe UI', 'PingFang SC', 'Hiragino Sans GB', 'Microsoft YaHei', 'Noto Sans CJK SC', sans-serif">
  <rect width="800" height="280" fill="#ffffff"/>
  <line x1="55" y1="235.0" x2="752" y2="235.0" stroke="#eaeef2" stroke-width="1"/>
  <text x="49" y="239.0" fill="#57606a" font-size="11" text-anchor="end">0</text>
  <line x1="55" y1="196.0" x2="752" y2="196.0" stroke="#eaeef2" stroke-width="1"/>
  <text x="49" y="200.0" fill="#57606a" font-size="11" text-anchor="end">147</text>
  <line x1="55" y1="157.0" x2="752" y2="157.0" stroke="#eaeef2" stroke-width="1"/>
  <text x="49" y="161.0" fill="#57606a" font-size="11" text-anchor="end">295</text>
  <line x1="55" y1="118.0" x2="752" y2="118.0" stroke="#eaeef2" stroke-width="1"/>
  <text x="49" y="122.0" fill="#57606a" font-size="11" text-anchor="end">442</text>
  <line x1="55" y1="79.0" x2="752" y2="79.0" stroke="#eaeef2" stroke-width="1"/>
  <text x="49" y="83.0" fill="#57606a" font-size="11" text-anchor="end">590</text>
  <line x1="55" y1="40.0" x2="752" y2="40.0" stroke="#eaeef2" stroke-width="1"/>
  <text x="49" y="44.0" fill="#57606a" font-size="11" text-anchor="end">738</text>
  <rect x="49.6" y="208.6" width="10.8" height="26.4" fill="#0969da" opacity="0.35" rx="2"/>
  <text x="55.0" y="204.6" fill="#57606a" font-size="10" text-anchor="middle">10</text>
  <rect x="74.5" y="58.4" width="10.8" height="176.6" fill="#0969da" opacity="0.35" rx="2"/>
  <text x="79.9" y="54.4" fill="#57606a" font-size="10" text-anchor="middle">67</text>
  <rect x="99.4" y="45.3" width="10.8" height="189.7" fill="#0969da" opacity="0.35" rx="2"/>
  <text x="104.8" y="41.3" fill="#57606a" font-size="10" text-anchor="middle">72</text>
  <rect x="124.3" y="40.0" width="10.8" height="195.0" fill="#0969da" opacity="0.35" rx="2"/>
  <text x="129.7" y="36.0" fill="#57606a" font-size="10" text-anchor="middle">74</text>
  <rect x="149.2" y="153.3" width="10.8" height="81.7" fill="#0969da" opacity="0.35" rx="2"/>
  <text x="154.6" y="149.3" fill="#57606a" font-size="10" text-anchor="middle">31</text>
  <rect x="174.1" y="171.8" width="10.8" height="63.2" fill="#0969da" opacity="0.35" rx="2"/>
  <text x="179.5" y="167.8" fill="#57606a" font-size="10" text-anchor="middle">24</text>
  <rect x="198.9" y="142.8" width="10.8" height="92.2" fill="#0969da" opacity="0.35" rx="2"/>
  <text x="204.4" y="138.8" fill="#57606a" font-size="10" text-anchor="middle">35</text>
  <rect x="223.8" y="187.6" width="10.8" height="47.4" fill="#0969da" opacity="0.35" rx="2"/>
  <text x="229.2" y="183.6" fill="#57606a" font-size="10" text-anchor="middle">18</text>
  <rect x="248.7" y="179.7" width="10.8" height="55.3" fill="#0969da" opacity="0.35" rx="2"/>
  <text x="254.1" y="175.7" fill="#57606a" font-size="10" text-anchor="middle">21</text>
  <rect x="273.6" y="171.8" width="10.8" height="63.2" fill="#0969da" opacity="0.35" rx="2"/>
  <text x="279.0" y="167.8" fill="#57606a" font-size="10" text-anchor="middle">24</text>
  <rect x="298.5" y="192.8" width="10.8" height="42.2" fill="#0969da" opacity="0.35" rx="2"/>
  <text x="303.9" y="188.8" fill="#57606a" font-size="10" text-anchor="middle">16</text>
  <rect x="323.4" y="158.6" width="10.8" height="76.4" fill="#0969da" opacity="0.35" rx="2"/>
  <text x="328.8" y="154.6" fill="#57606a" font-size="10" text-anchor="middle">29</text>
  <rect x="348.3" y="187.6" width="10.8" height="47.4" fill="#0969da" opacity="0.35" rx="2"/>
  <text x="353.7" y="183.6" fill="#57606a" font-size="10" text-anchor="middle">18</text>
  <rect x="373.2" y="179.7" width="10.8" height="55.3" fill="#0969da" opacity="0.35" rx="2"/>
  <text x="378.6" y="175.7" fill="#57606a" font-size="10" text-anchor="middle">21</text>
  <rect x="398.1" y="187.6" width="10.8" height="47.4" fill="#0969da" opacity="0.35" rx="2"/>
  <text x="403.5" y="183.6" fill="#57606a" font-size="10" text-anchor="middle">18</text>
  <rect x="423.0" y="184.9" width="10.8" height="50.1" fill="#0969da" opacity="0.35" rx="2"/>
  <text x="428.4" y="180.9" fill="#57606a" font-size="10" text-anchor="middle">19</text>
  <rect x="447.9" y="174.4" width="10.8" height="60.6" fill="#0969da" opacity="0.35" rx="2"/>
  <text x="453.3" y="170.4" fill="#57606a" font-size="10" text-anchor="middle">23</text>
  <rect x="472.8" y="190.2" width="10.8" height="44.8" fill="#0969da" opacity="0.35" rx="2"/>
  <text x="478.2" y="186.2" fill="#57606a" font-size="10" text-anchor="middle">17</text>
  <rect x="497.7" y="169.1" width="10.8" height="65.9" fill="#0969da" opacity="0.35" rx="2"/>
  <text x="503.1" y="165.1" fill="#57606a" font-size="10" text-anchor="middle">25</text>
  <rect x="522.6" y="161.2" width="10.8" height="73.8" fill="#0969da" opacity="0.35" rx="2"/>
  <text x="528.0" y="157.2" fill="#57606a" font-size="10" text-anchor="middle">28</text>
  <rect x="547.4" y="203.4" width="10.8" height="31.6" fill="#0969da" opacity="0.35" rx="2"/>
  <text x="552.9" y="199.4" fill="#57606a" font-size="10" text-anchor="middle">12</text>
  <rect x="572.3" y="187.6" width="10.8" height="47.4" fill="#0969da" opacity="0.35" rx="2"/>
  <text x="577.8" y="183.6" fill="#57606a" font-size="10" text-anchor="middle">18</text>
  <rect x="597.2" y="179.7" width="10.8" height="55.3" fill="#0969da" opacity="0.35" rx="2"/>
  <text x="602.6" y="175.7" fill="#57606a" font-size="10" text-anchor="middle">21</text>
  <rect x="622.1" y="182.3" width="10.8" height="52.7" fill="#0969da" opacity="0.35" rx="2"/>
  <text x="627.5" y="178.3" fill="#57606a" font-size="10" text-anchor="middle">20</text>
  <rect x="647.0" y="192.8" width="10.8" height="42.2" fill="#0969da" opacity="0.35" rx="2"/>
  <text x="652.4" y="188.8" fill="#57606a" font-size="10" text-anchor="middle">16</text>
  <rect x="671.9" y="179.7" width="10.8" height="55.3" fill="#0969da" opacity="0.35" rx="2"/>
  <text x="677.3" y="175.7" fill="#57606a" font-size="10" text-anchor="middle">21</text>
  <rect x="696.8" y="195.5" width="10.8" height="39.5" fill="#0969da" opacity="0.35" rx="2"/>
  <text x="702.2" y="191.5" fill="#57606a" font-size="10" text-anchor="middle">15</text>
  <rect x="721.7" y="203.4" width="10.8" height="31.6" fill="#0969da" opacity="0.35" rx="2"/>
  <text x="727.1" y="199.4" fill="#57606a" font-size="10" text-anchor="middle">12</text>
  <rect x="746.6" y="200.7" width="10.8" height="34.3" fill="#0969da" opacity="0.35" rx="2"/>
  <text x="752.0" y="196.7" fill="#57606a" font-size="10" text-anchor="middle">13</text>
  <polygon points="55.0,235 55.0,232.4 79.9,214.7 104.8,195.6 129.7,176.1 154.6,167.9 179.5,161.5 204.4,152.3 229.2,147.5 254.1,142.0 279.0,135.7 303.9,131.4 328.8,123.8 353.7,119.0 378.6,113.5 403.5,108.7 428.4,103.7 453.3,97.6 478.2,93.1 503.1,86.5 528.0,79.1 552.9,75.9 577.8,71.2 602.6,65.6 627.5,60.3 652.4,56.1 677.3,50.6 702.2,46.6 727.1,43.4 752.0,40.0 752.0,235" fill="#0969da" opacity="0.15"/>
  <polyline points="55.0,232.4 79.9,214.7 104.8,195.6 129.7,176.1 154.6,167.9 179.5,161.5 204.4,152.3 229.2,147.5 254.1,142.0 279.0,135.7 303.9,131.4 328.8,123.8 353.7,119.0 378.6,113.5 403.5,108.7 428.4,103.7 453.3,97.6 478.2,93.1 503.1,86.5 528.0,79.1 552.9,75.9 577.8,71.2 602.6,65.6 627.5,60.3 652.4,56.1 677.3,50.6 702.2,46.6 727.1,43.4 752.0,40.0" fill="none" stroke="#0969da" stroke-width="2" stroke-linejoin="round"/>
  <circle cx="55.0" cy="232.4" r="4" fill="#0969da" stroke="#ffffff" stroke-width="2"/>
  <circle cx="752.0" cy="40.0" r="4" fill="#0969da" stroke="#ffffff" stroke-width="2"/>
  <text x="758" y="239.0" fill="#57606a" font-size="11" text-anchor="start">0</text>
  <text x="758" y="200.0" fill="#57606a" font-size="11" text-anchor="start">14</text>
  <text x="758" y="161.0" fill="#57606a" font-size="11" text-anchor="start">29</text>
  <text x="758" y="122.0" fill="#57606a" font-size="11" text-anchor="start">44</text>
  <text x="758" y="83.0" fill="#57606a" font-size="11" text-anchor="start">59</text>
  <text x="758" y="44.0" fill="#57606a" font-size="11" text-anchor="start">74</text>
  <text x="55.0" y="272" fill="#57606a" font-size="11" text-anchor="middle">05-20</text>
  <line x1="55.0" y1="235" x2="55.0" y2="239" stroke="#57606a" stroke-width="1"/>
  <text x="154.6" y="272" fill="#57606a" font-size="11" text-anchor="middle">05-26</text>
  <line x1="154.6" y1="235" x2="154.6" y2="239" stroke="#57606a" stroke-width="1"/>
  <text x="254.1" y="272" fill="#57606a" font-size="11" text-anchor="middle">05-30</text>
  <line x1="254.1" y1="235" x2="254.1" y2="239" stroke="#57606a" stroke-width="1"/>
  <text x="353.7" y="272" fill="#57606a" font-size="11" text-anchor="middle">06-03</text>
  <line x1="353.7" y1="235" x2="353.7" y2="239" stroke="#57606a" stroke-width="1"/>
  <text x="453.3" y="272" fill="#57606a" font-size="11" text-anchor="middle">06-08</text>
  <line x1="453.3" y1="235" x2="453.3" y2="239" stroke="#57606a" stroke-width="1"/>
  <text x="552.9" y="272" fill="#57606a" font-size="11" text-anchor="middle">06-12</text>
  <line x1="552.9" y1="235" x2="552.9" y2="239" stroke="#57606a" stroke-width="1"/>
  <text x="652.4" y="272" fill="#57606a" font-size="11" text-anchor="middle">06-16</text>
  <line x1="652.4" y1="235" x2="652.4" y2="239" stroke="#57606a" stroke-width="1"/>
  <text x="752.0" y="272" fill="#57606a" font-size="11" text-anchor="middle">06-20</text>
  <line x1="752.0" y1="235" x2="752.0" y2="239" stroke="#57606a" stroke-width="1"/>
  <text x="400" y="22" fill="#1f2328" font-size="14" font-weight="bold" text-anchor="middle">累计：助记 738 词</text>
  <rect x="552" y="30" width="10" height="3" fill="#0969da"/>
  <text x="566" y="34" fill="#57606a" font-size="11">累计助记</text>
  <rect x="624" y="28" width="9" height="7" fill="#0969da" opacity="0.5"/>
  <text x="637" y="34" fill="#57606a" font-size="11">每日新增</text>
  <line x1="55" y1="40" x2="55" y2="235" stroke="#d0d7de" stroke-width="1"/>
  <line x1="55" y1="235" x2="752" y2="235" stroke="#d0d7de" stroke-width="1"/>
</svg>
