<svg width="800" height="280" xmlns="http://www.w3.org/2000/svg" viewBox="0 0 800 280" font-family="-apple-system, BlinkMacSystemFont, 'Segoe UI', 'PingFang SC', 'Hiragino Sans GB', 'Microsoft YaHei', 'Noto Sans CJK SC', sans-serif">
  <rect width="800" height="280" fill="#ffffff"/>
  <line x1="55" y1="235.0" x2="752" y2="235.0" stroke="#eaeef2" stroke-width="1"/>
  <text x="49" y="239.0" fill="#57606a" font-size="11" text-anchor="end">0</text>
  <line x1="55" y1="196.0" x2="752" y2="196.0" stroke="#eaeef2" stroke-width="1"/>
  <text x="49" y="200.0" fill="#57606a" font-size="11" text-anchor="end">176</text>
  <line x1="55" y1="157.0" x2="752" y2="157.0" stroke="#eaeef2" stroke-width="1"/>
  <text x="49" y="161.0" fill="#57606a" font-size="11" text-anchor="end">352</text>
  <line x1="55" y1="118.0" x2="752" y2="118.0" stroke="#eaeef2" stroke-width="1"/>
  <text x="49" y="122.0" fill="#57606a" font-size="11" text-anchor="end">528</text>
  <line x1="55" y1="79.0" x2="752" y2="79.0" stroke="#eaeef2" stroke-width="1"/>
  <text x="49" y="83.0" fill="#57606a" font-size="11" text-anchor="end">704</text>
  <line x1="55" y1="40.0" x2="752" y2="40.0" stroke="#eaeef2" stroke-width="1"/>
  <text x="49" y="44.0" fill="#57606a" font-size="11" text-anchor="end">880</text>
  <rect x="51.2" y="208.6" width="7.7" height="26.4" fill="#0969da" opacity="0.35" rx="2"/>
  <text x="55.0" y="204.6" fill="#57606a" font-size="10" text-anchor="middle">10</text>
  <rect x="68.6" y="58.4" width="7.7" height="176.6" fill="#0969da" opacity="0.35" rx="2"/>
  <text x="72.4" y="54.4" fill="#57606a" font-size="10" text-anchor="middle">67</text>
  <rect x="86.0" y="45.3" width="7.7" height="189.7" fill="#0969da" opacity="0.35" rx="2"/>
  <text x="89.8" y="41.3" fill="#57606a" font-size="10" text-anchor="middle">72</text>
  <rect x="103.5" y="40.0" width="7.7" height="195.0" fill="#0969da" opacity="0.35" rx="2"/>
  <text x="107.3" y="36.0" fill="#57606a" font-size="10" text-anchor="middle">74</text>
  <rect x="120.9" y="153.3" width="7.7" height="81.7" fill="#0969da" opacity="0.35" rx="2"/>
  <text x="124.7" y="149.3" fill="#57606a" font-size="10" text-anchor="middle">31</text>
  <rect x="138.3" y="171.8" width="7.7" height="63.2" fill="#0969da" opacity="0.35" rx="2"/>
  <text x="142.1" y="167.8" fill="#57606a" font-size="10" text-anchor="middle">24</text>
  <rect x="155.7" y="142.8" width="7.7" height="92.2" fill="#0969da" opacity="0.35" rx="2"/>
  <text x="159.6" y="138.8" fill="#57606a" font-size="10" text-anchor="middle">35</text>
  <rect x="173.2" y="187.6" width="7.7" height="47.4" fill="#0969da" opacity="0.35" rx="2"/>
  <text x="177.0" y="183.6" fill="#57606a" font-size="10" text-anchor="middle">18</text>
  <rect x="190.6" y="179.7" width="7.7" height="55.3" fill="#0969da" opacity="0.35" rx="2"/>
  <text x="194.4" y="175.7" fill="#57606a" font-size="10" text-anchor="middle">21</text>
  <rect x="208.0" y="171.8" width="7.7" height="63.2" fill="#0969da" opacity="0.35" rx="2"/>
  <text x="211.8" y="167.8" fill="#57606a" font-size="10" text-anchor="middle">24</text>
  <rect x="225.4" y="192.8" width="7.7" height="42.2" fill="#0969da" opacity="0.35" rx="2"/>
  <text x="229.2" y="188.8" fill="#57606a" font-size="10" text-anchor="middle">16</text>
  <rect x="242.9" y="161.2" width="7.7" height="73.8" fill="#0969da" opacity="0.35" rx="2"/>
  <text x="246.7" y="157.2" fill="#57606a" font-size="10" text-anchor="middle">28</text>
  <rect x="260.3" y="187.6" width="7.7" height="47.4" fill="#0969da" opacity="0.35" rx="2"/>
  <text x="264.1" y="183.6" fill="#57606a" font-size="10" text-anchor="middle">18</text>
  <rect x="277.7" y="179.7" width="7.7" height="55.3" fill="#0969da" opacity="0.35" rx="2"/>
  <text x="281.5" y="175.7" fill="#57606a" font-size="10" text-anchor="middle">21</text>
  <rect x="295.1" y="187.6" width="7.7" height="47.4" fill="#0969da" opacity="0.35" rx="2"/>
  <text x="298.9" y="183.6" fill="#57606a" font-size="10" text-anchor="middle">18</text>
  <rect x="312.6" y="184.9" width="7.7" height="50.1" fill="#0969da" opacity="0.35" rx="2"/>
  <text x="316.4" y="180.9" fill="#57606a" font-size="10" text-anchor="middle">19</text>
  <rect x="330.0" y="174.4" width="7.7" height="60.6" fill="#0969da" opacity="0.35" rx="2"/>
  <text x="333.8" y="170.4" fill="#57606a" font-size="10" text-anchor="middle">23</text>
  <rect x="347.4" y="190.2" width="7.7" height="44.8" fill="#0969da" opacity="0.35" rx="2"/>
  <text x="351.2" y="186.2" fill="#57606a" font-size="10" text-anchor="middle">17</text>
  <rect x="364.8" y="169.1" width="7.7" height="65.9" fill="#0969da" opacity="0.35" rx="2"/>
  <text x="368.6" y="165.1" fill="#57606a" font-size="10" text-anchor="middle">25</text>
  <rect x="382.2" y="161.2" width="7.7" height="73.8" fill="#0969da" opacity="0.35" rx="2"/>
  <text x="386.1" y="157.2" fill="#57606a" font-size="10" text-anchor="middle">28</text>
  <rect x="399.7" y="203.4" width="7.7" height="31.6" fill="#0969da" opacity="0.35" rx="2"/>
  <text x="403.5" y="199.4" fill="#57606a" font-size="10" text-anchor="middle">12</text>
  <rect x="417.1" y="187.6" width="7.7" height="47.4" fill="#0969da" opacity="0.35" rx="2"/>
  <text x="420.9" y="183.6" fill="#57606a" font-size="10" text-anchor="middle">18</text>
  <rect x="434.5" y="179.7" width="7.7" height="55.3" fill="#0969da" opacity="0.35" rx="2"/>
  <text x="438.4" y="175.7" fill="#57606a" font-size="10" text-anchor="middle">21</text>
  <rect x="451.9" y="182.3" width="7.7" height="52.7" fill="#0969da" opacity="0.35" rx="2"/>
  <text x="455.8" y="178.3" fill="#57606a" font-size="10" text-anchor="middle">20</text>
  <rect x="469.4" y="192.8" width="7.7" height="42.2" fill="#0969da" opacity="0.35" rx="2"/>
  <text x="473.2" y="188.8" fill="#57606a" font-size="10" text-anchor="middle">16</text>
  <rect x="486.8" y="179.7" width="7.7" height="55.3" fill="#0969da" opacity="0.35" rx="2"/>
  <text x="490.6" y="175.7" fill="#57606a" font-size="10" text-anchor="middle">21</text>
  <rect x="504.2" y="195.5" width="7.7" height="39.5" fill="#0969da" opacity="0.35" rx="2"/>
  <text x="508.1" y="191.5" fill="#57606a" font-size="10" text-anchor="middle">15</text>
  <rect x="521.6" y="203.4" width="7.7" height="31.6" fill="#0969da" opacity="0.35" rx="2"/>
  <text x="525.5" y="199.4" fill="#57606a" font-size="10" text-anchor="middle">12</text>
  <rect x="539.1" y="200.7" width="7.7" height="34.3" fill="#0969da" opacity="0.35" rx="2"/>
  <text x="542.9" y="196.7" fill="#57606a" font-size="10" text-anchor="middle">13</text>
  <rect x="556.5" y="198.1" width="7.7" height="36.9" fill="#0969da" opacity="0.35" rx="2"/>
  <text x="560.3" y="194.1" fill="#57606a" font-size="10" text-anchor="middle">14</text>
  <rect x="573.9" y="211.3" width="7.7" height="23.7" fill="#0969da" opacity="0.35" rx="2"/>
  <text x="577.8" y="207.3" fill="#57606a" font-size="10" text-anchor="middle">9</text>
  <rect x="591.3" y="198.1" width="7.7" height="36.9" fill="#0969da" opacity="0.35" rx="2"/>
  <text x="595.2" y="194.1" fill="#57606a" font-size="10" text-anchor="middle">14</text>
  <rect x="608.8" y="208.6" width="7.7" height="26.4" fill="#0969da" opacity="0.35" rx="2"/>
  <text x="612.6" y="204.6" fill="#57606a" font-size="10" text-anchor="middle">10</text>
  <rect x="626.2" y="187.6" width="7.7" height="47.4" fill="#0969da" opacity="0.35" rx="2"/>
  <text x="630.0" y="183.6" fill="#57606a" font-size="10" text-anchor="middle">18</text>
  <rect x="643.6" y="200.7" width="7.7" height="34.3" fill="#0969da" opacity="0.35" rx="2"/>
  <text x="647.5" y="196.7" fill="#57606a" font-size="10" text-anchor="middle">13</text>
  <rect x="661.0" y="200.7" width="7.7" height="34.3" fill="#0969da" opacity="0.35" rx="2"/>
  <text x="664.9" y="196.7" fill="#57606a" font-size="10" text-anchor="middle">13</text>
  <rect x="678.5" y="192.8" width="7.7" height="42.2" fill="#0969da" opacity="0.35" rx="2"/>
  <text x="682.3" y="188.8" fill="#57606a" font-size="10" text-anchor="middle">16</text>
  <rect x="695.9" y="206.0" width="7.7" height="29.0" fill="#0969da" opacity="0.35" rx="2"/>
  <text x="699.7" y="202.0" fill="#57606a" font-size="10" text-anchor="middle">11</text>
  <rect x="713.3" y="219.2" width="7.7" height="15.8" fill="#0969da" opacity="0.35" rx="2"/>
  <text x="717.1" y="215.2" fill="#57606a" font-size="10" text-anchor="middle">6</text>
  <rect x="730.8" y="208.6" width="7.7" height="26.4" fill="#0969da" opacity="0.35" rx="2"/>
  <text x="734.6" y="204.6" fill="#57606a" font-size="10" text-anchor="middle">10</text>
  <rect x="748.2" y="211.3" width="7.7" height="23.7" fill="#0969da" opacity="0.35" rx="2"/>
  <text x="752.0" y="207.3" fill="#57606a" font-size="10" text-anchor="middle">9</text>
  <polygon points="55.0,235 55.0,232.8 72.4,217.9 89.8,202.0 107.3,185.6 124.7,178.7 142.1,173.4 159.6,165.6 177.0,161.7 194.4,157.0 211.8,151.7 229.2,148.1 246.7,141.9 264.1,137.9 281.5,133.3 298.9,129.3 316.4,125.1 333.8,120.0 351.2,116.2 368.6,110.7 386.1,104.5 403.5,101.8 420.9,97.8 438.4,93.2 455.8,88.8 473.2,85.2 490.6,80.6 508.1,77.2 525.5,74.6 542.9,71.7 560.3,68.6 577.8,66.6 595.2,63.5 612.6,61.3 630.0,57.3 647.5,54.4 664.9,51.5 682.3,48.0 699.7,45.5 717.1,44.2 734.6,42.0 752.0,40.0 752.0,235" fill="#0969da" opacity="0.15"/>
  <polyline points="55.0,232.8 72.4,217.9 89.8,202.0 107.3,185.6 124.7,178.7 142.1,173.4 159.6,165.6 177.0,161.7 194.4,157.0 211.8,151.7 229.2,148.1 246.7,141.9 264.1,137.9 281.5,133.3 298.9,129.3 316.4,125.1 333.8,120.0 351.2,116.2 368.6,110.7 386.1,104.5 403.5,101.8 420.9,97.8 438.4,93.2 455.8,88.8 473.2,85.2 490.6,80.6 508.1,77.2 525.5,74.6 542.9,71.7 560.3,68.6 577.8,66.6 595.2,63.5 612.6,61.3 630.0,57.3 647.5,54.4 664.9,51.5 682.3,48.0 699.7,45.5 717.1,44.2 734.6,42.0 752.0,40.0" fill="none" stroke="#0969da" stroke-width="2" stroke-linejoin="round"/>
  <circle cx="55.0" cy="232.8" r="4" fill="#0969da" stroke="#ffffff" stroke-width="2"/>
  <circle cx="752.0" cy="40.0" r="4" fill="#0969da" stroke="#ffffff" stroke-width="2"/>
  <text x="758" y="239.0" fill="#57606a" font-size="11" text-anchor="start">0</text>
  <text x="758" y="200.0" fill="#57606a" font-size="11" text-anchor="start">14</text>
  <text x="758" y="161.0" fill="#57606a" font-size="11" text-anchor="start">29</text>
  <text x="758" y="122.0" fill="#57606a" font-size="11" text-anchor="start">44</text>
  <text x="758" y="83.0" fill="#57606a" font-size="11" text-anchor="start">59</text>
  <text x="758" y="44.0" fill="#57606a" font-size="11" text-anchor="start">74</text>
  <text x="55.0" y="272" fill="#57606a" font-size="11" text-anchor="middle">05-20</text>
  <line x1="55.0" y1="235" x2="55.0" y2="239" stroke="#57606a" stroke-width="1"/>
  <text x="159.6" y="272" fill="#57606a" font-size="11" text-anchor="middle">05-28</text>
  <line x1="159.6" y1="235" x2="159.6" y2="239" stroke="#57606a" stroke-width="1"/>
  <text x="264.1" y="272" fill="#57606a" font-size="11" text-anchor="middle">06-03</text>
  <line x1="264.1" y1="235" x2="264.1" y2="239" stroke="#57606a" stroke-width="1"/>
  <text x="368.6" y="272" fill="#57606a" font-size="11" text-anchor="middle">06-10</text>
  <line x1="368.6" y1="235" x2="368.6" y2="239" stroke="#57606a" stroke-width="1"/>
  <text x="473.2" y="272" fill="#57606a" font-size="11" text-anchor="middle">06-16</text>
  <line x1="473.2" y1="235" x2="473.2" y2="239" stroke="#57606a" stroke-width="1"/>
  <text x="577.8" y="272" fill="#57606a" font-size="11" text-anchor="middle">06-22</text>
  <line x1="577.8" y1="235" x2="577.8" y2="239" stroke="#57606a" stroke-width="1"/>
  <text x="682.3" y="272" fill="#57606a" font-size="11" text-anchor="middle">06-28</text>
  <line x1="682.3" y1="235" x2="682.3" y2="239" stroke="#57606a" stroke-width="1"/>
  <text x="752.0" y="272" fill="#57606a" font-size="11" text-anchor="middle">07-02</text>
  <line x1="752.0" y1="235" x2="752.0" y2="239" stroke="#57606a" stroke-width="1"/>
  <text x="400" y="22" fill="#1f2328" font-size="14" font-weight="bold" text-anchor="middle">累计：助记 880 词</text>
  <rect x="552" y="30" width="10" height="3" fill="#0969da"/>
  <text x="566" y="34" fill="#57606a" font-size="11">累计助记</text>
  <rect x="624" y="28" width="9" height="7" fill="#0969da" opacity="0.5"/>
  <text x="637" y="34" fill="#57606a" font-size="11">每日新增</text>
  <line x1="55" y1="40" x2="55" y2="235" stroke="#d0d7de" stroke-width="1"/>
  <line x1="55" y1="235" x2="752" y2="235" stroke="#d0d7de" stroke-width="1"/>
</svg>
