<svg width="800" height="280" xmlns="http://www.w3.org/2000/svg" viewBox="0 0 800 280" font-family="-apple-system, BlinkMacSystemFont, 'Segoe UI', 'PingFang SC', 'Hiragino Sans GB', 'Microsoft YaHei', 'Noto Sans CJK SC', sans-serif">
  <rect width="800" height="280" fill="#ffffff"/>
  <line x1="55" y1="235.0" x2="752" y2="235.0" stroke="#eaeef2" stroke-width="1"/>
  <text x="49" y="239.0" fill="#57606a" font-size="11" text-anchor="end">0</text>
  <line x1="55" y1="196.0" x2="752" y2="196.0" stroke="#eaeef2" stroke-width="1"/>
  <text x="49" y="200.0" fill="#57606a" font-size="11" text-anchor="end">92</text>
  <line x1="55" y1="157.0" x2="752" y2="157.0" stroke="#eaeef2" stroke-width="1"/>
  <text x="49" y="161.0" fill="#57606a" font-size="11" text-anchor="end">184</text>
  <line x1="55" y1="118.0" x2="752" y2="118.0" stroke="#eaeef2" stroke-width="1"/>
  <text x="49" y="122.0" fill="#57606a" font-size="11" text-anchor="end">276</text>
  <line x1="55" y1="79.0" x2="752" y2="79.0" stroke="#eaeef2" stroke-width="1"/>
  <text x="49" y="83.0" fill="#57606a" font-size="11" text-anchor="end">368</text>
  <line x1="55" y1="40.0" x2="752" y2="40.0" stroke="#eaeef2" stroke-width="1"/>
  <text x="49" y="44.0" fill="#57606a" font-size="11" text-anchor="end">460</text>
  <rect x="43.8" y="208.6" width="22.4" height="26.4" fill="#0969da" opacity="0.35" rx="2"/>
  <text x="55.0" y="204.6" fill="#57606a" font-size="10" text-anchor="middle">10</text>
  <rect x="97.4" y="58.4" width="22.4" height="176.6" fill="#0969da" opacity="0.35" rx="2"/>
  <text x="108.6" y="54.4" fill="#57606a" font-size="10" text-anchor="middle">67</text>
  <rect x="151.0" y="45.3" width="22.4" height="189.7" fill="#0969da" opacity="0.35" rx="2"/>
  <text x="162.2" y="41.3" fill="#57606a" font-size="10" text-anchor="middle">72</text>
  <rect x="204.6" y="40.0" width="22.4" height="195.0" fill="#0969da" opacity="0.35" rx="2"/>
  <text x="215.8" y="36.0" fill="#57606a" font-size="10" text-anchor="middle">74</text>
  <rect x="258.3" y="153.3" width="22.4" height="81.7" fill="#0969da" opacity="0.35" rx="2"/>
  <text x="269.5" y="149.3" fill="#57606a" font-size="10" text-anchor="middle">31</text>
  <rect x="311.9" y="171.8" width="22.4" height="63.2" fill="#0969da" opacity="0.35" rx="2"/>
  <text x="323.1" y="167.8" fill="#57606a" font-size="10" text-anchor="middle">24</text>
  <rect x="365.5" y="142.8" width="22.4" height="92.2" fill="#0969da" opacity="0.35" rx="2"/>
  <text x="376.7" y="138.8" fill="#57606a" font-size="10" text-anchor="middle">35</text>
  <rect x="419.1" y="187.6" width="22.4" height="47.4" fill="#0969da" opacity="0.35" rx="2"/>
  <text x="430.3" y="183.6" fill="#57606a" font-size="10" text-anchor="middle">18</text>
  <rect x="472.7" y="179.7" width="22.4" height="55.3" fill="#0969da" opacity="0.35" rx="2"/>
  <text x="483.9" y="175.7" fill="#57606a" font-size="10" text-anchor="middle">21</text>
  <rect x="526.3" y="171.8" width="22.4" height="63.2" fill="#0969da" opacity="0.35" rx="2"/>
  <text x="537.5" y="167.8" fill="#57606a" font-size="10" text-anchor="middle">24</text>
  <rect x="580.0" y="192.8" width="22.4" height="42.2" fill="#0969da" opacity="0.35" rx="2"/>
  <text x="591.2" y="188.8" fill="#57606a" font-size="10" text-anchor="middle">16</text>
  <rect x="633.6" y="158.6" width="22.4" height="76.4" fill="#0969da" opacity="0.35" rx="2"/>
  <text x="644.8" y="154.6" fill="#57606a" font-size="10" text-anchor="middle">29</text>
  <rect x="687.2" y="187.6" width="22.4" height="47.4" fill="#0969da" opacity="0.35" rx="2"/>
  <text x="698.4" y="183.6" fill="#57606a" font-size="10" text-anchor="middle">18</text>
  <rect x="740.8" y="179.7" width="22.4" height="55.3" fill="#0969da" opacity="0.35" rx="2"/>
  <text x="752.0" y="175.7" fill="#57606a" font-size="10" text-anchor="middle">21</text>
  <polygon points="55.0,235 55.0,230.8 108.6,202.4 162.2,171.8 215.8,140.5 269.5,127.3 323.1,117.2 376.7,102.3 430.3,94.7 483.9,85.8 537.5,75.6 591.2,68.8 644.8,56.5 698.4,48.9 752.0,40.0 752.0,235" fill="#0969da" opacity="0.15"/>
  <polyline points="55.0,230.8 108.6,202.4 162.2,171.8 215.8,140.5 269.5,127.3 323.1,117.2 376.7,102.3 430.3,94.7 483.9,85.8 537.5,75.6 591.2,68.8 644.8,56.5 698.4,48.9 752.0,40.0" fill="none" stroke="#0969da" stroke-width="2" stroke-linejoin="round"/>
  <circle cx="55.0" cy="230.8" r="4" fill="#0969da" stroke="#ffffff" stroke-width="2"/>
  <circle cx="752.0" cy="40.0" r="4" fill="#0969da" stroke="#ffffff" stroke-width="2"/>
  <text x="758" y="239.0" fill="#57606a" font-size="11" text-anchor="start">0</text>
  <text x="758" y="200.0" fill="#57606a" font-size="11" text-anchor="start">14</text>
  <text x="758" y="161.0" fill="#57606a" font-size="11" text-anchor="start">29</text>
  <text x="758" y="122.0" fill="#57606a" font-size="11" text-anchor="start">44</text>
  <text x="758" y="83.0" fill="#57606a" font-size="11" text-anchor="start">59</text>
  <text x="758" y="44.0" fill="#57606a" font-size="11" text-anchor="start">74</text>
  <text x="55.0" y="272" fill="#57606a" font-size="11" text-anchor="middle">05-20</text>
  <line x1="55.0" y1="235" x2="55.0" y2="239" stroke="#57606a" stroke-width="1"/>
  <text x="162.2" y="272" fill="#57606a" font-size="11" text-anchor="middle">05-23</text>
  <line x1="162.2" y1="235" x2="162.2" y2="239" stroke="#57606a" stroke-width="1"/>
  <text x="269.5" y="272" fill="#57606a" font-size="11" text-anchor="middle">05-26</text>
  <line x1="269.5" y1="235" x2="269.5" y2="239" stroke="#57606a" stroke-width="1"/>
  <text x="376.7" y="272" fill="#57606a" font-size="11" text-anchor="middle">05-28</text>
  <line x1="376.7" y1="235" x2="376.7" y2="239" stroke="#57606a" stroke-width="1"/>
  <text x="483.9" y="272" fill="#57606a" font-size="11" text-anchor="middle">05-30</text>
  <line x1="483.9" y1="235" x2="483.9" y2="239" stroke="#57606a" stroke-width="1"/>
  <text x="591.2" y="272" fill="#57606a" font-size="11" text-anchor="middle">06-01</text>
  <line x1="591.2" y1="235" x2="591.2" y2="239" stroke="#57606a" stroke-width="1"/>
  <text x="698.4" y="272" fill="#57606a" font-size="11" text-anchor="middle">06-03</text>
  <line x1="698.4" y1="235" x2="698.4" y2="239" stroke="#57606a" stroke-width="1"/>
  <text x="752.0" y="272" fill="#57606a" font-size="11" text-anchor="middle">06-04</text>
  <line x1="752.0" y1="235" x2="752.0" y2="239" stroke="#57606a" stroke-width="1"/>
  <text x="400" y="22" fill="#1f2328" font-size="14" font-weight="bold" text-anchor="middle">累计：助记 460 词</text>
  <rect x="552" y="30" width="10" height="3" fill="#0969da"/>
  <text x="566" y="34" fill="#57606a" font-size="11">累计助记</text>
  <rect x="624" y="28" width="9" height="7" fill="#0969da" opacity="0.5"/>
  <text x="637" y="34" fill="#57606a" font-size="11">每日新增</text>
  <line x1="55" y1="40" x2="55" y2="235" stroke="#d0d7de" stroke-width="1"/>
  <line x1="55" y1="235" x2="752" y2="235" stroke="#d0d7de" stroke-width="1"/>
</svg>
