<svg width="800" height="280" xmlns="http://www.w3.org/2000/svg" viewBox="0 0 800 280" font-family="-apple-system, BlinkMacSystemFont, 'Segoe UI', 'PingFang SC', 'Hiragino Sans GB', 'Microsoft YaHei', 'Noto Sans CJK SC', sans-serif">
  <rect width="800" height="280" fill="#ffffff"/>
  <line x1="55" y1="235.0" x2="752" y2="235.0" stroke="#eaeef2" stroke-width="1"/>
  <text x="49" y="239.0" fill="#57606a" font-size="11" text-anchor="end">0</text>
  <line x1="55" y1="196.0" x2="752" y2="196.0" stroke="#eaeef2" stroke-width="1"/>
  <text x="49" y="200.0" fill="#57606a" font-size="11" text-anchor="end">172</text>
  <line x1="55" y1="157.0" x2="752" y2="157.0" stroke="#eaeef2" stroke-width="1"/>
  <text x="49" y="161.0" fill="#57606a" font-size="11" text-anchor="end">344</text>
  <line x1="55" y1="118.0" x2="752" y2="118.0" stroke="#eaeef2" stroke-width="1"/>
  <text x="49" y="122.0" fill="#57606a" font-size="11" text-anchor="end">516</text>
  <line x1="55" y1="79.0" x2="752" y2="79.0" stroke="#eaeef2" stroke-width="1"/>
  <text x="49" y="83.0" fill="#57606a" font-size="11" text-anchor="end">688</text>
  <line x1="55" y1="40.0" x2="752" y2="40.0" stroke="#eaeef2" stroke-width="1"/>
  <text x="49" y="44.0" fill="#57606a" font-size="11" text-anchor="end">861</text>
  <rect x="51.0" y="208.6" width="8.0" height="26.4" fill="#0969da" opacity="0.35" rx="2"/>
  <text x="55.0" y="204.6" fill="#57606a" font-size="10" text-anchor="middle">10</text>
  <rect x="69.3" y="58.4" width="8.0" height="176.6" fill="#0969da" opacity="0.35" rx="2"/>
  <text x="73.3" y="54.4" fill="#57606a" font-size="10" text-anchor="middle">67</text>
  <rect x="87.7" y="45.3" width="8.0" height="189.7" fill="#0969da" opacity="0.35" rx="2"/>
  <text x="91.7" y="41.3" fill="#57606a" font-size="10" text-anchor="middle">72</text>
  <rect x="106.0" y="40.0" width="8.0" height="195.0" fill="#0969da" opacity="0.35" rx="2"/>
  <text x="110.0" y="36.0" fill="#57606a" font-size="10" text-anchor="middle">74</text>
  <rect x="124.3" y="153.3" width="8.0" height="81.7" fill="#0969da" opacity="0.35" rx="2"/>
  <text x="128.4" y="149.3" fill="#57606a" font-size="10" text-anchor="middle">31</text>
  <rect x="142.7" y="171.8" width="8.0" height="63.2" fill="#0969da" opacity="0.35" rx="2"/>
  <text x="146.7" y="167.8" fill="#57606a" font-size="10" text-anchor="middle">24</text>
  <rect x="161.0" y="142.8" width="8.0" height="92.2" fill="#0969da" opacity="0.35" rx="2"/>
  <text x="165.1" y="138.8" fill="#57606a" font-size="10" text-anchor="middle">35</text>
  <rect x="179.4" y="187.6" width="8.0" height="47.4" fill="#0969da" opacity="0.35" rx="2"/>
  <text x="183.4" y="183.6" fill="#57606a" font-size="10" text-anchor="middle">18</text>
  <rect x="197.7" y="179.7" width="8.0" height="55.3" fill="#0969da" opacity="0.35" rx="2"/>
  <text x="201.7" y="175.7" fill="#57606a" font-size="10" text-anchor="middle">21</text>
  <rect x="216.1" y="171.8" width="8.0" height="63.2" fill="#0969da" opacity="0.35" rx="2"/>
  <text x="220.1" y="167.8" fill="#57606a" font-size="10" text-anchor="middle">24</text>
  <rect x="234.4" y="192.8" width="8.0" height="42.2" fill="#0969da" opacity="0.35" rx="2"/>
  <text x="238.4" y="188.8" fill="#57606a" font-size="10" text-anchor="middle">16</text>
  <rect x="252.7" y="161.2" width="8.0" height="73.8" fill="#0969da" opacity="0.35" rx="2"/>
  <text x="256.8" y="157.2" fill="#57606a" font-size="10" text-anchor="middle">28</text>
  <rect x="271.1" y="187.6" width="8.0" height="47.4" fill="#0969da" opacity="0.35" rx="2"/>
  <text x="275.1" y="183.6" fill="#57606a" font-size="10" text-anchor="middle">18</text>
  <rect x="289.4" y="179.7" width="8.0" height="55.3" fill="#0969da" opacity="0.35" rx="2"/>
  <text x="293.4" y="175.7" fill="#57606a" font-size="10" text-anchor="middle">21</text>
  <rect x="307.8" y="187.6" width="8.0" height="47.4" fill="#0969da" opacity="0.35" rx="2"/>
  <text x="311.8" y="183.6" fill="#57606a" font-size="10" text-anchor="middle">18</text>
  <rect x="326.1" y="184.9" width="8.0" height="50.1" fill="#0969da" opacity="0.35" rx="2"/>
  <text x="330.1" y="180.9" fill="#57606a" font-size="10" text-anchor="middle">19</text>
  <rect x="344.5" y="174.4" width="8.0" height="60.6" fill="#0969da" opacity="0.35" rx="2"/>
  <text x="348.5" y="170.4" fill="#57606a" font-size="10" text-anchor="middle">23</text>
  <rect x="362.8" y="190.2" width="8.0" height="44.8" fill="#0969da" opacity="0.35" rx="2"/>
  <text x="366.8" y="186.2" fill="#57606a" font-size="10" text-anchor="middle">17</text>
  <rect x="381.1" y="169.1" width="8.0" height="65.9" fill="#0969da" opacity="0.35" rx="2"/>
  <text x="385.2" y="165.1" fill="#57606a" font-size="10" text-anchor="middle">25</text>
  <rect x="399.5" y="161.2" width="8.0" height="73.8" fill="#0969da" opacity="0.35" rx="2"/>
  <text x="403.5" y="157.2" fill="#57606a" font-size="10" text-anchor="middle">28</text>
  <rect x="417.8" y="203.4" width="8.0" height="31.6" fill="#0969da" opacity="0.35" rx="2"/>
  <text x="421.8" y="199.4" fill="#57606a" font-size="10" text-anchor="middle">12</text>
  <rect x="436.2" y="187.6" width="8.0" height="47.4" fill="#0969da" opacity="0.35" rx="2"/>
  <text x="440.2" y="183.6" fill="#57606a" font-size="10" text-anchor="middle">18</text>
  <rect x="454.5" y="179.7" width="8.0" height="55.3" fill="#0969da" opacity="0.35" rx="2"/>
  <text x="458.5" y="175.7" fill="#57606a" font-size="10" text-anchor="middle">21</text>
  <rect x="472.8" y="182.3" width="8.0" height="52.7" fill="#0969da" opacity="0.35" rx="2"/>
  <text x="476.9" y="178.3" fill="#57606a" font-size="10" text-anchor="middle">20</text>
  <rect x="491.2" y="192.8" width="8.0" height="42.2" fill="#0969da" opacity="0.35" rx="2"/>
  <text x="495.2" y="188.8" fill="#57606a" font-size="10" text-anchor="middle">16</text>
  <rect x="509.5" y="179.7" width="8.0" height="55.3" fill="#0969da" opacity="0.35" rx="2"/>
  <text x="513.6" y="175.7" fill="#57606a" font-size="10" text-anchor="middle">21</text>
  <rect x="527.9" y="195.5" width="8.0" height="39.5" fill="#0969da" opacity="0.35" rx="2"/>
  <text x="531.9" y="191.5" fill="#57606a" font-size="10" text-anchor="middle">15</text>
  <rect x="546.2" y="203.4" width="8.0" height="31.6" fill="#0969da" opacity="0.35" rx="2"/>
  <text x="550.2" y="199.4" fill="#57606a" font-size="10" text-anchor="middle">12</text>
  <rect x="564.6" y="200.7" width="8.0" height="34.3" fill="#0969da" opacity="0.35" rx="2"/>
  <text x="568.6" y="196.7" fill="#57606a" font-size="10" text-anchor="middle">13</text>
  <rect x="582.9" y="198.1" width="8.0" height="36.9" fill="#0969da" opacity="0.35" rx="2"/>
  <text x="586.9" y="194.1" fill="#57606a" font-size="10" text-anchor="middle">14</text>
  <rect x="601.2" y="211.3" width="8.0" height="23.7" fill="#0969da" opacity="0.35" rx="2"/>
  <text x="605.3" y="207.3" fill="#57606a" font-size="10" text-anchor="middle">9</text>
  <rect x="619.6" y="198.1" width="8.0" height="36.9" fill="#0969da" opacity="0.35" rx="2"/>
  <text x="623.6" y="194.1" fill="#57606a" font-size="10" text-anchor="middle">14</text>
  <rect x="637.9" y="208.6" width="8.0" height="26.4" fill="#0969da" opacity="0.35" rx="2"/>
  <text x="641.9" y="204.6" fill="#57606a" font-size="10" text-anchor="middle">10</text>
  <rect x="656.3" y="187.6" width="8.0" height="47.4" fill="#0969da" opacity="0.35" rx="2"/>
  <text x="660.3" y="183.6" fill="#57606a" font-size="10" text-anchor="middle">18</text>
  <rect x="674.6" y="200.7" width="8.0" height="34.3" fill="#0969da" opacity="0.35" rx="2"/>
  <text x="678.6" y="196.7" fill="#57606a" font-size="10" text-anchor="middle">13</text>
  <rect x="693.0" y="200.7" width="8.0" height="34.3" fill="#0969da" opacity="0.35" rx="2"/>
  <text x="697.0" y="196.7" fill="#57606a" font-size="10" text-anchor="middle">13</text>
  <rect x="711.3" y="192.8" width="8.0" height="42.2" fill="#0969da" opacity="0.35" rx="2"/>
  <text x="715.3" y="188.8" fill="#57606a" font-size="10" text-anchor="middle">16</text>
  <rect x="729.6" y="206.0" width="8.0" height="29.0" fill="#0969da" opacity="0.35" rx="2"/>
  <text x="733.7" y="202.0" fill="#57606a" font-size="10" text-anchor="middle">11</text>
  <rect x="748.0" y="219.2" width="8.0" height="15.8" fill="#0969da" opacity="0.35" rx="2"/>
  <text x="752.0" y="215.2" fill="#57606a" font-size="10" text-anchor="middle">6</text>
  <polygon points="55.0,235 55.0,232.7 73.3,217.6 91.7,201.3 110.0,184.5 128.4,177.5 146.7,172.0 165.1,164.1 183.4,160.0 201.7,155.3 220.1,149.8 238.4,146.2 256.8,139.9 275.1,135.8 293.4,131.0 311.8,127.0 330.1,122.7 348.5,117.5 366.8,113.6 385.2,107.9 403.5,101.6 421.8,98.9 440.2,94.8 458.5,90.1 476.9,85.5 495.2,81.9 513.6,77.1 531.9,73.7 550.2,71.0 568.6,68.1 586.9,64.9 605.3,62.9 623.6,59.7 641.9,57.4 660.3,53.4 678.6,50.4 697.0,47.5 715.3,43.9 733.7,41.4 752.0,40.0 752.0,235" fill="#0969da" opacity="0.15"/>
  <polyline points="55.0,232.7 73.3,217.6 91.7,201.3 110.0,184.5 128.4,177.5 146.7,172.0 165.1,164.1 183.4,160.0 201.7,155.3 220.1,149.8 238.4,146.2 256.8,139.9 275.1,135.8 293.4,131.0 311.8,127.0 330.1,122.7 348.5,117.5 366.8,113.6 385.2,107.9 403.5,101.6 421.8,98.9 440.2,94.8 458.5,90.1 476.9,85.5 495.2,81.9 513.6,77.1 531.9,73.7 550.2,71.0 568.6,68.1 586.9,64.9 605.3,62.9 623.6,59.7 641.9,57.4 660.3,53.4 678.6,50.4 697.0,47.5 715.3,43.9 733.7,41.4 752.0,40.0" fill="none" stroke="#0969da" stroke-width="2" stroke-linejoin="round"/>
  <circle cx="55.0" cy="232.7" r="4" fill="#0969da" stroke="#ffffff" stroke-width="2"/>
  <circle cx="752.0" cy="40.0" r="4" fill="#0969da" stroke="#ffffff" stroke-width="2"/>
  <text x="758" y="239.0" fill="#57606a" font-size="11" text-anchor="start">0</text>
  <text x="758" y="200.0" fill="#57606a" font-size="11" text-anchor="start">14</text>
  <text x="758" y="161.0" fill="#57606a" font-size="11" text-anchor="start">29</text>
  <text x="758" y="122.0" fill="#57606a" font-size="11" text-anchor="start">44</text>
  <text x="758" y="83.0" fill="#57606a" font-size="11" text-anchor="start">59</text>
  <text x="758" y="44.0" fill="#57606a" font-size="11" text-anchor="start">74</text>
  <text x="55.0" y="272" fill="#57606a" font-size="11" text-anchor="middle">05-20</text>
  <line x1="55.0" y1="235" x2="55.0" y2="239" stroke="#57606a" stroke-width="1"/>
  <text x="165.1" y="272" fill="#57606a" font-size="11" text-anchor="middle">05-28</text>
  <line x1="165.1" y1="235" x2="165.1" y2="239" stroke="#57606a" stroke-width="1"/>
  <text x="275.1" y="272" fill="#57606a" font-size="11" text-anchor="middle">06-03</text>
  <line x1="275.1" y1="235" x2="275.1" y2="239" stroke="#57606a" stroke-width="1"/>
  <text x="385.2" y="272" fill="#57606a" font-size="11" text-anchor="middle">06-10</text>
  <line x1="385.2" y1="235" x2="385.2" y2="239" stroke="#57606a" stroke-width="1"/>
  <text x="495.2" y="272" fill="#57606a" font-size="11" text-anchor="middle">06-16</text>
  <line x1="495.2" y1="235" x2="495.2" y2="239" stroke="#57606a" stroke-width="1"/>
  <text x="605.3" y="272" fill="#57606a" font-size="11" text-anchor="middle">06-22</text>
  <line x1="605.3" y1="235" x2="605.3" y2="239" stroke="#57606a" stroke-width="1"/>
  <text x="715.3" y="272" fill="#57606a" font-size="11" text-anchor="middle">06-28</text>
  <line x1="715.3" y1="235" x2="715.3" y2="239" stroke="#57606a" stroke-width="1"/>
  <text x="752.0" y="272" fill="#57606a" font-size="11" text-anchor="middle">06-30</text>
  <line x1="752.0" y1="235" x2="752.0" y2="239" stroke="#57606a" stroke-width="1"/>
  <text x="400" y="22" fill="#1f2328" font-size="14" font-weight="bold" text-anchor="middle">累计：助记 861 词</text>
  <rect x="552" y="30" width="10" height="3" fill="#0969da"/>
  <text x="566" y="34" fill="#57606a" font-size="11">累计助记</text>
  <rect x="624" y="28" width="9" height="7" fill="#0969da" opacity="0.5"/>
  <text x="637" y="34" fill="#57606a" font-size="11">每日新增</text>
  <line x1="55" y1="40" x2="55" y2="235" stroke="#d0d7de" stroke-width="1"/>
  <line x1="55" y1="235" x2="752" y2="235" stroke="#d0d7de" stroke-width="1"/>
</svg>
