<svg width="800" height="280" xmlns="http://www.w3.org/2000/svg" viewBox="0 0 800 280" font-family="-apple-system, BlinkMacSystemFont, 'Segoe UI', 'PingFang SC', 'Hiragino Sans GB', 'Microsoft YaHei', 'Noto Sans CJK SC', sans-serif">
  <rect width="800" height="280" fill="#ffffff"/>
  <line x1="55" y1="235.0" x2="752" y2="235.0" stroke="#eaeef2" stroke-width="1"/>
  <text x="49" y="239.0" fill="#57606a" font-size="11" text-anchor="end">0</text>
  <line x1="55" y1="196.0" x2="752" y2="196.0" stroke="#eaeef2" stroke-width="1"/>
  <text x="49" y="200.0" fill="#57606a" font-size="11" text-anchor="end">152</text>
  <line x1="55" y1="157.0" x2="752" y2="157.0" stroke="#eaeef2" stroke-width="1"/>
  <text x="49" y="161.0" fill="#57606a" font-size="11" text-anchor="end">304</text>
  <line x1="55" y1="118.0" x2="752" y2="118.0" stroke="#eaeef2" stroke-width="1"/>
  <text x="49" y="122.0" fill="#57606a" font-size="11" text-anchor="end">456</text>
  <line x1="55" y1="79.0" x2="752" y2="79.0" stroke="#eaeef2" stroke-width="1"/>
  <text x="49" y="83.0" fill="#57606a" font-size="11" text-anchor="end">608</text>
  <line x1="55" y1="40.0" x2="752" y2="40.0" stroke="#eaeef2" stroke-width="1"/>
  <text x="49" y="44.0" fill="#57606a" font-size="11" text-anchor="end">760</text>
  <rect x="49.9" y="208.6" width="10.1" height="26.4" fill="#0969da" opacity="0.35" rx="2"/>
  <text x="55.0" y="204.6" fill="#57606a" font-size="10" text-anchor="middle">10</text>
  <rect x="73.2" y="58.4" width="10.1" height="176.6" fill="#0969da" opacity="0.35" rx="2"/>
  <text x="78.2" y="54.4" fill="#57606a" font-size="10" text-anchor="middle">67</text>
  <rect x="96.4" y="45.3" width="10.1" height="189.7" fill="#0969da" opacity="0.35" rx="2"/>
  <text x="101.5" y="41.3" fill="#57606a" font-size="10" text-anchor="middle">72</text>
  <rect x="119.6" y="40.0" width="10.1" height="195.0" fill="#0969da" opacity="0.35" rx="2"/>
  <text x="124.7" y="36.0" fill="#57606a" font-size="10" text-anchor="middle">74</text>
  <rect x="142.9" y="153.3" width="10.1" height="81.7" fill="#0969da" opacity="0.35" rx="2"/>
  <text x="147.9" y="149.3" fill="#57606a" font-size="10" text-anchor="middle">31</text>
  <rect x="166.1" y="171.8" width="10.1" height="63.2" fill="#0969da" opacity="0.35" rx="2"/>
  <text x="171.2" y="167.8" fill="#57606a" font-size="10" text-anchor="middle">24</text>
  <rect x="189.3" y="142.8" width="10.1" height="92.2" fill="#0969da" opacity="0.35" rx="2"/>
  <text x="194.4" y="138.8" fill="#57606a" font-size="10" text-anchor="middle">35</text>
  <rect x="212.6" y="187.6" width="10.1" height="47.4" fill="#0969da" opacity="0.35" rx="2"/>
  <text x="217.6" y="183.6" fill="#57606a" font-size="10" text-anchor="middle">18</text>
  <rect x="235.8" y="179.7" width="10.1" height="55.3" fill="#0969da" opacity="0.35" rx="2"/>
  <text x="240.9" y="175.7" fill="#57606a" font-size="10" text-anchor="middle">21</text>
  <rect x="259.0" y="171.8" width="10.1" height="63.2" fill="#0969da" opacity="0.35" rx="2"/>
  <text x="264.1" y="167.8" fill="#57606a" font-size="10" text-anchor="middle">24</text>
  <rect x="282.3" y="192.8" width="10.1" height="42.2" fill="#0969da" opacity="0.35" rx="2"/>
  <text x="287.3" y="188.8" fill="#57606a" font-size="10" text-anchor="middle">16</text>
  <rect x="305.5" y="161.2" width="10.1" height="73.8" fill="#0969da" opacity="0.35" rx="2"/>
  <text x="310.6" y="157.2" fill="#57606a" font-size="10" text-anchor="middle">28</text>
  <rect x="328.7" y="187.6" width="10.1" height="47.4" fill="#0969da" opacity="0.35" rx="2"/>
  <text x="333.8" y="183.6" fill="#57606a" font-size="10" text-anchor="middle">18</text>
  <rect x="352.0" y="179.7" width="10.1" height="55.3" fill="#0969da" opacity="0.35" rx="2"/>
  <text x="357.0" y="175.7" fill="#57606a" font-size="10" text-anchor="middle">21</text>
  <rect x="375.2" y="187.6" width="10.1" height="47.4" fill="#0969da" opacity="0.35" rx="2"/>
  <text x="380.3" y="183.6" fill="#57606a" font-size="10" text-anchor="middle">18</text>
  <rect x="398.4" y="184.9" width="10.1" height="50.1" fill="#0969da" opacity="0.35" rx="2"/>
  <text x="403.5" y="180.9" fill="#57606a" font-size="10" text-anchor="middle">19</text>
  <rect x="421.7" y="174.4" width="10.1" height="60.6" fill="#0969da" opacity="0.35" rx="2"/>
  <text x="426.7" y="170.4" fill="#57606a" font-size="10" text-anchor="middle">23</text>
  <rect x="444.9" y="190.2" width="10.1" height="44.8" fill="#0969da" opacity="0.35" rx="2"/>
  <text x="450.0" y="186.2" fill="#57606a" font-size="10" text-anchor="middle">17</text>
  <rect x="468.1" y="169.1" width="10.1" height="65.9" fill="#0969da" opacity="0.35" rx="2"/>
  <text x="473.2" y="165.1" fill="#57606a" font-size="10" text-anchor="middle">25</text>
  <rect x="491.4" y="161.2" width="10.1" height="73.8" fill="#0969da" opacity="0.35" rx="2"/>
  <text x="496.4" y="157.2" fill="#57606a" font-size="10" text-anchor="middle">28</text>
  <rect x="514.6" y="203.4" width="10.1" height="31.6" fill="#0969da" opacity="0.35" rx="2"/>
  <text x="519.7" y="199.4" fill="#57606a" font-size="10" text-anchor="middle">12</text>
  <rect x="537.8" y="187.6" width="10.1" height="47.4" fill="#0969da" opacity="0.35" rx="2"/>
  <text x="542.9" y="183.6" fill="#57606a" font-size="10" text-anchor="middle">18</text>
  <rect x="561.1" y="179.7" width="10.1" height="55.3" fill="#0969da" opacity="0.35" rx="2"/>
  <text x="566.1" y="175.7" fill="#57606a" font-size="10" text-anchor="middle">21</text>
  <rect x="584.3" y="182.3" width="10.1" height="52.7" fill="#0969da" opacity="0.35" rx="2"/>
  <text x="589.4" y="178.3" fill="#57606a" font-size="10" text-anchor="middle">20</text>
  <rect x="607.5" y="192.8" width="10.1" height="42.2" fill="#0969da" opacity="0.35" rx="2"/>
  <text x="612.6" y="188.8" fill="#57606a" font-size="10" text-anchor="middle">16</text>
  <rect x="630.8" y="179.7" width="10.1" height="55.3" fill="#0969da" opacity="0.35" rx="2"/>
  <text x="635.8" y="175.7" fill="#57606a" font-size="10" text-anchor="middle">21</text>
  <rect x="654.0" y="195.5" width="10.1" height="39.5" fill="#0969da" opacity="0.35" rx="2"/>
  <text x="659.1" y="191.5" fill="#57606a" font-size="10" text-anchor="middle">15</text>
  <rect x="677.2" y="203.4" width="10.1" height="31.6" fill="#0969da" opacity="0.35" rx="2"/>
  <text x="682.3" y="199.4" fill="#57606a" font-size="10" text-anchor="middle">12</text>
  <rect x="700.5" y="200.7" width="10.1" height="34.3" fill="#0969da" opacity="0.35" rx="2"/>
  <text x="705.5" y="196.7" fill="#57606a" font-size="10" text-anchor="middle">13</text>
  <rect x="723.7" y="198.1" width="10.1" height="36.9" fill="#0969da" opacity="0.35" rx="2"/>
  <text x="728.8" y="194.1" fill="#57606a" font-size="10" text-anchor="middle">14</text>
  <rect x="746.9" y="211.3" width="10.1" height="23.7" fill="#0969da" opacity="0.35" rx="2"/>
  <text x="752.0" y="207.3" fill="#57606a" font-size="10" text-anchor="middle">9</text>
  <polygon points="55.0,235 55.0,232.4 78.2,215.2 101.5,196.8 124.7,177.8 147.9,169.8 171.2,163.7 194.4,154.7 217.6,150.1 240.9,144.7 264.1,138.5 287.3,134.4 310.6,127.2 333.8,122.6 357.0,117.2 380.3,112.6 403.5,107.7 426.7,101.8 450.0,97.5 473.2,91.1 496.4,83.9 519.7,80.8 542.9,76.2 566.1,70.8 589.4,65.7 612.6,61.6 635.8,56.2 659.1,52.3 682.3,49.2 705.5,45.9 728.8,42.3 752.0,40.0 752.0,235" fill="#0969da" opacity="0.15"/>
  <polyline points="55.0,232.4 78.2,215.2 101.5,196.8 124.7,177.8 147.9,169.8 171.2,163.7 194.4,154.7 217.6,150.1 240.9,144.7 264.1,138.5 287.3,134.4 310.6,127.2 333.8,122.6 357.0,117.2 380.3,112.6 403.5,107.7 426.7,101.8 450.0,97.5 473.2,91.1 496.4,83.9 519.7,80.8 542.9,76.2 566.1,70.8 589.4,65.7 612.6,61.6 635.8,56.2 659.1,52.3 682.3,49.2 705.5,45.9 728.8,42.3 752.0,40.0" fill="none" stroke="#0969da" stroke-width="2" stroke-linejoin="round"/>
  <circle cx="55.0" cy="232.4" r="4" fill="#0969da" stroke="#ffffff" stroke-width="2"/>
  <circle cx="752.0" cy="40.0" r="4" fill="#0969da" stroke="#ffffff" stroke-width="2"/>
  <text x="758" y="239.0" fill="#57606a" font-size="11" text-anchor="start">0</text>
  <text x="758" y="200.0" fill="#57606a" font-size="11" text-anchor="start">14</text>
  <text x="758" y="161.0" fill="#57606a" font-size="11" text-anchor="start">29</text>
  <text x="758" y="122.0" fill="#57606a" font-size="11" text-anchor="start">44</text>
  <text x="758" y="83.0" fill="#57606a" font-size="11" text-anchor="start">59</text>
  <text x="758" y="44.0" fill="#57606a" font-size="11" text-anchor="start">74</text>
  <text x="55.0" y="272" fill="#57606a" font-size="11" text-anchor="middle">05-20</text>
  <line x1="55.0" y1="235" x2="55.0" y2="239" stroke="#57606a" stroke-width="1"/>
  <text x="171.2" y="272" fill="#57606a" font-size="11" text-anchor="middle">05-27</text>
  <line x1="171.2" y1="235" x2="171.2" y2="239" stroke="#57606a" stroke-width="1"/>
  <text x="287.3" y="272" fill="#57606a" font-size="11" text-anchor="middle">06-01</text>
  <line x1="287.3" y1="235" x2="287.3" y2="239" stroke="#57606a" stroke-width="1"/>
  <text x="403.5" y="272" fill="#57606a" font-size="11" text-anchor="middle">06-06</text>
  <line x1="403.5" y1="235" x2="403.5" y2="239" stroke="#57606a" stroke-width="1"/>
  <text x="519.7" y="272" fill="#57606a" font-size="11" text-anchor="middle">06-12</text>
  <line x1="519.7" y1="235" x2="519.7" y2="239" stroke="#57606a" stroke-width="1"/>
  <text x="635.8" y="272" fill="#57606a" font-size="11" text-anchor="middle">06-17</text>
  <line x1="635.8" y1="235" x2="635.8" y2="239" stroke="#57606a" stroke-width="1"/>
  <text x="752.0" y="272" fill="#57606a" font-size="11" text-anchor="middle">06-22</text>
  <line x1="752.0" y1="235" x2="752.0" y2="239" stroke="#57606a" stroke-width="1"/>
  <text x="400" y="22" fill="#1f2328" font-size="14" font-weight="bold" text-anchor="middle">累计：助记 760 词</text>
  <rect x="552" y="30" width="10" height="3" fill="#0969da"/>
  <text x="566" y="34" fill="#57606a" font-size="11">累计助记</text>
  <rect x="624" y="28" width="9" height="7" fill="#0969da" opacity="0.5"/>
  <text x="637" y="34" fill="#57606a" font-size="11">每日新增</text>
  <line x1="55" y1="40" x2="55" y2="235" stroke="#d0d7de" stroke-width="1"/>
  <line x1="55" y1="235" x2="752" y2="235" stroke="#d0d7de" stroke-width="1"/>
</svg>
