<svg width="800" height="280" xmlns="http://www.w3.org/2000/svg" viewBox="0 0 800 280" font-family="-apple-system, BlinkMacSystemFont, 'Segoe UI', 'PingFang SC', 'Hiragino Sans GB', 'Microsoft YaHei', 'Noto Sans CJK SC', sans-serif">
  <rect width="800" height="280" fill="#ffffff"/>
  <line x1="55" y1="235.0" x2="752" y2="235.0" stroke="#eaeef2" stroke-width="1"/>
  <text x="49" y="239.0" fill="#57606a" font-size="11" text-anchor="end">0</text>
  <line x1="55" y1="196.0" x2="752" y2="196.0" stroke="#eaeef2" stroke-width="1"/>
  <text x="49" y="200.0" fill="#57606a" font-size="11" text-anchor="end">128</text>
  <line x1="55" y1="157.0" x2="752" y2="157.0" stroke="#eaeef2" stroke-width="1"/>
  <text x="49" y="161.0" fill="#57606a" font-size="11" text-anchor="end">256</text>
  <line x1="55" y1="118.0" x2="752" y2="118.0" stroke="#eaeef2" stroke-width="1"/>
  <text x="49" y="122.0" fill="#57606a" font-size="11" text-anchor="end">384</text>
  <line x1="55" y1="79.0" x2="752" y2="79.0" stroke="#eaeef2" stroke-width="1"/>
  <text x="49" y="83.0" fill="#57606a" font-size="11" text-anchor="end">512</text>
  <line x1="55" y1="40.0" x2="752" y2="40.0" stroke="#eaeef2" stroke-width="1"/>
  <text x="49" y="44.0" fill="#57606a" font-size="11" text-anchor="end">641</text>
  <rect x="48.2" y="208.6" width="13.6" height="26.4" fill="#0969da" opacity="0.35" rx="2"/>
  <text x="55.0" y="204.6" fill="#57606a" font-size="10" text-anchor="middle">10</text>
  <rect x="79.9" y="58.4" width="13.6" height="176.6" fill="#0969da" opacity="0.35" rx="2"/>
  <text x="86.7" y="54.4" fill="#57606a" font-size="10" text-anchor="middle">67</text>
  <rect x="111.5" y="45.3" width="13.6" height="189.7" fill="#0969da" opacity="0.35" rx="2"/>
  <text x="118.4" y="41.3" fill="#57606a" font-size="10" text-anchor="middle">72</text>
  <rect x="143.2" y="40.0" width="13.6" height="195.0" fill="#0969da" opacity="0.35" rx="2"/>
  <text x="150.0" y="36.0" fill="#57606a" font-size="10" text-anchor="middle">74</text>
  <rect x="174.9" y="153.3" width="13.6" height="81.7" fill="#0969da" opacity="0.35" rx="2"/>
  <text x="181.7" y="149.3" fill="#57606a" font-size="10" text-anchor="middle">31</text>
  <rect x="206.6" y="171.8" width="13.6" height="63.2" fill="#0969da" opacity="0.35" rx="2"/>
  <text x="213.4" y="167.8" fill="#57606a" font-size="10" text-anchor="middle">24</text>
  <rect x="238.3" y="142.8" width="13.6" height="92.2" fill="#0969da" opacity="0.35" rx="2"/>
  <text x="245.1" y="138.8" fill="#57606a" font-size="10" text-anchor="middle">35</text>
  <rect x="270.0" y="187.6" width="13.6" height="47.4" fill="#0969da" opacity="0.35" rx="2"/>
  <text x="276.8" y="183.6" fill="#57606a" font-size="10" text-anchor="middle">18</text>
  <rect x="301.6" y="179.7" width="13.6" height="55.3" fill="#0969da" opacity="0.35" rx="2"/>
  <text x="308.5" y="175.7" fill="#57606a" font-size="10" text-anchor="middle">21</text>
  <rect x="333.3" y="171.8" width="13.6" height="63.2" fill="#0969da" opacity="0.35" rx="2"/>
  <text x="340.1" y="167.8" fill="#57606a" font-size="10" text-anchor="middle">24</text>
  <rect x="365.0" y="192.8" width="13.6" height="42.2" fill="#0969da" opacity="0.35" rx="2"/>
  <text x="371.8" y="188.8" fill="#57606a" font-size="10" text-anchor="middle">16</text>
  <rect x="396.7" y="158.6" width="13.6" height="76.4" fill="#0969da" opacity="0.35" rx="2"/>
  <text x="403.5" y="154.6" fill="#57606a" font-size="10" text-anchor="middle">29</text>
  <rect x="428.4" y="187.6" width="13.6" height="47.4" fill="#0969da" opacity="0.35" rx="2"/>
  <text x="435.2" y="183.6" fill="#57606a" font-size="10" text-anchor="middle">18</text>
  <rect x="460.0" y="179.7" width="13.6" height="55.3" fill="#0969da" opacity="0.35" rx="2"/>
  <text x="466.9" y="175.7" fill="#57606a" font-size="10" text-anchor="middle">21</text>
  <rect x="491.7" y="187.6" width="13.6" height="47.4" fill="#0969da" opacity="0.35" rx="2"/>
  <text x="498.5" y="183.6" fill="#57606a" font-size="10" text-anchor="middle">18</text>
  <rect x="523.4" y="184.9" width="13.6" height="50.1" fill="#0969da" opacity="0.35" rx="2"/>
  <text x="530.2" y="180.9" fill="#57606a" font-size="10" text-anchor="middle">19</text>
  <rect x="555.1" y="174.4" width="13.6" height="60.6" fill="#0969da" opacity="0.35" rx="2"/>
  <text x="561.9" y="170.4" fill="#57606a" font-size="10" text-anchor="middle">23</text>
  <rect x="586.8" y="190.2" width="13.6" height="44.8" fill="#0969da" opacity="0.35" rx="2"/>
  <text x="593.6" y="186.2" fill="#57606a" font-size="10" text-anchor="middle">17</text>
  <rect x="618.5" y="169.1" width="13.6" height="65.9" fill="#0969da" opacity="0.35" rx="2"/>
  <text x="625.3" y="165.1" fill="#57606a" font-size="10" text-anchor="middle">25</text>
  <rect x="650.1" y="161.2" width="13.6" height="73.8" fill="#0969da" opacity="0.35" rx="2"/>
  <text x="657.0" y="157.2" fill="#57606a" font-size="10" text-anchor="middle">28</text>
  <rect x="681.8" y="203.4" width="13.6" height="31.6" fill="#0969da" opacity="0.35" rx="2"/>
  <text x="688.6" y="199.4" fill="#57606a" font-size="10" text-anchor="middle">12</text>
  <rect x="713.5" y="187.6" width="13.6" height="47.4" fill="#0969da" opacity="0.35" rx="2"/>
  <text x="720.3" y="183.6" fill="#57606a" font-size="10" text-anchor="middle">18</text>
  <rect x="745.2" y="179.7" width="13.6" height="55.3" fill="#0969da" opacity="0.35" rx="2"/>
  <text x="752.0" y="175.7" fill="#57606a" font-size="10" text-anchor="middle">21</text>
  <polygon points="55.0,235 55.0,232.0 86.7,211.6 118.4,189.7 150.0,167.2 181.7,157.7 213.4,150.4 245.1,139.8 276.8,134.3 308.5,127.9 340.1,120.6 371.8,115.7 403.5,106.9 435.2,101.5 466.9,95.1 498.5,89.6 530.2,83.8 561.9,76.8 593.6,71.6 625.3,64.0 657.0,55.5 688.6,51.9 720.3,46.4 752.0,40.0 752.0,235" fill="#0969da" opacity="0.15"/>
  <polyline points="55.0,232.0 86.7,211.6 118.4,189.7 150.0,167.2 181.7,157.7 213.4,150.4 245.1,139.8 276.8,134.3 308.5,127.9 340.1,120.6 371.8,115.7 403.5,106.9 435.2,101.5 466.9,95.1 498.5,89.6 530.2,83.8 561.9,76.8 593.6,71.6 625.3,64.0 657.0,55.5 688.6,51.9 720.3,46.4 752.0,40.0" fill="none" stroke="#0969da" stroke-width="2" stroke-linejoin="round"/>
  <circle cx="55.0" cy="232.0" r="4" fill="#0969da" stroke="#ffffff" stroke-width="2"/>
  <circle cx="752.0" cy="40.0" r="4" fill="#0969da" stroke="#ffffff" stroke-width="2"/>
  <text x="758" y="239.0" fill="#57606a" font-size="11" text-anchor="start">0</text>
  <text x="758" y="200.0" fill="#57606a" font-size="11" text-anchor="start">14</text>
  <text x="758" y="161.0" fill="#57606a" font-size="11" text-anchor="start">29</text>
  <text x="758" y="122.0" fill="#57606a" font-size="11" text-anchor="start">44</text>
  <text x="758" y="83.0" fill="#57606a" font-size="11" text-anchor="start">59</text>
  <text x="758" y="44.0" fill="#57606a" font-size="11" text-anchor="start">74</text>
  <text x="55.0" y="272" fill="#57606a" font-size="11" text-anchor="middle">05-20</text>
  <line x1="55.0" y1="235" x2="55.0" y2="239" stroke="#57606a" stroke-width="1"/>
  <text x="150.0" y="272" fill="#57606a" font-size="11" text-anchor="middle">05-25</text>
  <line x1="150.0" y1="235" x2="150.0" y2="239" stroke="#57606a" stroke-width="1"/>
  <text x="245.1" y="272" fill="#57606a" font-size="11" text-anchor="middle">05-28</text>
  <line x1="245.1" y1="235" x2="245.1" y2="239" stroke="#57606a" stroke-width="1"/>
  <text x="340.1" y="272" fill="#57606a" font-size="11" text-anchor="middle">05-31</text>
  <line x1="340.1" y1="235" x2="340.1" y2="239" stroke="#57606a" stroke-width="1"/>
  <text x="435.2" y="272" fill="#57606a" font-size="11" text-anchor="middle">06-03</text>
  <line x1="435.2" y1="235" x2="435.2" y2="239" stroke="#57606a" stroke-width="1"/>
  <text x="530.2" y="272" fill="#57606a" font-size="11" text-anchor="middle">06-06</text>
  <line x1="530.2" y1="235" x2="530.2" y2="239" stroke="#57606a" stroke-width="1"/>
  <text x="625.3" y="272" fill="#57606a" font-size="11" text-anchor="middle">06-10</text>
  <line x1="625.3" y1="235" x2="625.3" y2="239" stroke="#57606a" stroke-width="1"/>
  <text x="720.3" y="272" fill="#57606a" font-size="11" text-anchor="middle">06-13</text>
  <line x1="720.3" y1="235" x2="720.3" y2="239" stroke="#57606a" stroke-width="1"/>
  <text x="752.0" y="272" fill="#57606a" font-size="11" text-anchor="middle">06-14</text>
  <line x1="752.0" y1="235" x2="752.0" y2="239" stroke="#57606a" stroke-width="1"/>
  <text x="400" y="22" fill="#1f2328" font-size="14" font-weight="bold" text-anchor="middle">累计：助记 641 词</text>
  <rect x="552" y="30" width="10" height="3" fill="#0969da"/>
  <text x="566" y="34" fill="#57606a" font-size="11">累计助记</text>
  <rect x="624" y="28" width="9" height="7" fill="#0969da" opacity="0.5"/>
  <text x="637" y="34" fill="#57606a" font-size="11">每日新增</text>
  <line x1="55" y1="40" x2="55" y2="235" stroke="#d0d7de" stroke-width="1"/>
  <line x1="55" y1="235" x2="752" y2="235" stroke="#d0d7de" stroke-width="1"/>
</svg>
