<svg width="800" height="280" xmlns="http://www.w3.org/2000/svg" viewBox="0 0 800 280" font-family="-apple-system, BlinkMacSystemFont, 'Segoe UI', 'PingFang SC', 'Hiragino Sans GB', 'Microsoft YaHei', 'Noto Sans CJK SC', sans-serif">
  <rect width="800" height="280" fill="#ffffff"/>
  <line x1="55" y1="235.0" x2="752" y2="235.0" stroke="#eaeef2" stroke-width="1"/>
  <text x="49" y="239.0" fill="#57606a" font-size="11" text-anchor="end">0</text>
  <line x1="55" y1="196.0" x2="752" y2="196.0" stroke="#eaeef2" stroke-width="1"/>
  <text x="49" y="200.0" fill="#57606a" font-size="11" text-anchor="end">156</text>
  <line x1="55" y1="157.0" x2="752" y2="157.0" stroke="#eaeef2" stroke-width="1"/>
  <text x="49" y="161.0" fill="#57606a" font-size="11" text-anchor="end">313</text>
  <line x1="55" y1="118.0" x2="752" y2="118.0" stroke="#eaeef2" stroke-width="1"/>
  <text x="49" y="122.0" fill="#57606a" font-size="11" text-anchor="end">470</text>
  <line x1="55" y1="79.0" x2="752" y2="79.0" stroke="#eaeef2" stroke-width="1"/>
  <text x="49" y="83.0" fill="#57606a" font-size="11" text-anchor="end">627</text>
  <line x1="55" y1="40.0" x2="752" y2="40.0" stroke="#eaeef2" stroke-width="1"/>
  <text x="49" y="44.0" fill="#57606a" font-size="11" text-anchor="end">784</text>
  <rect x="50.2" y="208.6" width="9.5" height="26.4" fill="#0969da" opacity="0.35" rx="2"/>
  <text x="55.0" y="204.6" fill="#57606a" font-size="10" text-anchor="middle">10</text>
  <rect x="72.0" y="58.4" width="9.5" height="176.6" fill="#0969da" opacity="0.35" rx="2"/>
  <text x="76.8" y="54.4" fill="#57606a" font-size="10" text-anchor="middle">67</text>
  <rect x="93.8" y="45.3" width="9.5" height="189.7" fill="#0969da" opacity="0.35" rx="2"/>
  <text x="98.6" y="41.3" fill="#57606a" font-size="10" text-anchor="middle">72</text>
  <rect x="115.6" y="40.0" width="9.5" height="195.0" fill="#0969da" opacity="0.35" rx="2"/>
  <text x="120.3" y="36.0" fill="#57606a" font-size="10" text-anchor="middle">74</text>
  <rect x="137.4" y="153.3" width="9.5" height="81.7" fill="#0969da" opacity="0.35" rx="2"/>
  <text x="142.1" y="149.3" fill="#57606a" font-size="10" text-anchor="middle">31</text>
  <rect x="159.2" y="171.8" width="9.5" height="63.2" fill="#0969da" opacity="0.35" rx="2"/>
  <text x="163.9" y="167.8" fill="#57606a" font-size="10" text-anchor="middle">24</text>
  <rect x="180.9" y="142.8" width="9.5" height="92.2" fill="#0969da" opacity="0.35" rx="2"/>
  <text x="185.7" y="138.8" fill="#57606a" font-size="10" text-anchor="middle">35</text>
  <rect x="202.7" y="187.6" width="9.5" height="47.4" fill="#0969da" opacity="0.35" rx="2"/>
  <text x="207.5" y="183.6" fill="#57606a" font-size="10" text-anchor="middle">18</text>
  <rect x="224.5" y="179.7" width="9.5" height="55.3" fill="#0969da" opacity="0.35" rx="2"/>
  <text x="229.2" y="175.7" fill="#57606a" font-size="10" text-anchor="middle">21</text>
  <rect x="246.3" y="171.8" width="9.5" height="63.2" fill="#0969da" opacity="0.35" rx="2"/>
  <text x="251.0" y="167.8" fill="#57606a" font-size="10" text-anchor="middle">24</text>
  <rect x="268.1" y="192.8" width="9.5" height="42.2" fill="#0969da" opacity="0.35" rx="2"/>
  <text x="272.8" y="188.8" fill="#57606a" font-size="10" text-anchor="middle">16</text>
  <rect x="289.8" y="161.2" width="9.5" height="73.8" fill="#0969da" opacity="0.35" rx="2"/>
  <text x="294.6" y="157.2" fill="#57606a" font-size="10" text-anchor="middle">28</text>
  <rect x="311.6" y="187.6" width="9.5" height="47.4" fill="#0969da" opacity="0.35" rx="2"/>
  <text x="316.4" y="183.6" fill="#57606a" font-size="10" text-anchor="middle">18</text>
  <rect x="333.4" y="179.7" width="9.5" height="55.3" fill="#0969da" opacity="0.35" rx="2"/>
  <text x="338.2" y="175.7" fill="#57606a" font-size="10" text-anchor="middle">21</text>
  <rect x="355.2" y="187.6" width="9.5" height="47.4" fill="#0969da" opacity="0.35" rx="2"/>
  <text x="359.9" y="183.6" fill="#57606a" font-size="10" text-anchor="middle">18</text>
  <rect x="377.0" y="184.9" width="9.5" height="50.1" fill="#0969da" opacity="0.35" rx="2"/>
  <text x="381.7" y="180.9" fill="#57606a" font-size="10" text-anchor="middle">19</text>
  <rect x="398.7" y="174.4" width="9.5" height="60.6" fill="#0969da" opacity="0.35" rx="2"/>
  <text x="403.5" y="170.4" fill="#57606a" font-size="10" text-anchor="middle">23</text>
  <rect x="420.5" y="190.2" width="9.5" height="44.8" fill="#0969da" opacity="0.35" rx="2"/>
  <text x="425.3" y="186.2" fill="#57606a" font-size="10" text-anchor="middle">17</text>
  <rect x="442.3" y="169.1" width="9.5" height="65.9" fill="#0969da" opacity="0.35" rx="2"/>
  <text x="447.1" y="165.1" fill="#57606a" font-size="10" text-anchor="middle">25</text>
  <rect x="464.1" y="161.2" width="9.5" height="73.8" fill="#0969da" opacity="0.35" rx="2"/>
  <text x="468.8" y="157.2" fill="#57606a" font-size="10" text-anchor="middle">28</text>
  <rect x="485.9" y="203.4" width="9.5" height="31.6" fill="#0969da" opacity="0.35" rx="2"/>
  <text x="490.6" y="199.4" fill="#57606a" font-size="10" text-anchor="middle">12</text>
  <rect x="507.7" y="187.6" width="9.5" height="47.4" fill="#0969da" opacity="0.35" rx="2"/>
  <text x="512.4" y="183.6" fill="#57606a" font-size="10" text-anchor="middle">18</text>
  <rect x="529.4" y="179.7" width="9.5" height="55.3" fill="#0969da" opacity="0.35" rx="2"/>
  <text x="534.2" y="175.7" fill="#57606a" font-size="10" text-anchor="middle">21</text>
  <rect x="551.2" y="182.3" width="9.5" height="52.7" fill="#0969da" opacity="0.35" rx="2"/>
  <text x="556.0" y="178.3" fill="#57606a" font-size="10" text-anchor="middle">20</text>
  <rect x="573.0" y="192.8" width="9.5" height="42.2" fill="#0969da" opacity="0.35" rx="2"/>
  <text x="577.8" y="188.8" fill="#57606a" font-size="10" text-anchor="middle">16</text>
  <rect x="594.8" y="179.7" width="9.5" height="55.3" fill="#0969da" opacity="0.35" rx="2"/>
  <text x="599.5" y="175.7" fill="#57606a" font-size="10" text-anchor="middle">21</text>
  <rect x="616.6" y="195.5" width="9.5" height="39.5" fill="#0969da" opacity="0.35" rx="2"/>
  <text x="621.3" y="191.5" fill="#57606a" font-size="10" text-anchor="middle">15</text>
  <rect x="638.3" y="203.4" width="9.5" height="31.6" fill="#0969da" opacity="0.35" rx="2"/>
  <text x="643.1" y="199.4" fill="#57606a" font-size="10" text-anchor="middle">12</text>
  <rect x="660.1" y="200.7" width="9.5" height="34.3" fill="#0969da" opacity="0.35" rx="2"/>
  <text x="664.9" y="196.7" fill="#57606a" font-size="10" text-anchor="middle">13</text>
  <rect x="681.9" y="198.1" width="9.5" height="36.9" fill="#0969da" opacity="0.35" rx="2"/>
  <text x="686.7" y="194.1" fill="#57606a" font-size="10" text-anchor="middle">14</text>
  <rect x="703.7" y="211.3" width="9.5" height="23.7" fill="#0969da" opacity="0.35" rx="2"/>
  <text x="708.4" y="207.3" fill="#57606a" font-size="10" text-anchor="middle">9</text>
  <rect x="725.5" y="198.1" width="9.5" height="36.9" fill="#0969da" opacity="0.35" rx="2"/>
  <text x="730.2" y="194.1" fill="#57606a" font-size="10" text-anchor="middle">14</text>
  <rect x="747.2" y="208.6" width="9.5" height="26.4" fill="#0969da" opacity="0.35" rx="2"/>
  <text x="752.0" y="204.6" fill="#57606a" font-size="10" text-anchor="middle">10</text>
  <polygon points="55.0,235 55.0,232.5 76.8,215.8 98.6,197.9 120.3,179.5 142.1,171.8 163.9,165.9 185.7,157.1 207.5,152.7 229.2,147.4 251.0,141.5 272.8,137.5 294.6,130.5 316.4,126.1 338.2,120.8 359.9,116.4 381.7,111.6 403.5,105.9 425.3,101.7 447.1,95.5 468.8,88.5 490.6,85.5 512.4,81.0 534.2,75.8 556.0,70.8 577.8,66.9 599.5,61.6 621.3,57.9 643.1,54.9 664.9,51.7 686.7,48.2 708.4,46.0 730.2,42.5 752.0,40.0 752.0,235" fill="#0969da" opacity="0.15"/>
  <polyline points="55.0,232.5 76.8,215.8 98.6,197.9 120.3,179.5 142.1,171.8 163.9,165.9 185.7,157.1 207.5,152.7 229.2,147.4 251.0,141.5 272.8,137.5 294.6,130.5 316.4,126.1 338.2,120.8 359.9,116.4 381.7,111.6 403.5,105.9 425.3,101.7 447.1,95.5 468.8,88.5 490.6,85.5 512.4,81.0 534.2,75.8 556.0,70.8 577.8,66.9 599.5,61.6 621.3,57.9 643.1,54.9 664.9,51.7 686.7,48.2 708.4,46.0 730.2,42.5 752.0,40.0" fill="none" stroke="#0969da" stroke-width="2" stroke-linejoin="round"/>
  <circle cx="55.0" cy="232.5" r="4" fill="#0969da" stroke="#ffffff" stroke-width="2"/>
  <circle cx="752.0" cy="40.0" r="4" fill="#0969da" stroke="#ffffff" stroke-width="2"/>
  <text x="758" y="239.0" fill="#57606a" font-size="11" text-anchor="start">0</text>
  <text x="758" y="200.0" fill="#57606a" font-size="11" text-anchor="start">14</text>
  <text x="758" y="161.0" fill="#57606a" font-size="11" text-anchor="start">29</text>
  <text x="758" y="122.0" fill="#57606a" font-size="11" text-anchor="start">44</text>
  <text x="758" y="83.0" fill="#57606a" font-size="11" text-anchor="start">59</text>
  <text x="758" y="44.0" fill="#57606a" font-size="11" text-anchor="start">74</text>
  <text x="55.0" y="272" fill="#57606a" font-size="11" text-anchor="middle">05-20</text>
  <line x1="55.0" y1="235" x2="55.0" y2="239" stroke="#57606a" stroke-width="1"/>
  <text x="163.9" y="272" fill="#57606a" font-size="11" text-anchor="middle">05-27</text>
  <line x1="163.9" y1="235" x2="163.9" y2="239" stroke="#57606a" stroke-width="1"/>
  <text x="272.8" y="272" fill="#57606a" font-size="11" text-anchor="middle">06-01</text>
  <line x1="272.8" y1="235" x2="272.8" y2="239" stroke="#57606a" stroke-width="1"/>
  <text x="381.7" y="272" fill="#57606a" font-size="11" text-anchor="middle">06-06</text>
  <line x1="381.7" y1="235" x2="381.7" y2="239" stroke="#57606a" stroke-width="1"/>
  <text x="490.6" y="272" fill="#57606a" font-size="11" text-anchor="middle">06-12</text>
  <line x1="490.6" y1="235" x2="490.6" y2="239" stroke="#57606a" stroke-width="1"/>
  <text x="599.5" y="272" fill="#57606a" font-size="11" text-anchor="middle">06-17</text>
  <line x1="599.5" y1="235" x2="599.5" y2="239" stroke="#57606a" stroke-width="1"/>
  <text x="708.4" y="272" fill="#57606a" font-size="11" text-anchor="middle">06-22</text>
  <line x1="708.4" y1="235" x2="708.4" y2="239" stroke="#57606a" stroke-width="1"/>
  <text x="752.0" y="272" fill="#57606a" font-size="11" text-anchor="middle">06-24</text>
  <line x1="752.0" y1="235" x2="752.0" y2="239" stroke="#57606a" stroke-width="1"/>
  <text x="400" y="22" fill="#1f2328" font-size="14" font-weight="bold" text-anchor="middle">累计：助记 784 词</text>
  <rect x="552" y="30" width="10" height="3" fill="#0969da"/>
  <text x="566" y="34" fill="#57606a" font-size="11">累计助记</text>
  <rect x="624" y="28" width="9" height="7" fill="#0969da" opacity="0.5"/>
  <text x="637" y="34" fill="#57606a" font-size="11">每日新增</text>
  <line x1="55" y1="40" x2="55" y2="235" stroke="#d0d7de" stroke-width="1"/>
  <line x1="55" y1="235" x2="752" y2="235" stroke="#d0d7de" stroke-width="1"/>
</svg>
