<svg width="800" height="280" xmlns="http://www.w3.org/2000/svg" viewBox="0 0 800 280" font-family="-apple-system, BlinkMacSystemFont, 'Segoe UI', 'PingFang SC', 'Hiragino Sans GB', 'Microsoft YaHei', 'Noto Sans CJK SC', sans-serif">
  <rect width="800" height="280" fill="#ffffff"/>
  <line x1="55" y1="235.0" x2="752" y2="235.0" stroke="#eaeef2" stroke-width="1"/>
  <text x="49" y="239.0" fill="#57606a" font-size="11" text-anchor="end">0</text>
  <line x1="55" y1="196.0" x2="752" y2="196.0" stroke="#eaeef2" stroke-width="1"/>
  <text x="49" y="200.0" fill="#57606a" font-size="11" text-anchor="end">142</text>
  <line x1="55" y1="157.0" x2="752" y2="157.0" stroke="#eaeef2" stroke-width="1"/>
  <text x="49" y="161.0" fill="#57606a" font-size="11" text-anchor="end">285</text>
  <line x1="55" y1="118.0" x2="752" y2="118.0" stroke="#eaeef2" stroke-width="1"/>
  <text x="49" y="122.0" fill="#57606a" font-size="11" text-anchor="end">427</text>
  <line x1="55" y1="79.0" x2="752" y2="79.0" stroke="#eaeef2" stroke-width="1"/>
  <text x="49" y="83.0" fill="#57606a" font-size="11" text-anchor="end">570</text>
  <line x1="55" y1="40.0" x2="752" y2="40.0" stroke="#eaeef2" stroke-width="1"/>
  <text x="49" y="44.0" fill="#57606a" font-size="11" text-anchor="end">713</text>
  <rect x="49.2" y="208.6" width="11.6" height="26.4" fill="#0969da" opacity="0.35" rx="2"/>
  <text x="55.0" y="204.6" fill="#57606a" font-size="10" text-anchor="middle">10</text>
  <rect x="76.0" y="58.4" width="11.6" height="176.6" fill="#0969da" opacity="0.35" rx="2"/>
  <text x="81.8" y="54.4" fill="#57606a" font-size="10" text-anchor="middle">67</text>
  <rect x="102.8" y="45.3" width="11.6" height="189.7" fill="#0969da" opacity="0.35" rx="2"/>
  <text x="108.6" y="41.3" fill="#57606a" font-size="10" text-anchor="middle">72</text>
  <rect x="129.6" y="40.0" width="11.6" height="195.0" fill="#0969da" opacity="0.35" rx="2"/>
  <text x="135.4" y="36.0" fill="#57606a" font-size="10" text-anchor="middle">74</text>
  <rect x="156.4" y="153.3" width="11.6" height="81.7" fill="#0969da" opacity="0.35" rx="2"/>
  <text x="162.2" y="149.3" fill="#57606a" font-size="10" text-anchor="middle">31</text>
  <rect x="183.2" y="171.8" width="11.6" height="63.2" fill="#0969da" opacity="0.35" rx="2"/>
  <text x="189.0" y="167.8" fill="#57606a" font-size="10" text-anchor="middle">24</text>
  <rect x="210.0" y="142.8" width="11.6" height="92.2" fill="#0969da" opacity="0.35" rx="2"/>
  <text x="215.8" y="138.8" fill="#57606a" font-size="10" text-anchor="middle">35</text>
  <rect x="236.8" y="187.6" width="11.6" height="47.4" fill="#0969da" opacity="0.35" rx="2"/>
  <text x="242.7" y="183.6" fill="#57606a" font-size="10" text-anchor="middle">18</text>
  <rect x="263.7" y="179.7" width="11.6" height="55.3" fill="#0969da" opacity="0.35" rx="2"/>
  <text x="269.5" y="175.7" fill="#57606a" font-size="10" text-anchor="middle">21</text>
  <rect x="290.5" y="171.8" width="11.6" height="63.2" fill="#0969da" opacity="0.35" rx="2"/>
  <text x="296.3" y="167.8" fill="#57606a" font-size="10" text-anchor="middle">24</text>
  <rect x="317.3" y="192.8" width="11.6" height="42.2" fill="#0969da" opacity="0.35" rx="2"/>
  <text x="323.1" y="188.8" fill="#57606a" font-size="10" text-anchor="middle">16</text>
  <rect x="344.1" y="158.6" width="11.6" height="76.4" fill="#0969da" opacity="0.35" rx="2"/>
  <text x="349.9" y="154.6" fill="#57606a" font-size="10" text-anchor="middle">29</text>
  <rect x="370.9" y="187.6" width="11.6" height="47.4" fill="#0969da" opacity="0.35" rx="2"/>
  <text x="376.7" y="183.6" fill="#57606a" font-size="10" text-anchor="middle">18</text>
  <rect x="397.7" y="179.7" width="11.6" height="55.3" fill="#0969da" opacity="0.35" rx="2"/>
  <text x="403.5" y="175.7" fill="#57606a" font-size="10" text-anchor="middle">21</text>
  <rect x="424.5" y="187.6" width="11.6" height="47.4" fill="#0969da" opacity="0.35" rx="2"/>
  <text x="430.3" y="183.6" fill="#57606a" font-size="10" text-anchor="middle">18</text>
  <rect x="451.3" y="184.9" width="11.6" height="50.1" fill="#0969da" opacity="0.35" rx="2"/>
  <text x="457.1" y="180.9" fill="#57606a" font-size="10" text-anchor="middle">19</text>
  <rect x="478.1" y="174.4" width="11.6" height="60.6" fill="#0969da" opacity="0.35" rx="2"/>
  <text x="483.9" y="170.4" fill="#57606a" font-size="10" text-anchor="middle">23</text>
  <rect x="504.9" y="190.2" width="11.6" height="44.8" fill="#0969da" opacity="0.35" rx="2"/>
  <text x="510.7" y="186.2" fill="#57606a" font-size="10" text-anchor="middle">17</text>
  <rect x="531.7" y="169.1" width="11.6" height="65.9" fill="#0969da" opacity="0.35" rx="2"/>
  <text x="537.5" y="165.1" fill="#57606a" font-size="10" text-anchor="middle">25</text>
  <rect x="558.5" y="161.2" width="11.6" height="73.8" fill="#0969da" opacity="0.35" rx="2"/>
  <text x="564.3" y="157.2" fill="#57606a" font-size="10" text-anchor="middle">28</text>
  <rect x="585.3" y="203.4" width="11.6" height="31.6" fill="#0969da" opacity="0.35" rx="2"/>
  <text x="591.2" y="199.4" fill="#57606a" font-size="10" text-anchor="middle">12</text>
  <rect x="612.2" y="187.6" width="11.6" height="47.4" fill="#0969da" opacity="0.35" rx="2"/>
  <text x="618.0" y="183.6" fill="#57606a" font-size="10" text-anchor="middle">18</text>
  <rect x="639.0" y="179.7" width="11.6" height="55.3" fill="#0969da" opacity="0.35" rx="2"/>
  <text x="644.8" y="175.7" fill="#57606a" font-size="10" text-anchor="middle">21</text>
  <rect x="665.8" y="182.3" width="11.6" height="52.7" fill="#0969da" opacity="0.35" rx="2"/>
  <text x="671.6" y="178.3" fill="#57606a" font-size="10" text-anchor="middle">20</text>
  <rect x="692.6" y="192.8" width="11.6" height="42.2" fill="#0969da" opacity="0.35" rx="2"/>
  <text x="698.4" y="188.8" fill="#57606a" font-size="10" text-anchor="middle">16</text>
  <rect x="719.4" y="179.7" width="11.6" height="55.3" fill="#0969da" opacity="0.35" rx="2"/>
  <text x="725.2" y="175.7" fill="#57606a" font-size="10" text-anchor="middle">21</text>
  <rect x="746.2" y="195.5" width="11.6" height="39.5" fill="#0969da" opacity="0.35" rx="2"/>
  <text x="752.0" y="191.5" fill="#57606a" font-size="10" text-anchor="middle">15</text>
  <polygon points="55.0,235 55.0,232.3 81.8,213.9 108.6,194.2 135.4,174.0 162.2,165.5 189.0,159.0 215.8,149.4 242.7,144.5 269.5,138.7 296.3,132.2 323.1,127.8 349.9,119.9 376.7,114.9 403.5,109.2 430.3,104.3 457.1,99.1 483.9,92.8 510.7,88.1 537.5,81.3 564.3,73.6 591.2,70.4 618.0,65.4 644.8,59.7 671.6,54.2 698.4,49.8 725.2,44.1 752.0,40.0 752.0,235" fill="#0969da" opacity="0.15"/>
  <polyline points="55.0,232.3 81.8,213.9 108.6,194.2 135.4,174.0 162.2,165.5 189.0,159.0 215.8,149.4 242.7,144.5 269.5,138.7 296.3,132.2 323.1,127.8 349.9,119.9 376.7,114.9 403.5,109.2 430.3,104.3 457.1,99.1 483.9,92.8 510.7,88.1 537.5,81.3 564.3,73.6 591.2,70.4 618.0,65.4 644.8,59.7 671.6,54.2 698.4,49.8 725.2,44.1 752.0,40.0" fill="none" stroke="#0969da" stroke-width="2" stroke-linejoin="round"/>
  <circle cx="55.0" cy="232.3" r="4" fill="#0969da" stroke="#ffffff" stroke-width="2"/>
  <circle cx="752.0" cy="40.0" r="4" fill="#0969da" stroke="#ffffff" stroke-width="2"/>
  <text x="758" y="239.0" fill="#57606a" font-size="11" text-anchor="start">0</text>
  <text x="758" y="200.0" fill="#57606a" font-size="11" text-anchor="start">14</text>
  <text x="758" y="161.0" fill="#57606a" font-size="11" text-anchor="start">29</text>
  <text x="758" y="122.0" fill="#57606a" font-size="11" text-anchor="start">44</text>
  <text x="758" y="83.0" fill="#57606a" font-size="11" text-anchor="start">59</text>
  <text x="758" y="44.0" fill="#57606a" font-size="11" text-anchor="start">74</text>
  <text x="55.0" y="272" fill="#57606a" font-size="11" text-anchor="middle">05-20</text>
  <line x1="55.0" y1="235" x2="55.0" y2="239" stroke="#57606a" stroke-width="1"/>
  <text x="162.2" y="272" fill="#57606a" font-size="11" text-anchor="middle">05-26</text>
  <line x1="162.2" y1="235" x2="162.2" y2="239" stroke="#57606a" stroke-width="1"/>
  <text x="269.5" y="272" fill="#57606a" font-size="11" text-anchor="middle">05-30</text>
  <line x1="269.5" y1="235" x2="269.5" y2="239" stroke="#57606a" stroke-width="1"/>
  <text x="376.7" y="272" fill="#57606a" font-size="11" text-anchor="middle">06-03</text>
  <line x1="376.7" y1="235" x2="376.7" y2="239" stroke="#57606a" stroke-width="1"/>
  <text x="483.9" y="272" fill="#57606a" font-size="11" text-anchor="middle">06-08</text>
  <line x1="483.9" y1="235" x2="483.9" y2="239" stroke="#57606a" stroke-width="1"/>
  <text x="591.2" y="272" fill="#57606a" font-size="11" text-anchor="middle">06-12</text>
  <line x1="591.2" y1="235" x2="591.2" y2="239" stroke="#57606a" stroke-width="1"/>
  <text x="698.4" y="272" fill="#57606a" font-size="11" text-anchor="middle">06-16</text>
  <line x1="698.4" y1="235" x2="698.4" y2="239" stroke="#57606a" stroke-width="1"/>
  <text x="752.0" y="272" fill="#57606a" font-size="11" text-anchor="middle">06-18</text>
  <line x1="752.0" y1="235" x2="752.0" y2="239" stroke="#57606a" stroke-width="1"/>
  <text x="400" y="22" fill="#1f2328" font-size="14" font-weight="bold" text-anchor="middle">累计：助记 713 词</text>
  <rect x="552" y="30" width="10" height="3" fill="#0969da"/>
  <text x="566" y="34" fill="#57606a" font-size="11">累计助记</text>
  <rect x="624" y="28" width="9" height="7" fill="#0969da" opacity="0.5"/>
  <text x="637" y="34" fill="#57606a" font-size="11">每日新增</text>
  <line x1="55" y1="40" x2="55" y2="235" stroke="#d0d7de" stroke-width="1"/>
  <line x1="55" y1="235" x2="752" y2="235" stroke="#d0d7de" stroke-width="1"/>
</svg>
