<svg width="800" height="280" xmlns="http://www.w3.org/2000/svg" viewBox="0 0 800 280" font-family="-apple-system, BlinkMacSystemFont, 'Segoe UI', 'PingFang SC', 'Hiragino Sans GB', 'Microsoft YaHei', 'Noto Sans CJK SC', sans-serif">
  <rect width="800" height="280" fill="#ffffff"/>
  <line x1="55" y1="235.0" x2="752" y2="235.0" stroke="#eaeef2" stroke-width="1"/>
  <text x="49" y="239.0" fill="#57606a" font-size="11" text-anchor="end">0</text>
  <line x1="55" y1="196.0" x2="752" y2="196.0" stroke="#eaeef2" stroke-width="1"/>
  <text x="49" y="200.0" fill="#57606a" font-size="11" text-anchor="end">165</text>
  <line x1="55" y1="157.0" x2="752" y2="157.0" stroke="#eaeef2" stroke-width="1"/>
  <text x="49" y="161.0" fill="#57606a" font-size="11" text-anchor="end">331</text>
  <line x1="55" y1="118.0" x2="752" y2="118.0" stroke="#eaeef2" stroke-width="1"/>
  <text x="49" y="122.0" fill="#57606a" font-size="11" text-anchor="end">496</text>
  <line x1="55" y1="79.0" x2="752" y2="79.0" stroke="#eaeef2" stroke-width="1"/>
  <text x="49" y="83.0" fill="#57606a" font-size="11" text-anchor="end">662</text>
  <line x1="55" y1="40.0" x2="752" y2="40.0" stroke="#eaeef2" stroke-width="1"/>
  <text x="49" y="44.0" fill="#57606a" font-size="11" text-anchor="end">828</text>
  <rect x="50.6" y="208.6" width="8.7" height="26.4" fill="#0969da" opacity="0.35" rx="2"/>
  <text x="55.0" y="204.6" fill="#57606a" font-size="10" text-anchor="middle">10</text>
  <rect x="70.6" y="58.4" width="8.7" height="176.6" fill="#0969da" opacity="0.35" rx="2"/>
  <text x="74.9" y="54.4" fill="#57606a" font-size="10" text-anchor="middle">67</text>
  <rect x="90.5" y="45.3" width="8.7" height="189.7" fill="#0969da" opacity="0.35" rx="2"/>
  <text x="94.8" y="41.3" fill="#57606a" font-size="10" text-anchor="middle">72</text>
  <rect x="110.4" y="40.0" width="8.7" height="195.0" fill="#0969da" opacity="0.35" rx="2"/>
  <text x="114.7" y="36.0" fill="#57606a" font-size="10" text-anchor="middle">74</text>
  <rect x="130.3" y="153.3" width="8.7" height="81.7" fill="#0969da" opacity="0.35" rx="2"/>
  <text x="134.7" y="149.3" fill="#57606a" font-size="10" text-anchor="middle">31</text>
  <rect x="150.2" y="171.8" width="8.7" height="63.2" fill="#0969da" opacity="0.35" rx="2"/>
  <text x="154.6" y="167.8" fill="#57606a" font-size="10" text-anchor="middle">24</text>
  <rect x="170.1" y="142.8" width="8.7" height="92.2" fill="#0969da" opacity="0.35" rx="2"/>
  <text x="174.5" y="138.8" fill="#57606a" font-size="10" text-anchor="middle">35</text>
  <rect x="190.0" y="187.6" width="8.7" height="47.4" fill="#0969da" opacity="0.35" rx="2"/>
  <text x="194.4" y="183.6" fill="#57606a" font-size="10" text-anchor="middle">18</text>
  <rect x="210.0" y="179.7" width="8.7" height="55.3" fill="#0969da" opacity="0.35" rx="2"/>
  <text x="214.3" y="175.7" fill="#57606a" font-size="10" text-anchor="middle">21</text>
  <rect x="229.9" y="171.8" width="8.7" height="63.2" fill="#0969da" opacity="0.35" rx="2"/>
  <text x="234.2" y="167.8" fill="#57606a" font-size="10" text-anchor="middle">24</text>
  <rect x="249.8" y="192.8" width="8.7" height="42.2" fill="#0969da" opacity="0.35" rx="2"/>
  <text x="254.1" y="188.8" fill="#57606a" font-size="10" text-anchor="middle">16</text>
  <rect x="269.7" y="161.2" width="8.7" height="73.8" fill="#0969da" opacity="0.35" rx="2"/>
  <text x="274.1" y="157.2" fill="#57606a" font-size="10" text-anchor="middle">28</text>
  <rect x="289.6" y="187.6" width="8.7" height="47.4" fill="#0969da" opacity="0.35" rx="2"/>
  <text x="294.0" y="183.6" fill="#57606a" font-size="10" text-anchor="middle">18</text>
  <rect x="309.5" y="179.7" width="8.7" height="55.3" fill="#0969da" opacity="0.35" rx="2"/>
  <text x="313.9" y="175.7" fill="#57606a" font-size="10" text-anchor="middle">21</text>
  <rect x="329.4" y="187.6" width="8.7" height="47.4" fill="#0969da" opacity="0.35" rx="2"/>
  <text x="333.8" y="183.6" fill="#57606a" font-size="10" text-anchor="middle">18</text>
  <rect x="349.4" y="184.9" width="8.7" height="50.1" fill="#0969da" opacity="0.35" rx="2"/>
  <text x="353.7" y="180.9" fill="#57606a" font-size="10" text-anchor="middle">19</text>
  <rect x="369.3" y="174.4" width="8.7" height="60.6" fill="#0969da" opacity="0.35" rx="2"/>
  <text x="373.6" y="170.4" fill="#57606a" font-size="10" text-anchor="middle">23</text>
  <rect x="389.2" y="190.2" width="8.7" height="44.8" fill="#0969da" opacity="0.35" rx="2"/>
  <text x="393.5" y="186.2" fill="#57606a" font-size="10" text-anchor="middle">17</text>
  <rect x="409.1" y="169.1" width="8.7" height="65.9" fill="#0969da" opacity="0.35" rx="2"/>
  <text x="413.5" y="165.1" fill="#57606a" font-size="10" text-anchor="middle">25</text>
  <rect x="429.0" y="161.2" width="8.7" height="73.8" fill="#0969da" opacity="0.35" rx="2"/>
  <text x="433.4" y="157.2" fill="#57606a" font-size="10" text-anchor="middle">28</text>
  <rect x="448.9" y="203.4" width="8.7" height="31.6" fill="#0969da" opacity="0.35" rx="2"/>
  <text x="453.3" y="199.4" fill="#57606a" font-size="10" text-anchor="middle">12</text>
  <rect x="468.8" y="187.6" width="8.7" height="47.4" fill="#0969da" opacity="0.35" rx="2"/>
  <text x="473.2" y="183.6" fill="#57606a" font-size="10" text-anchor="middle">18</text>
  <rect x="488.8" y="179.7" width="8.7" height="55.3" fill="#0969da" opacity="0.35" rx="2"/>
  <text x="493.1" y="175.7" fill="#57606a" font-size="10" text-anchor="middle">21</text>
  <rect x="508.7" y="182.3" width="8.7" height="52.7" fill="#0969da" opacity="0.35" rx="2"/>
  <text x="513.0" y="178.3" fill="#57606a" font-size="10" text-anchor="middle">20</text>
  <rect x="528.6" y="192.8" width="8.7" height="42.2" fill="#0969da" opacity="0.35" rx="2"/>
  <text x="532.9" y="188.8" fill="#57606a" font-size="10" text-anchor="middle">16</text>
  <rect x="548.5" y="179.7" width="8.7" height="55.3" fill="#0969da" opacity="0.35" rx="2"/>
  <text x="552.9" y="175.7" fill="#57606a" font-size="10" text-anchor="middle">21</text>
  <rect x="568.4" y="195.5" width="8.7" height="39.5" fill="#0969da" opacity="0.35" rx="2"/>
  <text x="572.8" y="191.5" fill="#57606a" font-size="10" text-anchor="middle">15</text>
  <rect x="588.3" y="203.4" width="8.7" height="31.6" fill="#0969da" opacity="0.35" rx="2"/>
  <text x="592.7" y="199.4" fill="#57606a" font-size="10" text-anchor="middle">12</text>
  <rect x="608.2" y="200.7" width="8.7" height="34.3" fill="#0969da" opacity="0.35" rx="2"/>
  <text x="612.6" y="196.7" fill="#57606a" font-size="10" text-anchor="middle">13</text>
  <rect x="628.2" y="198.1" width="8.7" height="36.9" fill="#0969da" opacity="0.35" rx="2"/>
  <text x="632.5" y="194.1" fill="#57606a" font-size="10" text-anchor="middle">14</text>
  <rect x="648.1" y="211.3" width="8.7" height="23.7" fill="#0969da" opacity="0.35" rx="2"/>
  <text x="652.4" y="207.3" fill="#57606a" font-size="10" text-anchor="middle">9</text>
  <rect x="668.0" y="198.1" width="8.7" height="36.9" fill="#0969da" opacity="0.35" rx="2"/>
  <text x="672.3" y="194.1" fill="#57606a" font-size="10" text-anchor="middle">14</text>
  <rect x="687.9" y="208.6" width="8.7" height="26.4" fill="#0969da" opacity="0.35" rx="2"/>
  <text x="692.3" y="204.6" fill="#57606a" font-size="10" text-anchor="middle">10</text>
  <rect x="707.8" y="187.6" width="8.7" height="47.4" fill="#0969da" opacity="0.35" rx="2"/>
  <text x="712.2" y="183.6" fill="#57606a" font-size="10" text-anchor="middle">18</text>
  <rect x="727.7" y="200.7" width="8.7" height="34.3" fill="#0969da" opacity="0.35" rx="2"/>
  <text x="732.1" y="196.7" fill="#57606a" font-size="10" text-anchor="middle">13</text>
  <rect x="747.6" y="200.7" width="8.7" height="34.3" fill="#0969da" opacity="0.35" rx="2"/>
  <text x="752.0" y="196.7" fill="#57606a" font-size="10" text-anchor="middle">13</text>
  <polygon points="55.0,235 55.0,232.6 74.9,216.9 94.8,199.9 114.7,182.5 134.7,175.2 154.6,169.5 174.5,161.3 194.4,157.0 214.3,152.1 234.2,146.4 254.1,142.7 274.1,136.1 294.0,131.8 313.9,126.9 333.8,122.7 353.7,118.2 373.6,112.8 393.5,108.8 413.5,102.9 433.4,96.3 453.3,93.5 473.2,89.2 493.1,84.3 513.0,79.6 532.9,75.8 552.9,70.9 572.8,67.3 592.7,64.5 612.6,61.4 632.5,58.1 652.4,56.0 672.3,52.7 692.3,50.4 712.2,46.1 732.1,43.1 752.0,40.0 752.0,235" fill="#0969da" opacity="0.15"/>
  <polyline points="55.0,232.6 74.9,216.9 94.8,199.9 114.7,182.5 134.7,175.2 154.6,169.5 174.5,161.3 194.4,157.0 214.3,152.1 234.2,146.4 254.1,142.7 274.1,136.1 294.0,131.8 313.9,126.9 333.8,122.7 353.7,118.2 373.6,112.8 393.5,108.8 413.5,102.9 433.4,96.3 453.3,93.5 473.2,89.2 493.1,84.3 513.0,79.6 532.9,75.8 552.9,70.9 572.8,67.3 592.7,64.5 612.6,61.4 632.5,58.1 652.4,56.0 672.3,52.7 692.3,50.4 712.2,46.1 732.1,43.1 752.0,40.0" fill="none" stroke="#0969da" stroke-width="2" stroke-linejoin="round"/>
  <circle cx="55.0" cy="232.6" r="4" fill="#0969da" stroke="#ffffff" stroke-width="2"/>
  <circle cx="752.0" cy="40.0" r="4" fill="#0969da" stroke="#ffffff" stroke-width="2"/>
  <text x="758" y="239.0" fill="#57606a" font-size="11" text-anchor="start">0</text>
  <text x="758" y="200.0" fill="#57606a" font-size="11" text-anchor="start">14</text>
  <text x="758" y="161.0" fill="#57606a" font-size="11" text-anchor="start">29</text>
  <text x="758" y="122.0" fill="#57606a" font-size="11" text-anchor="start">44</text>
  <text x="758" y="83.0" fill="#57606a" font-size="11" text-anchor="start">59</text>
  <text x="758" y="44.0" fill="#57606a" font-size="11" text-anchor="start">74</text>
  <text x="55.0" y="272" fill="#57606a" font-size="11" text-anchor="middle">05-20</text>
  <line x1="55.0" y1="235" x2="55.0" y2="239" stroke="#57606a" stroke-width="1"/>
  <text x="174.5" y="272" fill="#57606a" font-size="11" text-anchor="middle">05-28</text>
  <line x1="174.5" y1="235" x2="174.5" y2="239" stroke="#57606a" stroke-width="1"/>
  <text x="294.0" y="272" fill="#57606a" font-size="11" text-anchor="middle">06-03</text>
  <line x1="294.0" y1="235" x2="294.0" y2="239" stroke="#57606a" stroke-width="1"/>
  <text x="413.5" y="272" fill="#57606a" font-size="11" text-anchor="middle">06-10</text>
  <line x1="413.5" y1="235" x2="413.5" y2="239" stroke="#57606a" stroke-width="1"/>
  <text x="532.9" y="272" fill="#57606a" font-size="11" text-anchor="middle">06-16</text>
  <line x1="532.9" y1="235" x2="532.9" y2="239" stroke="#57606a" stroke-width="1"/>
  <text x="652.4" y="272" fill="#57606a" font-size="11" text-anchor="middle">06-22</text>
  <line x1="652.4" y1="235" x2="652.4" y2="239" stroke="#57606a" stroke-width="1"/>
  <text x="752.0" y="272" fill="#57606a" font-size="11" text-anchor="middle">06-27</text>
  <line x1="752.0" y1="235" x2="752.0" y2="239" stroke="#57606a" stroke-width="1"/>
  <text x="400" y="22" fill="#1f2328" font-size="14" font-weight="bold" text-anchor="middle">累计：助记 828 词</text>
  <rect x="552" y="30" width="10" height="3" fill="#0969da"/>
  <text x="566" y="34" fill="#57606a" font-size="11">累计助记</text>
  <rect x="624" y="28" width="9" height="7" fill="#0969da" opacity="0.5"/>
  <text x="637" y="34" fill="#57606a" font-size="11">每日新增</text>
  <line x1="55" y1="40" x2="55" y2="235" stroke="#d0d7de" stroke-width="1"/>
  <line x1="55" y1="235" x2="752" y2="235" stroke="#d0d7de" stroke-width="1"/>
</svg>
