<svg width="800" height="280" xmlns="http://www.w3.org/2000/svg" viewBox="0 0 800 280" font-family="-apple-system, BlinkMacSystemFont, 'Segoe UI', 'PingFang SC', 'Hiragino Sans GB', 'Microsoft YaHei', 'Noto Sans CJK SC', sans-serif">
  <rect width="800" height="280" fill="#ffffff"/>
  <line x1="55" y1="235.0" x2="752" y2="235.0" stroke="#eaeef2" stroke-width="1"/>
  <text x="49" y="239.0" fill="#57606a" font-size="11" text-anchor="end">0</text>
  <line x1="55" y1="196.0" x2="752" y2="196.0" stroke="#eaeef2" stroke-width="1"/>
  <text x="49" y="200.0" fill="#57606a" font-size="11" text-anchor="end">168</text>
  <line x1="55" y1="157.0" x2="752" y2="157.0" stroke="#eaeef2" stroke-width="1"/>
  <text x="49" y="161.0" fill="#57606a" font-size="11" text-anchor="end">337</text>
  <line x1="55" y1="118.0" x2="752" y2="118.0" stroke="#eaeef2" stroke-width="1"/>
  <text x="49" y="122.0" fill="#57606a" font-size="11" text-anchor="end">506</text>
  <line x1="55" y1="79.0" x2="752" y2="79.0" stroke="#eaeef2" stroke-width="1"/>
  <text x="49" y="83.0" fill="#57606a" font-size="11" text-anchor="end">675</text>
  <line x1="55" y1="40.0" x2="752" y2="40.0" stroke="#eaeef2" stroke-width="1"/>
  <text x="49" y="44.0" fill="#57606a" font-size="11" text-anchor="end">844</text>
  <rect x="50.8" y="208.6" width="8.5" height="26.4" fill="#0969da" opacity="0.35" rx="2"/>
  <text x="55.0" y="204.6" fill="#57606a" font-size="10" text-anchor="middle">10</text>
  <rect x="70.1" y="58.4" width="8.5" height="176.6" fill="#0969da" opacity="0.35" rx="2"/>
  <text x="74.4" y="54.4" fill="#57606a" font-size="10" text-anchor="middle">67</text>
  <rect x="89.5" y="45.3" width="8.5" height="189.7" fill="#0969da" opacity="0.35" rx="2"/>
  <text x="93.7" y="41.3" fill="#57606a" font-size="10" text-anchor="middle">72</text>
  <rect x="108.8" y="40.0" width="8.5" height="195.0" fill="#0969da" opacity="0.35" rx="2"/>
  <text x="113.1" y="36.0" fill="#57606a" font-size="10" text-anchor="middle">74</text>
  <rect x="128.2" y="153.3" width="8.5" height="81.7" fill="#0969da" opacity="0.35" rx="2"/>
  <text x="132.4" y="149.3" fill="#57606a" font-size="10" text-anchor="middle">31</text>
  <rect x="147.6" y="171.8" width="8.5" height="63.2" fill="#0969da" opacity="0.35" rx="2"/>
  <text x="151.8" y="167.8" fill="#57606a" font-size="10" text-anchor="middle">24</text>
  <rect x="166.9" y="142.8" width="8.5" height="92.2" fill="#0969da" opacity="0.35" rx="2"/>
  <text x="171.2" y="138.8" fill="#57606a" font-size="10" text-anchor="middle">35</text>
  <rect x="186.3" y="187.6" width="8.5" height="47.4" fill="#0969da" opacity="0.35" rx="2"/>
  <text x="190.5" y="183.6" fill="#57606a" font-size="10" text-anchor="middle">18</text>
  <rect x="205.7" y="179.7" width="8.5" height="55.3" fill="#0969da" opacity="0.35" rx="2"/>
  <text x="209.9" y="175.7" fill="#57606a" font-size="10" text-anchor="middle">21</text>
  <rect x="225.0" y="171.8" width="8.5" height="63.2" fill="#0969da" opacity="0.35" rx="2"/>
  <text x="229.2" y="167.8" fill="#57606a" font-size="10" text-anchor="middle">24</text>
  <rect x="244.4" y="192.8" width="8.5" height="42.2" fill="#0969da" opacity="0.35" rx="2"/>
  <text x="248.6" y="188.8" fill="#57606a" font-size="10" text-anchor="middle">16</text>
  <rect x="263.7" y="161.2" width="8.5" height="73.8" fill="#0969da" opacity="0.35" rx="2"/>
  <text x="268.0" y="157.2" fill="#57606a" font-size="10" text-anchor="middle">28</text>
  <rect x="283.1" y="187.6" width="8.5" height="47.4" fill="#0969da" opacity="0.35" rx="2"/>
  <text x="287.3" y="183.6" fill="#57606a" font-size="10" text-anchor="middle">18</text>
  <rect x="302.5" y="179.7" width="8.5" height="55.3" fill="#0969da" opacity="0.35" rx="2"/>
  <text x="306.7" y="175.7" fill="#57606a" font-size="10" text-anchor="middle">21</text>
  <rect x="321.8" y="187.6" width="8.5" height="47.4" fill="#0969da" opacity="0.35" rx="2"/>
  <text x="326.1" y="183.6" fill="#57606a" font-size="10" text-anchor="middle">18</text>
  <rect x="341.2" y="184.9" width="8.5" height="50.1" fill="#0969da" opacity="0.35" rx="2"/>
  <text x="345.4" y="180.9" fill="#57606a" font-size="10" text-anchor="middle">19</text>
  <rect x="360.5" y="174.4" width="8.5" height="60.6" fill="#0969da" opacity="0.35" rx="2"/>
  <text x="364.8" y="170.4" fill="#57606a" font-size="10" text-anchor="middle">23</text>
  <rect x="379.9" y="190.2" width="8.5" height="44.8" fill="#0969da" opacity="0.35" rx="2"/>
  <text x="384.1" y="186.2" fill="#57606a" font-size="10" text-anchor="middle">17</text>
  <rect x="399.3" y="169.1" width="8.5" height="65.9" fill="#0969da" opacity="0.35" rx="2"/>
  <text x="403.5" y="165.1" fill="#57606a" font-size="10" text-anchor="middle">25</text>
  <rect x="418.6" y="161.2" width="8.5" height="73.8" fill="#0969da" opacity="0.35" rx="2"/>
  <text x="422.9" y="157.2" fill="#57606a" font-size="10" text-anchor="middle">28</text>
  <rect x="438.0" y="203.4" width="8.5" height="31.6" fill="#0969da" opacity="0.35" rx="2"/>
  <text x="442.2" y="199.4" fill="#57606a" font-size="10" text-anchor="middle">12</text>
  <rect x="457.3" y="187.6" width="8.5" height="47.4" fill="#0969da" opacity="0.35" rx="2"/>
  <text x="461.6" y="183.6" fill="#57606a" font-size="10" text-anchor="middle">18</text>
  <rect x="476.7" y="179.7" width="8.5" height="55.3" fill="#0969da" opacity="0.35" rx="2"/>
  <text x="480.9" y="175.7" fill="#57606a" font-size="10" text-anchor="middle">21</text>
  <rect x="496.1" y="182.3" width="8.5" height="52.7" fill="#0969da" opacity="0.35" rx="2"/>
  <text x="500.3" y="178.3" fill="#57606a" font-size="10" text-anchor="middle">20</text>
  <rect x="515.4" y="192.8" width="8.5" height="42.2" fill="#0969da" opacity="0.35" rx="2"/>
  <text x="519.7" y="188.8" fill="#57606a" font-size="10" text-anchor="middle">16</text>
  <rect x="534.8" y="179.7" width="8.5" height="55.3" fill="#0969da" opacity="0.35" rx="2"/>
  <text x="539.0" y="175.7" fill="#57606a" font-size="10" text-anchor="middle">21</text>
  <rect x="554.2" y="195.5" width="8.5" height="39.5" fill="#0969da" opacity="0.35" rx="2"/>
  <text x="558.4" y="191.5" fill="#57606a" font-size="10" text-anchor="middle">15</text>
  <rect x="573.5" y="203.4" width="8.5" height="31.6" fill="#0969da" opacity="0.35" rx="2"/>
  <text x="577.8" y="199.4" fill="#57606a" font-size="10" text-anchor="middle">12</text>
  <rect x="592.9" y="200.7" width="8.5" height="34.3" fill="#0969da" opacity="0.35" rx="2"/>
  <text x="597.1" y="196.7" fill="#57606a" font-size="10" text-anchor="middle">13</text>
  <rect x="612.2" y="198.1" width="8.5" height="36.9" fill="#0969da" opacity="0.35" rx="2"/>
  <text x="616.5" y="194.1" fill="#57606a" font-size="10" text-anchor="middle">14</text>
  <rect x="631.6" y="211.3" width="8.5" height="23.7" fill="#0969da" opacity="0.35" rx="2"/>
  <text x="635.8" y="207.3" fill="#57606a" font-size="10" text-anchor="middle">9</text>
  <rect x="651.0" y="198.1" width="8.5" height="36.9" fill="#0969da" opacity="0.35" rx="2"/>
  <text x="655.2" y="194.1" fill="#57606a" font-size="10" text-anchor="middle">14</text>
  <rect x="670.3" y="208.6" width="8.5" height="26.4" fill="#0969da" opacity="0.35" rx="2"/>
  <text x="674.6" y="204.6" fill="#57606a" font-size="10" text-anchor="middle">10</text>
  <rect x="689.7" y="187.6" width="8.5" height="47.4" fill="#0969da" opacity="0.35" rx="2"/>
  <text x="693.9" y="183.6" fill="#57606a" font-size="10" text-anchor="middle">18</text>
  <rect x="709.0" y="200.7" width="8.5" height="34.3" fill="#0969da" opacity="0.35" rx="2"/>
  <text x="713.3" y="196.7" fill="#57606a" font-size="10" text-anchor="middle">13</text>
  <rect x="728.4" y="200.7" width="8.5" height="34.3" fill="#0969da" opacity="0.35" rx="2"/>
  <text x="732.6" y="196.7" fill="#57606a" font-size="10" text-anchor="middle">13</text>
  <rect x="747.8" y="192.8" width="8.5" height="42.2" fill="#0969da" opacity="0.35" rx="2"/>
  <text x="752.0" y="188.8" fill="#57606a" font-size="10" text-anchor="middle">16</text>
  <polygon points="55.0,235 55.0,232.7 74.4,217.2 93.7,200.6 113.1,183.5 132.4,176.3 151.8,170.8 171.2,162.7 190.5,158.5 209.9,153.7 229.2,148.1 248.6,144.4 268.0,138.0 287.3,133.8 306.7,129.0 326.1,124.8 345.4,120.4 364.8,115.1 384.1,111.2 403.5,105.4 422.9,98.9 442.2,96.1 461.6,92.0 480.9,87.1 500.3,82.5 519.7,78.8 539.0,74.0 558.4,70.5 577.8,67.7 597.1,64.7 616.5,61.5 635.8,59.4 655.2,56.2 674.6,53.9 693.9,49.7 713.3,46.7 732.6,43.7 752.0,40.0 752.0,235" fill="#0969da" opacity="0.15"/>
  <polyline points="55.0,232.7 74.4,217.2 93.7,200.6 113.1,183.5 132.4,176.3 151.8,170.8 171.2,162.7 190.5,158.5 209.9,153.7 229.2,148.1 248.6,144.4 268.0,138.0 287.3,133.8 306.7,129.0 326.1,124.8 345.4,120.4 364.8,115.1 384.1,111.2 403.5,105.4 422.9,98.9 442.2,96.1 461.6,92.0 480.9,87.1 500.3,82.5 519.7,78.8 539.0,74.0 558.4,70.5 577.8,67.7 597.1,64.7 616.5,61.5 635.8,59.4 655.2,56.2 674.6,53.9 693.9,49.7 713.3,46.7 732.6,43.7 752.0,40.0" fill="none" stroke="#0969da" stroke-width="2" stroke-linejoin="round"/>
  <circle cx="55.0" cy="232.7" r="4" fill="#0969da" stroke="#ffffff" stroke-width="2"/>
  <circle cx="752.0" cy="40.0" r="4" fill="#0969da" stroke="#ffffff" stroke-width="2"/>
  <text x="758" y="239.0" fill="#57606a" font-size="11" text-anchor="start">0</text>
  <text x="758" y="200.0" fill="#57606a" font-size="11" text-anchor="start">14</text>
  <text x="758" y="161.0" fill="#57606a" font-size="11" text-anchor="start">29</text>
  <text x="758" y="122.0" fill="#57606a" font-size="11" text-anchor="start">44</text>
  <text x="758" y="83.0" fill="#57606a" font-size="11" text-anchor="start">59</text>
  <text x="758" y="44.0" fill="#57606a" font-size="11" text-anchor="start">74</text>
  <text x="55.0" y="272" fill="#57606a" font-size="11" text-anchor="middle">05-20</text>
  <line x1="55.0" y1="235" x2="55.0" y2="239" stroke="#57606a" stroke-width="1"/>
  <text x="171.2" y="272" fill="#57606a" font-size="11" text-anchor="middle">05-28</text>
  <line x1="171.2" y1="235" x2="171.2" y2="239" stroke="#57606a" stroke-width="1"/>
  <text x="287.3" y="272" fill="#57606a" font-size="11" text-anchor="middle">06-03</text>
  <line x1="287.3" y1="235" x2="287.3" y2="239" stroke="#57606a" stroke-width="1"/>
  <text x="403.5" y="272" fill="#57606a" font-size="11" text-anchor="middle">06-10</text>
  <line x1="403.5" y1="235" x2="403.5" y2="239" stroke="#57606a" stroke-width="1"/>
  <text x="519.7" y="272" fill="#57606a" font-size="11" text-anchor="middle">06-16</text>
  <line x1="519.7" y1="235" x2="519.7" y2="239" stroke="#57606a" stroke-width="1"/>
  <text x="635.8" y="272" fill="#57606a" font-size="11" text-anchor="middle">06-22</text>
  <line x1="635.8" y1="235" x2="635.8" y2="239" stroke="#57606a" stroke-width="1"/>
  <text x="752.0" y="272" fill="#57606a" font-size="11" text-anchor="middle">06-28</text>
  <line x1="752.0" y1="235" x2="752.0" y2="239" stroke="#57606a" stroke-width="1"/>
  <text x="400" y="22" fill="#1f2328" font-size="14" font-weight="bold" text-anchor="middle">累计：助记 844 词</text>
  <rect x="552" y="30" width="10" height="3" fill="#0969da"/>
  <text x="566" y="34" fill="#57606a" font-size="11">累计助记</text>
  <rect x="624" y="28" width="9" height="7" fill="#0969da" opacity="0.5"/>
  <text x="637" y="34" fill="#57606a" font-size="11">每日新增</text>
  <line x1="55" y1="40" x2="55" y2="235" stroke="#d0d7de" stroke-width="1"/>
  <line x1="55" y1="235" x2="752" y2="235" stroke="#d0d7de" stroke-width="1"/>
</svg>
