<svg width="800" height="280" xmlns="http://www.w3.org/2000/svg" viewBox="0 0 800 280" font-family="-apple-system, BlinkMacSystemFont, 'Segoe UI', 'PingFang SC', 'Hiragino Sans GB', 'Microsoft YaHei', 'Noto Sans CJK SC', sans-serif">
  <rect width="800" height="280" fill="#ffffff"/>
  <line x1="55" y1="235.0" x2="752" y2="235.0" stroke="#eaeef2" stroke-width="1"/>
  <text x="49" y="239.0" fill="#57606a" font-size="11" text-anchor="end">0</text>
  <line x1="55" y1="196.0" x2="752" y2="196.0" stroke="#eaeef2" stroke-width="1"/>
  <text x="49" y="200.0" fill="#57606a" font-size="11" text-anchor="end">174</text>
  <line x1="55" y1="157.0" x2="752" y2="157.0" stroke="#eaeef2" stroke-width="1"/>
  <text x="49" y="161.0" fill="#57606a" font-size="11" text-anchor="end">348</text>
  <line x1="55" y1="118.0" x2="752" y2="118.0" stroke="#eaeef2" stroke-width="1"/>
  <text x="49" y="122.0" fill="#57606a" font-size="11" text-anchor="end">522</text>
  <line x1="55" y1="79.0" x2="752" y2="79.0" stroke="#eaeef2" stroke-width="1"/>
  <text x="49" y="83.0" fill="#57606a" font-size="11" text-anchor="end">696</text>
  <line x1="55" y1="40.0" x2="752" y2="40.0" stroke="#eaeef2" stroke-width="1"/>
  <text x="49" y="44.0" fill="#57606a" font-size="11" text-anchor="end">871</text>
  <rect x="51.1" y="208.6" width="7.8" height="26.4" fill="#0969da" opacity="0.35" rx="2"/>
  <text x="55.0" y="204.6" fill="#57606a" font-size="10" text-anchor="middle">10</text>
  <rect x="69.0" y="58.4" width="7.8" height="176.6" fill="#0969da" opacity="0.35" rx="2"/>
  <text x="72.9" y="54.4" fill="#57606a" font-size="10" text-anchor="middle">67</text>
  <rect x="86.8" y="45.3" width="7.8" height="189.7" fill="#0969da" opacity="0.35" rx="2"/>
  <text x="90.7" y="41.3" fill="#57606a" font-size="10" text-anchor="middle">72</text>
  <rect x="104.7" y="40.0" width="7.8" height="195.0" fill="#0969da" opacity="0.35" rx="2"/>
  <text x="108.6" y="36.0" fill="#57606a" font-size="10" text-anchor="middle">74</text>
  <rect x="122.6" y="153.3" width="7.8" height="81.7" fill="#0969da" opacity="0.35" rx="2"/>
  <text x="126.5" y="149.3" fill="#57606a" font-size="10" text-anchor="middle">31</text>
  <rect x="140.4" y="171.8" width="7.8" height="63.2" fill="#0969da" opacity="0.35" rx="2"/>
  <text x="144.4" y="167.8" fill="#57606a" font-size="10" text-anchor="middle">24</text>
  <rect x="158.3" y="142.8" width="7.8" height="92.2" fill="#0969da" opacity="0.35" rx="2"/>
  <text x="162.2" y="138.8" fill="#57606a" font-size="10" text-anchor="middle">35</text>
  <rect x="176.2" y="187.6" width="7.8" height="47.4" fill="#0969da" opacity="0.35" rx="2"/>
  <text x="180.1" y="183.6" fill="#57606a" font-size="10" text-anchor="middle">18</text>
  <rect x="194.1" y="179.7" width="7.8" height="55.3" fill="#0969da" opacity="0.35" rx="2"/>
  <text x="198.0" y="175.7" fill="#57606a" font-size="10" text-anchor="middle">21</text>
  <rect x="211.9" y="171.8" width="7.8" height="63.2" fill="#0969da" opacity="0.35" rx="2"/>
  <text x="215.8" y="167.8" fill="#57606a" font-size="10" text-anchor="middle">24</text>
  <rect x="229.8" y="192.8" width="7.8" height="42.2" fill="#0969da" opacity="0.35" rx="2"/>
  <text x="233.7" y="188.8" fill="#57606a" font-size="10" text-anchor="middle">16</text>
  <rect x="247.7" y="161.2" width="7.8" height="73.8" fill="#0969da" opacity="0.35" rx="2"/>
  <text x="251.6" y="157.2" fill="#57606a" font-size="10" text-anchor="middle">28</text>
  <rect x="265.5" y="187.6" width="7.8" height="47.4" fill="#0969da" opacity="0.35" rx="2"/>
  <text x="269.5" y="183.6" fill="#57606a" font-size="10" text-anchor="middle">18</text>
  <rect x="283.4" y="179.7" width="7.8" height="55.3" fill="#0969da" opacity="0.35" rx="2"/>
  <text x="287.3" y="175.7" fill="#57606a" font-size="10" text-anchor="middle">21</text>
  <rect x="301.3" y="187.6" width="7.8" height="47.4" fill="#0969da" opacity="0.35" rx="2"/>
  <text x="305.2" y="183.6" fill="#57606a" font-size="10" text-anchor="middle">18</text>
  <rect x="319.2" y="184.9" width="7.8" height="50.1" fill="#0969da" opacity="0.35" rx="2"/>
  <text x="323.1" y="180.9" fill="#57606a" font-size="10" text-anchor="middle">19</text>
  <rect x="337.0" y="174.4" width="7.8" height="60.6" fill="#0969da" opacity="0.35" rx="2"/>
  <text x="340.9" y="170.4" fill="#57606a" font-size="10" text-anchor="middle">23</text>
  <rect x="354.9" y="190.2" width="7.8" height="44.8" fill="#0969da" opacity="0.35" rx="2"/>
  <text x="358.8" y="186.2" fill="#57606a" font-size="10" text-anchor="middle">17</text>
  <rect x="372.8" y="169.1" width="7.8" height="65.9" fill="#0969da" opacity="0.35" rx="2"/>
  <text x="376.7" y="165.1" fill="#57606a" font-size="10" text-anchor="middle">25</text>
  <rect x="390.6" y="161.2" width="7.8" height="73.8" fill="#0969da" opacity="0.35" rx="2"/>
  <text x="394.6" y="157.2" fill="#57606a" font-size="10" text-anchor="middle">28</text>
  <rect x="408.5" y="203.4" width="7.8" height="31.6" fill="#0969da" opacity="0.35" rx="2"/>
  <text x="412.4" y="199.4" fill="#57606a" font-size="10" text-anchor="middle">12</text>
  <rect x="426.4" y="187.6" width="7.8" height="47.4" fill="#0969da" opacity="0.35" rx="2"/>
  <text x="430.3" y="183.6" fill="#57606a" font-size="10" text-anchor="middle">18</text>
  <rect x="444.3" y="179.7" width="7.8" height="55.3" fill="#0969da" opacity="0.35" rx="2"/>
  <text x="448.2" y="175.7" fill="#57606a" font-size="10" text-anchor="middle">21</text>
  <rect x="462.1" y="182.3" width="7.8" height="52.7" fill="#0969da" opacity="0.35" rx="2"/>
  <text x="466.1" y="178.3" fill="#57606a" font-size="10" text-anchor="middle">20</text>
  <rect x="480.0" y="192.8" width="7.8" height="42.2" fill="#0969da" opacity="0.35" rx="2"/>
  <text x="483.9" y="188.8" fill="#57606a" font-size="10" text-anchor="middle">16</text>
  <rect x="497.9" y="179.7" width="7.8" height="55.3" fill="#0969da" opacity="0.35" rx="2"/>
  <text x="501.8" y="175.7" fill="#57606a" font-size="10" text-anchor="middle">21</text>
  <rect x="515.7" y="195.5" width="7.8" height="39.5" fill="#0969da" opacity="0.35" rx="2"/>
  <text x="519.7" y="191.5" fill="#57606a" font-size="10" text-anchor="middle">15</text>
  <rect x="533.6" y="203.4" width="7.8" height="31.6" fill="#0969da" opacity="0.35" rx="2"/>
  <text x="537.5" y="199.4" fill="#57606a" font-size="10" text-anchor="middle">12</text>
  <rect x="551.5" y="200.7" width="7.8" height="34.3" fill="#0969da" opacity="0.35" rx="2"/>
  <text x="555.4" y="196.7" fill="#57606a" font-size="10" text-anchor="middle">13</text>
  <rect x="569.4" y="198.1" width="7.8" height="36.9" fill="#0969da" opacity="0.35" rx="2"/>
  <text x="573.3" y="194.1" fill="#57606a" font-size="10" text-anchor="middle">14</text>
  <rect x="587.2" y="211.3" width="7.8" height="23.7" fill="#0969da" opacity="0.35" rx="2"/>
  <text x="591.2" y="207.3" fill="#57606a" font-size="10" text-anchor="middle">9</text>
  <rect x="605.1" y="198.1" width="7.8" height="36.9" fill="#0969da" opacity="0.35" rx="2"/>
  <text x="609.0" y="194.1" fill="#57606a" font-size="10" text-anchor="middle">14</text>
  <rect x="623.0" y="208.6" width="7.8" height="26.4" fill="#0969da" opacity="0.35" rx="2"/>
  <text x="626.9" y="204.6" fill="#57606a" font-size="10" text-anchor="middle">10</text>
  <rect x="640.8" y="187.6" width="7.8" height="47.4" fill="#0969da" opacity="0.35" rx="2"/>
  <text x="644.8" y="183.6" fill="#57606a" font-size="10" text-anchor="middle">18</text>
  <rect x="658.7" y="200.7" width="7.8" height="34.3" fill="#0969da" opacity="0.35" rx="2"/>
  <text x="662.6" y="196.7" fill="#57606a" font-size="10" text-anchor="middle">13</text>
  <rect x="676.6" y="200.7" width="7.8" height="34.3" fill="#0969da" opacity="0.35" rx="2"/>
  <text x="680.5" y="196.7" fill="#57606a" font-size="10" text-anchor="middle">13</text>
  <rect x="694.5" y="192.8" width="7.8" height="42.2" fill="#0969da" opacity="0.35" rx="2"/>
  <text x="698.4" y="188.8" fill="#57606a" font-size="10" text-anchor="middle">16</text>
  <rect x="712.3" y="206.0" width="7.8" height="29.0" fill="#0969da" opacity="0.35" rx="2"/>
  <text x="716.3" y="202.0" fill="#57606a" font-size="10" text-anchor="middle">11</text>
  <rect x="730.2" y="219.2" width="7.8" height="15.8" fill="#0969da" opacity="0.35" rx="2"/>
  <text x="734.1" y="215.2" fill="#57606a" font-size="10" text-anchor="middle">6</text>
  <rect x="748.1" y="208.6" width="7.8" height="26.4" fill="#0969da" opacity="0.35" rx="2"/>
  <text x="752.0" y="204.6" fill="#57606a" font-size="10" text-anchor="middle">10</text>
  <polygon points="55.0,235 55.0,232.8 72.9,217.8 90.7,201.6 108.6,185.1 126.5,178.1 144.4,172.8 162.2,164.9 180.1,160.9 198.0,156.2 215.8,150.8 233.7,147.2 251.6,141.0 269.5,136.9 287.3,132.2 305.2,128.2 323.1,124.0 340.9,118.8 358.8,115.0 376.7,109.4 394.6,103.1 412.4,100.4 430.3,96.4 448.2,91.7 466.1,87.2 483.9,83.7 501.8,79.0 519.7,75.6 537.5,72.9 555.4,70.0 573.3,66.9 591.2,64.9 609.0,61.7 626.9,59.5 644.8,55.4 662.6,52.5 680.5,49.6 698.4,46.0 716.3,43.6 734.1,42.2 752.0,40.0 752.0,235" fill="#0969da" opacity="0.15"/>
  <polyline points="55.0,232.8 72.9,217.8 90.7,201.6 108.6,185.1 126.5,178.1 144.4,172.8 162.2,164.9 180.1,160.9 198.0,156.2 215.8,150.8 233.7,147.2 251.6,141.0 269.5,136.9 287.3,132.2 305.2,128.2 323.1,124.0 340.9,118.8 358.8,115.0 376.7,109.4 394.6,103.1 412.4,100.4 430.3,96.4 448.2,91.7 466.1,87.2 483.9,83.7 501.8,79.0 519.7,75.6 537.5,72.9 555.4,70.0 573.3,66.9 591.2,64.9 609.0,61.7 626.9,59.5 644.8,55.4 662.6,52.5 680.5,49.6 698.4,46.0 716.3,43.6 734.1,42.2 752.0,40.0" fill="none" stroke="#0969da" stroke-width="2" stroke-linejoin="round"/>
  <circle cx="55.0" cy="232.8" r="4" fill="#0969da" stroke="#ffffff" stroke-width="2"/>
  <circle cx="752.0" cy="40.0" r="4" fill="#0969da" stroke="#ffffff" stroke-width="2"/>
  <text x="758" y="239.0" fill="#57606a" font-size="11" text-anchor="start">0</text>
  <text x="758" y="200.0" fill="#57606a" font-size="11" text-anchor="start">14</text>
  <text x="758" y="161.0" fill="#57606a" font-size="11" text-anchor="start">29</text>
  <text x="758" y="122.0" fill="#57606a" font-size="11" text-anchor="start">44</text>
  <text x="758" y="83.0" fill="#57606a" font-size="11" text-anchor="start">59</text>
  <text x="758" y="44.0" fill="#57606a" font-size="11" text-anchor="start">74</text>
  <text x="55.0" y="272" fill="#57606a" font-size="11" text-anchor="middle">05-20</text>
  <line x1="55.0" y1="235" x2="55.0" y2="239" stroke="#57606a" stroke-width="1"/>
  <text x="162.2" y="272" fill="#57606a" font-size="11" text-anchor="middle">05-28</text>
  <line x1="162.2" y1="235" x2="162.2" y2="239" stroke="#57606a" stroke-width="1"/>
  <text x="269.5" y="272" fill="#57606a" font-size="11" text-anchor="middle">06-03</text>
  <line x1="269.5" y1="235" x2="269.5" y2="239" stroke="#57606a" stroke-width="1"/>
  <text x="376.7" y="272" fill="#57606a" font-size="11" text-anchor="middle">06-10</text>
  <line x1="376.7" y1="235" x2="376.7" y2="239" stroke="#57606a" stroke-width="1"/>
  <text x="483.9" y="272" fill="#57606a" font-size="11" text-anchor="middle">06-16</text>
  <line x1="483.9" y1="235" x2="483.9" y2="239" stroke="#57606a" stroke-width="1"/>
  <text x="591.2" y="272" fill="#57606a" font-size="11" text-anchor="middle">06-22</text>
  <line x1="591.2" y1="235" x2="591.2" y2="239" stroke="#57606a" stroke-width="1"/>
  <text x="698.4" y="272" fill="#57606a" font-size="11" text-anchor="middle">06-28</text>
  <line x1="698.4" y1="235" x2="698.4" y2="239" stroke="#57606a" stroke-width="1"/>
  <text x="752.0" y="272" fill="#57606a" font-size="11" text-anchor="middle">07-01</text>
  <line x1="752.0" y1="235" x2="752.0" y2="239" stroke="#57606a" stroke-width="1"/>
  <text x="400" y="22" fill="#1f2328" font-size="14" font-weight="bold" text-anchor="middle">累计：助记 871 词</text>
  <rect x="552" y="30" width="10" height="3" fill="#0969da"/>
  <text x="566" y="34" fill="#57606a" font-size="11">累计助记</text>
  <rect x="624" y="28" width="9" height="7" fill="#0969da" opacity="0.5"/>
  <text x="637" y="34" fill="#57606a" font-size="11">每日新增</text>
  <line x1="55" y1="40" x2="55" y2="235" stroke="#d0d7de" stroke-width="1"/>
  <line x1="55" y1="235" x2="752" y2="235" stroke="#d0d7de" stroke-width="1"/>
</svg>
