<svg width="800" height="280" xmlns="http://www.w3.org/2000/svg" viewBox="0 0 800 280" font-family="-apple-system, BlinkMacSystemFont, 'Segoe UI', 'PingFang SC', 'Hiragino Sans GB', 'Microsoft YaHei', 'Noto Sans CJK SC', sans-serif">
  <rect width="800" height="280" fill="#ffffff"/>
  <line x1="55" y1="235.0" x2="752" y2="235.0" stroke="#eaeef2" stroke-width="1"/>
  <text x="49" y="239.0" fill="#57606a" font-size="11" text-anchor="end">0</text>
  <line x1="55" y1="196.0" x2="752" y2="196.0" stroke="#eaeef2" stroke-width="1"/>
  <text x="49" y="200.0" fill="#57606a" font-size="11" text-anchor="end">55</text>
  <line x1="55" y1="157.0" x2="752" y2="157.0" stroke="#eaeef2" stroke-width="1"/>
  <text x="49" y="161.0" fill="#57606a" font-size="11" text-anchor="end">111</text>
  <line x1="55" y1="118.0" x2="752" y2="118.0" stroke="#eaeef2" stroke-width="1"/>
  <text x="49" y="122.0" fill="#57606a" font-size="11" text-anchor="end">166</text>
  <line x1="55" y1="79.0" x2="752" y2="79.0" stroke="#eaeef2" stroke-width="1"/>
  <text x="49" y="83.0" fill="#57606a" font-size="11" text-anchor="end">222</text>
  <line x1="55" y1="40.0" x2="752" y2="40.0" stroke="#eaeef2" stroke-width="1"/>
  <text x="49" y="44.0" fill="#57606a" font-size="11" text-anchor="end">278</text>
  <rect x="28.9" y="208.6" width="52.3" height="26.4" fill="#0969da" opacity="0.35" rx="2"/>
  <text x="55.0" y="204.6" fill="#57606a" font-size="10" text-anchor="middle">10</text>
  <rect x="168.3" y="58.4" width="52.3" height="176.6" fill="#0969da" opacity="0.35" rx="2"/>
  <text x="194.4" y="54.4" fill="#57606a" font-size="10" text-anchor="middle">67</text>
  <rect x="307.7" y="45.3" width="52.3" height="189.7" fill="#0969da" opacity="0.35" rx="2"/>
  <text x="333.8" y="41.3" fill="#57606a" font-size="10" text-anchor="middle">72</text>
  <rect x="447.1" y="40.0" width="52.3" height="195.0" fill="#0969da" opacity="0.35" rx="2"/>
  <text x="473.2" y="36.0" fill="#57606a" font-size="10" text-anchor="middle">74</text>
  <rect x="586.5" y="153.3" width="52.3" height="81.7" fill="#0969da" opacity="0.35" rx="2"/>
  <text x="612.6" y="149.3" fill="#57606a" font-size="10" text-anchor="middle">31</text>
  <rect x="725.9" y="171.8" width="52.3" height="63.2" fill="#0969da" opacity="0.35" rx="2"/>
  <text x="752.0" y="167.8" fill="#57606a" font-size="10" text-anchor="middle">24</text>
  <polygon points="55.0,235 55.0,228.0 194.4,181.0 333.8,130.5 473.2,78.6 612.6,56.8 752.0,40.0 752.0,235" fill="#0969da" opacity="0.15"/>
  <polyline points="55.0,228.0 194.4,181.0 333.8,130.5 473.2,78.6 612.6,56.8 752.0,40.0" fill="none" stroke="#0969da" stroke-width="2" stroke-linejoin="round"/>
  <circle cx="55.0" cy="228.0" r="4" fill="#0969da" stroke="#ffffff" stroke-width="2"/>
  <circle cx="752.0" cy="40.0" r="4" fill="#0969da" stroke="#ffffff" stroke-width="2"/>
  <text x="758" y="239.0" fill="#57606a" font-size="11" text-anchor="start">0</text>
  <text x="758" y="200.0" fill="#57606a" font-size="11" text-anchor="start">14</text>
  <text x="758" y="161.0" fill="#57606a" font-size="11" text-anchor="start">29</text>
  <text x="758" y="122.0" fill="#57606a" font-size="11" text-anchor="start">44</text>
  <text x="758" y="83.0" fill="#57606a" font-size="11" text-anchor="start">59</text>
  <text x="758" y="44.0" fill="#57606a" font-size="11" text-anchor="start">74</text>
  <text x="55.0" y="272" fill="#57606a" font-size="11" text-anchor="middle">05-20</text>
  <line x1="55.0" y1="235" x2="55.0" y2="239" stroke="#57606a" stroke-width="1"/>
  <text x="194.4" y="272" fill="#57606a" font-size="11" text-anchor="middle">05-21</text>
  <line x1="194.4" y1="235" x2="194.4" y2="239" stroke="#57606a" stroke-width="1"/>
  <text x="333.8" y="272" fill="#57606a" font-size="11" text-anchor="middle">05-23</text>
  <line x1="333.8" y1="235" x2="333.8" y2="239" stroke="#57606a" stroke-width="1"/>
  <text x="473.2" y="272" fill="#57606a" font-size="11" text-anchor="middle">05-25</text>
  <line x1="473.2" y1="235" x2="473.2" y2="239" stroke="#57606a" stroke-width="1"/>
  <text x="612.6" y="272" fill="#57606a" font-size="11" text-anchor="middle">05-26</text>
  <line x1="612.6" y1="235" x2="612.6" y2="239" stroke="#57606a" stroke-width="1"/>
  <text x="752.0" y="272" fill="#57606a" font-size="11" text-anchor="middle">05-27</text>
  <line x1="752.0" y1="235" x2="752.0" y2="239" stroke="#57606a" stroke-width="1"/>
  <text x="400" y="22" fill="#1f2328" font-size="14" font-weight="bold" text-anchor="middle">累计：助记 278 词</text>
  <rect x="552" y="30" width="10" height="3" fill="#0969da"/>
  <text x="566" y="34" fill="#57606a" font-size="11">累计助记</text>
  <rect x="624" y="28" width="9" height="7" fill="#0969da" opacity="0.5"/>
  <text x="637" y="34" fill="#57606a" font-size="11">每日新增</text>
  <line x1="55" y1="40" x2="55" y2="235" stroke="#d0d7de" stroke-width="1"/>
  <line x1="55" y1="235" x2="752" y2="235" stroke="#d0d7de" stroke-width="1"/>
</svg>
