<svg width="800" height="280" xmlns="http://www.w3.org/2000/svg" viewBox="0 0 800 280" font-family="-apple-system, BlinkMacSystemFont, 'Segoe UI', 'PingFang SC', 'Hiragino Sans GB', 'Microsoft YaHei', 'Noto Sans CJK SC', sans-serif">
  <rect width="800" height="280" fill="#ffffff"/>
  <line x1="55" y1="235.0" x2="752" y2="235.0" stroke="#eaeef2" stroke-width="1"/>
  <text x="49" y="239.0" fill="#57606a" font-size="11" text-anchor="end">0</text>
  <line x1="55" y1="196.0" x2="752" y2="196.0" stroke="#eaeef2" stroke-width="1"/>
  <text x="49" y="200.0" fill="#57606a" font-size="11" text-anchor="end">163</text>
  <line x1="55" y1="157.0" x2="752" y2="157.0" stroke="#eaeef2" stroke-width="1"/>
  <text x="49" y="161.0" fill="#57606a" font-size="11" text-anchor="end">326</text>
  <line x1="55" y1="118.0" x2="752" y2="118.0" stroke="#eaeef2" stroke-width="1"/>
  <text x="49" y="122.0" fill="#57606a" font-size="11" text-anchor="end">489</text>
  <line x1="55" y1="79.0" x2="752" y2="79.0" stroke="#eaeef2" stroke-width="1"/>
  <text x="49" y="83.0" fill="#57606a" font-size="11" text-anchor="end">652</text>
  <line x1="55" y1="40.0" x2="752" y2="40.0" stroke="#eaeef2" stroke-width="1"/>
  <text x="49" y="44.0" fill="#57606a" font-size="11" text-anchor="end">815</text>
  <rect x="50.5" y="208.6" width="9.0" height="26.4" fill="#0969da" opacity="0.35" rx="2"/>
  <text x="55.0" y="204.6" fill="#57606a" font-size="10" text-anchor="middle">10</text>
  <rect x="71.0" y="58.4" width="9.0" height="176.6" fill="#0969da" opacity="0.35" rx="2"/>
  <text x="75.5" y="54.4" fill="#57606a" font-size="10" text-anchor="middle">67</text>
  <rect x="91.5" y="45.3" width="9.0" height="189.7" fill="#0969da" opacity="0.35" rx="2"/>
  <text x="96.0" y="41.3" fill="#57606a" font-size="10" text-anchor="middle">72</text>
  <rect x="112.0" y="40.0" width="9.0" height="195.0" fill="#0969da" opacity="0.35" rx="2"/>
  <text x="116.5" y="36.0" fill="#57606a" font-size="10" text-anchor="middle">74</text>
  <rect x="132.5" y="153.3" width="9.0" height="81.7" fill="#0969da" opacity="0.35" rx="2"/>
  <text x="137.0" y="149.3" fill="#57606a" font-size="10" text-anchor="middle">31</text>
  <rect x="153.0" y="171.8" width="9.0" height="63.2" fill="#0969da" opacity="0.35" rx="2"/>
  <text x="157.5" y="167.8" fill="#57606a" font-size="10" text-anchor="middle">24</text>
  <rect x="173.5" y="142.8" width="9.0" height="92.2" fill="#0969da" opacity="0.35" rx="2"/>
  <text x="178.0" y="138.8" fill="#57606a" font-size="10" text-anchor="middle">35</text>
  <rect x="194.0" y="187.6" width="9.0" height="47.4" fill="#0969da" opacity="0.35" rx="2"/>
  <text x="198.5" y="183.6" fill="#57606a" font-size="10" text-anchor="middle">18</text>
  <rect x="214.5" y="179.7" width="9.0" height="55.3" fill="#0969da" opacity="0.35" rx="2"/>
  <text x="219.0" y="175.7" fill="#57606a" font-size="10" text-anchor="middle">21</text>
  <rect x="235.0" y="171.8" width="9.0" height="63.2" fill="#0969da" opacity="0.35" rx="2"/>
  <text x="239.5" y="167.8" fill="#57606a" font-size="10" text-anchor="middle">24</text>
  <rect x="255.5" y="192.8" width="9.0" height="42.2" fill="#0969da" opacity="0.35" rx="2"/>
  <text x="260.0" y="188.8" fill="#57606a" font-size="10" text-anchor="middle">16</text>
  <rect x="276.0" y="161.2" width="9.0" height="73.8" fill="#0969da" opacity="0.35" rx="2"/>
  <text x="280.5" y="157.2" fill="#57606a" font-size="10" text-anchor="middle">28</text>
  <rect x="296.5" y="187.6" width="9.0" height="47.4" fill="#0969da" opacity="0.35" rx="2"/>
  <text x="301.0" y="183.6" fill="#57606a" font-size="10" text-anchor="middle">18</text>
  <rect x="317.0" y="179.7" width="9.0" height="55.3" fill="#0969da" opacity="0.35" rx="2"/>
  <text x="321.5" y="175.7" fill="#57606a" font-size="10" text-anchor="middle">21</text>
  <rect x="337.5" y="187.6" width="9.0" height="47.4" fill="#0969da" opacity="0.35" rx="2"/>
  <text x="342.0" y="183.6" fill="#57606a" font-size="10" text-anchor="middle">18</text>
  <rect x="358.0" y="184.9" width="9.0" height="50.1" fill="#0969da" opacity="0.35" rx="2"/>
  <text x="362.5" y="180.9" fill="#57606a" font-size="10" text-anchor="middle">19</text>
  <rect x="378.5" y="174.4" width="9.0" height="60.6" fill="#0969da" opacity="0.35" rx="2"/>
  <text x="383.0" y="170.4" fill="#57606a" font-size="10" text-anchor="middle">23</text>
  <rect x="399.0" y="190.2" width="9.0" height="44.8" fill="#0969da" opacity="0.35" rx="2"/>
  <text x="403.5" y="186.2" fill="#57606a" font-size="10" text-anchor="middle">17</text>
  <rect x="419.5" y="169.1" width="9.0" height="65.9" fill="#0969da" opacity="0.35" rx="2"/>
  <text x="424.0" y="165.1" fill="#57606a" font-size="10" text-anchor="middle">25</text>
  <rect x="440.0" y="161.2" width="9.0" height="73.8" fill="#0969da" opacity="0.35" rx="2"/>
  <text x="444.5" y="157.2" fill="#57606a" font-size="10" text-anchor="middle">28</text>
  <rect x="460.5" y="203.4" width="9.0" height="31.6" fill="#0969da" opacity="0.35" rx="2"/>
  <text x="465.0" y="199.4" fill="#57606a" font-size="10" text-anchor="middle">12</text>
  <rect x="481.0" y="187.6" width="9.0" height="47.4" fill="#0969da" opacity="0.35" rx="2"/>
  <text x="485.5" y="183.6" fill="#57606a" font-size="10" text-anchor="middle">18</text>
  <rect x="501.5" y="179.7" width="9.0" height="55.3" fill="#0969da" opacity="0.35" rx="2"/>
  <text x="506.0" y="175.7" fill="#57606a" font-size="10" text-anchor="middle">21</text>
  <rect x="522.0" y="182.3" width="9.0" height="52.7" fill="#0969da" opacity="0.35" rx="2"/>
  <text x="526.5" y="178.3" fill="#57606a" font-size="10" text-anchor="middle">20</text>
  <rect x="542.5" y="192.8" width="9.0" height="42.2" fill="#0969da" opacity="0.35" rx="2"/>
  <text x="547.0" y="188.8" fill="#57606a" font-size="10" text-anchor="middle">16</text>
  <rect x="563.0" y="179.7" width="9.0" height="55.3" fill="#0969da" opacity="0.35" rx="2"/>
  <text x="567.5" y="175.7" fill="#57606a" font-size="10" text-anchor="middle">21</text>
  <rect x="583.5" y="195.5" width="9.0" height="39.5" fill="#0969da" opacity="0.35" rx="2"/>
  <text x="588.0" y="191.5" fill="#57606a" font-size="10" text-anchor="middle">15</text>
  <rect x="604.0" y="203.4" width="9.0" height="31.6" fill="#0969da" opacity="0.35" rx="2"/>
  <text x="608.5" y="199.4" fill="#57606a" font-size="10" text-anchor="middle">12</text>
  <rect x="624.5" y="200.7" width="9.0" height="34.3" fill="#0969da" opacity="0.35" rx="2"/>
  <text x="629.0" y="196.7" fill="#57606a" font-size="10" text-anchor="middle">13</text>
  <rect x="645.0" y="198.1" width="9.0" height="36.9" fill="#0969da" opacity="0.35" rx="2"/>
  <text x="649.5" y="194.1" fill="#57606a" font-size="10" text-anchor="middle">14</text>
  <rect x="665.5" y="211.3" width="9.0" height="23.7" fill="#0969da" opacity="0.35" rx="2"/>
  <text x="670.0" y="207.3" fill="#57606a" font-size="10" text-anchor="middle">9</text>
  <rect x="686.0" y="198.1" width="9.0" height="36.9" fill="#0969da" opacity="0.35" rx="2"/>
  <text x="690.5" y="194.1" fill="#57606a" font-size="10" text-anchor="middle">14</text>
  <rect x="706.5" y="208.6" width="9.0" height="26.4" fill="#0969da" opacity="0.35" rx="2"/>
  <text x="711.0" y="204.6" fill="#57606a" font-size="10" text-anchor="middle">10</text>
  <rect x="727.0" y="187.6" width="9.0" height="47.4" fill="#0969da" opacity="0.35" rx="2"/>
  <text x="731.5" y="183.6" fill="#57606a" font-size="10" text-anchor="middle">18</text>
  <rect x="747.5" y="200.7" width="9.0" height="34.3" fill="#0969da" opacity="0.35" rx="2"/>
  <text x="752.0" y="196.7" fill="#57606a" font-size="10" text-anchor="middle">13</text>
  <polygon points="55.0,235 55.0,232.6 75.5,216.6 96.0,199.3 116.5,181.6 137.0,174.2 157.5,168.5 178.0,160.1 198.5,155.8 219.0,150.8 239.5,145.0 260.0,141.2 280.5,134.5 301.0,130.2 321.5,125.2 342.0,120.9 362.5,116.3 383.0,110.8 403.5,106.8 424.0,100.8 444.5,94.1 465.0,91.2 485.5,86.9 506.0,81.9 526.5,77.1 547.0,73.3 567.5,68.2 588.0,64.6 608.5,61.8 629.0,58.7 649.5,55.3 670.0,53.2 690.5,49.8 711.0,47.4 731.5,43.1 752.0,40.0 752.0,235" fill="#0969da" opacity="0.15"/>
  <polyline points="55.0,232.6 75.5,216.6 96.0,199.3 116.5,181.6 137.0,174.2 157.5,168.5 178.0,160.1 198.5,155.8 219.0,150.8 239.5,145.0 260.0,141.2 280.5,134.5 301.0,130.2 321.5,125.2 342.0,120.9 362.5,116.3 383.0,110.8 403.5,106.8 424.0,100.8 444.5,94.1 465.0,91.2 485.5,86.9 506.0,81.9 526.5,77.1 547.0,73.3 567.5,68.2 588.0,64.6 608.5,61.8 629.0,58.7 649.5,55.3 670.0,53.2 690.5,49.8 711.0,47.4 731.5,43.1 752.0,40.0" fill="none" stroke="#0969da" stroke-width="2" stroke-linejoin="round"/>
  <circle cx="55.0" cy="232.6" r="4" fill="#0969da" stroke="#ffffff" stroke-width="2"/>
  <circle cx="752.0" cy="40.0" r="4" fill="#0969da" stroke="#ffffff" stroke-width="2"/>
  <text x="758" y="239.0" fill="#57606a" font-size="11" text-anchor="start">0</text>
  <text x="758" y="200.0" fill="#57606a" font-size="11" text-anchor="start">14</text>
  <text x="758" y="161.0" fill="#57606a" font-size="11" text-anchor="start">29</text>
  <text x="758" y="122.0" fill="#57606a" font-size="11" text-anchor="start">44</text>
  <text x="758" y="83.0" fill="#57606a" font-size="11" text-anchor="start">59</text>
  <text x="758" y="44.0" fill="#57606a" font-size="11" text-anchor="start">74</text>
  <text x="55.0" y="272" fill="#57606a" font-size="11" text-anchor="middle">05-20</text>
  <line x1="55.0" y1="235" x2="55.0" y2="239" stroke="#57606a" stroke-width="1"/>
  <text x="157.5" y="272" fill="#57606a" font-size="11" text-anchor="middle">05-27</text>
  <line x1="157.5" y1="235" x2="157.5" y2="239" stroke="#57606a" stroke-width="1"/>
  <text x="260.0" y="272" fill="#57606a" font-size="11" text-anchor="middle">06-01</text>
  <line x1="260.0" y1="235" x2="260.0" y2="239" stroke="#57606a" stroke-width="1"/>
  <text x="362.5" y="272" fill="#57606a" font-size="11" text-anchor="middle">06-06</text>
  <line x1="362.5" y1="235" x2="362.5" y2="239" stroke="#57606a" stroke-width="1"/>
  <text x="465.0" y="272" fill="#57606a" font-size="11" text-anchor="middle">06-12</text>
  <line x1="465.0" y1="235" x2="465.0" y2="239" stroke="#57606a" stroke-width="1"/>
  <text x="567.5" y="272" fill="#57606a" font-size="11" text-anchor="middle">06-17</text>
  <line x1="567.5" y1="235" x2="567.5" y2="239" stroke="#57606a" stroke-width="1"/>
  <text x="670.0" y="272" fill="#57606a" font-size="11" text-anchor="middle">06-22</text>
  <line x1="670.0" y1="235" x2="670.0" y2="239" stroke="#57606a" stroke-width="1"/>
  <text x="752.0" y="272" fill="#57606a" font-size="11" text-anchor="middle">06-26</text>
  <line x1="752.0" y1="235" x2="752.0" y2="239" stroke="#57606a" stroke-width="1"/>
  <text x="400" y="22" fill="#1f2328" font-size="14" font-weight="bold" text-anchor="middle">累计：助记 815 词</text>
  <rect x="552" y="30" width="10" height="3" fill="#0969da"/>
  <text x="566" y="34" fill="#57606a" font-size="11">累计助记</text>
  <rect x="624" y="28" width="9" height="7" fill="#0969da" opacity="0.5"/>
  <text x="637" y="34" fill="#57606a" font-size="11">每日新增</text>
  <line x1="55" y1="40" x2="55" y2="235" stroke="#d0d7de" stroke-width="1"/>
  <line x1="55" y1="235" x2="752" y2="235" stroke="#d0d7de" stroke-width="1"/>
</svg>
