<svg width="800" height="280" xmlns="http://www.w3.org/2000/svg" viewBox="0 0 800 280" font-family="-apple-system, BlinkMacSystemFont, 'Segoe UI', 'PingFang SC', 'Hiragino Sans GB', 'Microsoft YaHei', 'Noto Sans CJK SC', sans-serif">
  <rect width="800" height="280" fill="#ffffff"/>
  <line x1="55" y1="235.0" x2="752" y2="235.0" stroke="#eaeef2" stroke-width="1"/>
  <text x="49" y="239.0" fill="#57606a" font-size="11" text-anchor="end">0</text>
  <line x1="55" y1="196.0" x2="752" y2="196.0" stroke="#eaeef2" stroke-width="1"/>
  <text x="49" y="200.0" fill="#57606a" font-size="11" text-anchor="end">171</text>
  <line x1="55" y1="157.0" x2="752" y2="157.0" stroke="#eaeef2" stroke-width="1"/>
  <text x="49" y="161.0" fill="#57606a" font-size="11" text-anchor="end">342</text>
  <line x1="55" y1="118.0" x2="752" y2="118.0" stroke="#eaeef2" stroke-width="1"/>
  <text x="49" y="122.0" fill="#57606a" font-size="11" text-anchor="end">513</text>
  <line x1="55" y1="79.0" x2="752" y2="79.0" stroke="#eaeef2" stroke-width="1"/>
  <text x="49" y="83.0" fill="#57606a" font-size="11" text-anchor="end">684</text>
  <line x1="55" y1="40.0" x2="752" y2="40.0" stroke="#eaeef2" stroke-width="1"/>
  <text x="49" y="44.0" fill="#57606a" font-size="11" text-anchor="end">855</text>
  <rect x="50.9" y="208.6" width="8.3" height="26.4" fill="#0969da" opacity="0.35" rx="2"/>
  <text x="55.0" y="204.6" fill="#57606a" font-size="10" text-anchor="middle">10</text>
  <rect x="69.7" y="58.4" width="8.3" height="176.6" fill="#0969da" opacity="0.35" rx="2"/>
  <text x="73.8" y="54.4" fill="#57606a" font-size="10" text-anchor="middle">67</text>
  <rect x="88.5" y="45.3" width="8.3" height="189.7" fill="#0969da" opacity="0.35" rx="2"/>
  <text x="92.7" y="41.3" fill="#57606a" font-size="10" text-anchor="middle">72</text>
  <rect x="107.4" y="40.0" width="8.3" height="195.0" fill="#0969da" opacity="0.35" rx="2"/>
  <text x="111.5" y="36.0" fill="#57606a" font-size="10" text-anchor="middle">74</text>
  <rect x="126.2" y="153.3" width="8.3" height="81.7" fill="#0969da" opacity="0.35" rx="2"/>
  <text x="130.4" y="149.3" fill="#57606a" font-size="10" text-anchor="middle">31</text>
  <rect x="145.1" y="171.8" width="8.3" height="63.2" fill="#0969da" opacity="0.35" rx="2"/>
  <text x="149.2" y="167.8" fill="#57606a" font-size="10" text-anchor="middle">24</text>
  <rect x="163.9" y="142.8" width="8.3" height="92.2" fill="#0969da" opacity="0.35" rx="2"/>
  <text x="168.0" y="138.8" fill="#57606a" font-size="10" text-anchor="middle">35</text>
  <rect x="182.7" y="187.6" width="8.3" height="47.4" fill="#0969da" opacity="0.35" rx="2"/>
  <text x="186.9" y="183.6" fill="#57606a" font-size="10" text-anchor="middle">18</text>
  <rect x="201.6" y="179.7" width="8.3" height="55.3" fill="#0969da" opacity="0.35" rx="2"/>
  <text x="205.7" y="175.7" fill="#57606a" font-size="10" text-anchor="middle">21</text>
  <rect x="220.4" y="171.8" width="8.3" height="63.2" fill="#0969da" opacity="0.35" rx="2"/>
  <text x="224.5" y="167.8" fill="#57606a" font-size="10" text-anchor="middle">24</text>
  <rect x="239.3" y="192.8" width="8.3" height="42.2" fill="#0969da" opacity="0.35" rx="2"/>
  <text x="243.4" y="188.8" fill="#57606a" font-size="10" text-anchor="middle">16</text>
  <rect x="258.1" y="161.2" width="8.3" height="73.8" fill="#0969da" opacity="0.35" rx="2"/>
  <text x="262.2" y="157.2" fill="#57606a" font-size="10" text-anchor="middle">28</text>
  <rect x="276.9" y="187.6" width="8.3" height="47.4" fill="#0969da" opacity="0.35" rx="2"/>
  <text x="281.1" y="183.6" fill="#57606a" font-size="10" text-anchor="middle">18</text>
  <rect x="295.8" y="179.7" width="8.3" height="55.3" fill="#0969da" opacity="0.35" rx="2"/>
  <text x="299.9" y="175.7" fill="#57606a" font-size="10" text-anchor="middle">21</text>
  <rect x="314.6" y="187.6" width="8.3" height="47.4" fill="#0969da" opacity="0.35" rx="2"/>
  <text x="318.7" y="183.6" fill="#57606a" font-size="10" text-anchor="middle">18</text>
  <rect x="333.4" y="184.9" width="8.3" height="50.1" fill="#0969da" opacity="0.35" rx="2"/>
  <text x="337.6" y="180.9" fill="#57606a" font-size="10" text-anchor="middle">19</text>
  <rect x="352.3" y="174.4" width="8.3" height="60.6" fill="#0969da" opacity="0.35" rx="2"/>
  <text x="356.4" y="170.4" fill="#57606a" font-size="10" text-anchor="middle">23</text>
  <rect x="371.1" y="190.2" width="8.3" height="44.8" fill="#0969da" opacity="0.35" rx="2"/>
  <text x="375.2" y="186.2" fill="#57606a" font-size="10" text-anchor="middle">17</text>
  <rect x="390.0" y="169.1" width="8.3" height="65.9" fill="#0969da" opacity="0.35" rx="2"/>
  <text x="394.1" y="165.1" fill="#57606a" font-size="10" text-anchor="middle">25</text>
  <rect x="408.8" y="161.2" width="8.3" height="73.8" fill="#0969da" opacity="0.35" rx="2"/>
  <text x="412.9" y="157.2" fill="#57606a" font-size="10" text-anchor="middle">28</text>
  <rect x="427.6" y="203.4" width="8.3" height="31.6" fill="#0969da" opacity="0.35" rx="2"/>
  <text x="431.8" y="199.4" fill="#57606a" font-size="10" text-anchor="middle">12</text>
  <rect x="446.5" y="187.6" width="8.3" height="47.4" fill="#0969da" opacity="0.35" rx="2"/>
  <text x="450.6" y="183.6" fill="#57606a" font-size="10" text-anchor="middle">18</text>
  <rect x="465.3" y="179.7" width="8.3" height="55.3" fill="#0969da" opacity="0.35" rx="2"/>
  <text x="469.4" y="175.7" fill="#57606a" font-size="10" text-anchor="middle">21</text>
  <rect x="484.1" y="182.3" width="8.3" height="52.7" fill="#0969da" opacity="0.35" rx="2"/>
  <text x="488.3" y="178.3" fill="#57606a" font-size="10" text-anchor="middle">20</text>
  <rect x="503.0" y="192.8" width="8.3" height="42.2" fill="#0969da" opacity="0.35" rx="2"/>
  <text x="507.1" y="188.8" fill="#57606a" font-size="10" text-anchor="middle">16</text>
  <rect x="521.8" y="179.7" width="8.3" height="55.3" fill="#0969da" opacity="0.35" rx="2"/>
  <text x="525.9" y="175.7" fill="#57606a" font-size="10" text-anchor="middle">21</text>
  <rect x="540.7" y="195.5" width="8.3" height="39.5" fill="#0969da" opacity="0.35" rx="2"/>
  <text x="544.8" y="191.5" fill="#57606a" font-size="10" text-anchor="middle">15</text>
  <rect x="559.5" y="203.4" width="8.3" height="31.6" fill="#0969da" opacity="0.35" rx="2"/>
  <text x="563.6" y="199.4" fill="#57606a" font-size="10" text-anchor="middle">12</text>
  <rect x="578.3" y="200.7" width="8.3" height="34.3" fill="#0969da" opacity="0.35" rx="2"/>
  <text x="582.5" y="196.7" fill="#57606a" font-size="10" text-anchor="middle">13</text>
  <rect x="597.2" y="198.1" width="8.3" height="36.9" fill="#0969da" opacity="0.35" rx="2"/>
  <text x="601.3" y="194.1" fill="#57606a" font-size="10" text-anchor="middle">14</text>
  <rect x="616.0" y="211.3" width="8.3" height="23.7" fill="#0969da" opacity="0.35" rx="2"/>
  <text x="620.1" y="207.3" fill="#57606a" font-size="10" text-anchor="middle">9</text>
  <rect x="634.8" y="198.1" width="8.3" height="36.9" fill="#0969da" opacity="0.35" rx="2"/>
  <text x="639.0" y="194.1" fill="#57606a" font-size="10" text-anchor="middle">14</text>
  <rect x="653.7" y="208.6" width="8.3" height="26.4" fill="#0969da" opacity="0.35" rx="2"/>
  <text x="657.8" y="204.6" fill="#57606a" font-size="10" text-anchor="middle">10</text>
  <rect x="672.5" y="187.6" width="8.3" height="47.4" fill="#0969da" opacity="0.35" rx="2"/>
  <text x="676.6" y="183.6" fill="#57606a" font-size="10" text-anchor="middle">18</text>
  <rect x="691.4" y="200.7" width="8.3" height="34.3" fill="#0969da" opacity="0.35" rx="2"/>
  <text x="695.5" y="196.7" fill="#57606a" font-size="10" text-anchor="middle">13</text>
  <rect x="710.2" y="200.7" width="8.3" height="34.3" fill="#0969da" opacity="0.35" rx="2"/>
  <text x="714.3" y="196.7" fill="#57606a" font-size="10" text-anchor="middle">13</text>
  <rect x="729.0" y="192.8" width="8.3" height="42.2" fill="#0969da" opacity="0.35" rx="2"/>
  <text x="733.2" y="188.8" fill="#57606a" font-size="10" text-anchor="middle">16</text>
  <rect x="747.9" y="206.0" width="8.3" height="29.0" fill="#0969da" opacity="0.35" rx="2"/>
  <text x="752.0" y="202.0" fill="#57606a" font-size="10" text-anchor="middle">11</text>
  <polygon points="55.0,235 55.0,232.7 73.8,217.4 92.7,201.0 111.5,184.1 130.4,177.1 149.2,171.6 168.0,163.6 186.9,159.5 205.7,154.7 224.5,149.2 243.4,145.6 262.2,139.2 281.1,135.1 299.9,130.3 318.7,126.2 337.6,121.9 356.4,116.6 375.2,112.8 394.1,107.1 412.9,100.7 431.8,97.9 450.6,93.8 469.4,89.0 488.3,84.5 507.1,80.8 525.9,76.0 544.8,72.6 563.6,69.9 582.5,66.9 601.3,63.7 620.1,61.7 639.0,58.5 657.8,56.2 676.6,52.1 695.5,49.1 714.3,46.2 733.2,42.5 752.0,40.0 752.0,235" fill="#0969da" opacity="0.15"/>
  <polyline points="55.0,232.7 73.8,217.4 92.7,201.0 111.5,184.1 130.4,177.1 149.2,171.6 168.0,163.6 186.9,159.5 205.7,154.7 224.5,149.2 243.4,145.6 262.2,139.2 281.1,135.1 299.9,130.3 318.7,126.2 337.6,121.9 356.4,116.6 375.2,112.8 394.1,107.1 412.9,100.7 431.8,97.9 450.6,93.8 469.4,89.0 488.3,84.5 507.1,80.8 525.9,76.0 544.8,72.6 563.6,69.9 582.5,66.9 601.3,63.7 620.1,61.7 639.0,58.5 657.8,56.2 676.6,52.1 695.5,49.1 714.3,46.2 733.2,42.5 752.0,40.0" fill="none" stroke="#0969da" stroke-width="2" stroke-linejoin="round"/>
  <circle cx="55.0" cy="232.7" r="4" fill="#0969da" stroke="#ffffff" stroke-width="2"/>
  <circle cx="752.0" cy="40.0" r="4" fill="#0969da" stroke="#ffffff" stroke-width="2"/>
  <text x="758" y="239.0" fill="#57606a" font-size="11" text-anchor="start">0</text>
  <text x="758" y="200.0" fill="#57606a" font-size="11" text-anchor="start">14</text>
  <text x="758" y="161.0" fill="#57606a" font-size="11" text-anchor="start">29</text>
  <text x="758" y="122.0" fill="#57606a" font-size="11" text-anchor="start">44</text>
  <text x="758" y="83.0" fill="#57606a" font-size="11" text-anchor="start">59</text>
  <text x="758" y="44.0" fill="#57606a" font-size="11" text-anchor="start">74</text>
  <text x="55.0" y="272" fill="#57606a" font-size="11" text-anchor="middle">05-20</text>
  <line x1="55.0" y1="235" x2="55.0" y2="239" stroke="#57606a" stroke-width="1"/>
  <text x="168.0" y="272" fill="#57606a" font-size="11" text-anchor="middle">05-28</text>
  <line x1="168.0" y1="235" x2="168.0" y2="239" stroke="#57606a" stroke-width="1"/>
  <text x="281.1" y="272" fill="#57606a" font-size="11" text-anchor="middle">06-03</text>
  <line x1="281.1" y1="235" x2="281.1" y2="239" stroke="#57606a" stroke-width="1"/>
  <text x="394.1" y="272" fill="#57606a" font-size="11" text-anchor="middle">06-10</text>
  <line x1="394.1" y1="235" x2="394.1" y2="239" stroke="#57606a" stroke-width="1"/>
  <text x="507.1" y="272" fill="#57606a" font-size="11" text-anchor="middle">06-16</text>
  <line x1="507.1" y1="235" x2="507.1" y2="239" stroke="#57606a" stroke-width="1"/>
  <text x="620.1" y="272" fill="#57606a" font-size="11" text-anchor="middle">06-22</text>
  <line x1="620.1" y1="235" x2="620.1" y2="239" stroke="#57606a" stroke-width="1"/>
  <text x="733.2" y="272" fill="#57606a" font-size="11" text-anchor="middle">06-28</text>
  <line x1="733.2" y1="235" x2="733.2" y2="239" stroke="#57606a" stroke-width="1"/>
  <text x="752.0" y="272" fill="#57606a" font-size="11" text-anchor="middle">06-29</text>
  <line x1="752.0" y1="235" x2="752.0" y2="239" stroke="#57606a" stroke-width="1"/>
  <text x="400" y="22" fill="#1f2328" font-size="14" font-weight="bold" text-anchor="middle">累计：助记 855 词</text>
  <rect x="552" y="30" width="10" height="3" fill="#0969da"/>
  <text x="566" y="34" fill="#57606a" font-size="11">累计助记</text>
  <rect x="624" y="28" width="9" height="7" fill="#0969da" opacity="0.5"/>
  <text x="637" y="34" fill="#57606a" font-size="11">每日新增</text>
  <line x1="55" y1="40" x2="55" y2="235" stroke="#d0d7de" stroke-width="1"/>
  <line x1="55" y1="235" x2="752" y2="235" stroke="#d0d7de" stroke-width="1"/>
</svg>
